%TF.GenerationSoftware,KiCad,Pcbnew,9.0.6-rc1*%
%TF.CreationDate,2025-12-21T23:59:12+01:00*%
%TF.ProjectId,PCB_PAPI,5043425f-5041-4504-992e-6b696361645f,rev?*%
%TF.SameCoordinates,Original*%
%TF.FileFunction,Legend,Bot*%
%TF.FilePolarity,Positive*%
%FSLAX46Y46*%
G04 Gerber Fmt 4.6, Leading zero omitted, Abs format (unit mm)*
G04 Created by KiCad (PCBNEW 9.0.6-rc1) date 2025-12-21 23:59:12*
%MOMM*%
%LPD*%
G01*
G04 APERTURE LIST*
%ADD10C,0.250000*%
%ADD11C,0.254000*%
%ADD12C,0.200000*%
%ADD13C,0.120000*%
%ADD14C,0.100000*%
G04 APERTURE END LIST*
D10*
X178222431Y-86254675D02*
X178222431Y-85588008D01*
X178222431Y-85683246D02*
X178174812Y-85635627D01*
X178174812Y-85635627D02*
X178079574Y-85588008D01*
X178079574Y-85588008D02*
X177936717Y-85588008D01*
X177936717Y-85588008D02*
X177841479Y-85635627D01*
X177841479Y-85635627D02*
X177793860Y-85730865D01*
X177793860Y-85730865D02*
X177793860Y-86254675D01*
X177793860Y-85730865D02*
X177746241Y-85635627D01*
X177746241Y-85635627D02*
X177651003Y-85588008D01*
X177651003Y-85588008D02*
X177508146Y-85588008D01*
X177508146Y-85588008D02*
X177412907Y-85635627D01*
X177412907Y-85635627D02*
X177365288Y-85730865D01*
X177365288Y-85730865D02*
X177365288Y-86254675D01*
X176460527Y-86254675D02*
X176460527Y-85730865D01*
X176460527Y-85730865D02*
X176508146Y-85635627D01*
X176508146Y-85635627D02*
X176603384Y-85588008D01*
X176603384Y-85588008D02*
X176793860Y-85588008D01*
X176793860Y-85588008D02*
X176889098Y-85635627D01*
X176460527Y-86207056D02*
X176555765Y-86254675D01*
X176555765Y-86254675D02*
X176793860Y-86254675D01*
X176793860Y-86254675D02*
X176889098Y-86207056D01*
X176889098Y-86207056D02*
X176936717Y-86111817D01*
X176936717Y-86111817D02*
X176936717Y-86016579D01*
X176936717Y-86016579D02*
X176889098Y-85921341D01*
X176889098Y-85921341D02*
X176793860Y-85873722D01*
X176793860Y-85873722D02*
X176555765Y-85873722D01*
X176555765Y-85873722D02*
X176460527Y-85826103D01*
X176127193Y-85588008D02*
X175746241Y-85588008D01*
X175984336Y-85254675D02*
X175984336Y-86111817D01*
X175984336Y-86111817D02*
X175936717Y-86207056D01*
X175936717Y-86207056D02*
X175841479Y-86254675D01*
X175841479Y-86254675D02*
X175746241Y-86254675D01*
X175412907Y-86254675D02*
X175412907Y-85254675D01*
X174984336Y-86254675D02*
X174984336Y-85730865D01*
X174984336Y-85730865D02*
X175031955Y-85635627D01*
X175031955Y-85635627D02*
X175127193Y-85588008D01*
X175127193Y-85588008D02*
X175270050Y-85588008D01*
X175270050Y-85588008D02*
X175365288Y-85635627D01*
X175365288Y-85635627D02*
X175412907Y-85683246D01*
X174508145Y-86254675D02*
X174508145Y-85588008D01*
X174508145Y-85254675D02*
X174555764Y-85302294D01*
X174555764Y-85302294D02*
X174508145Y-85349913D01*
X174508145Y-85349913D02*
X174460526Y-85302294D01*
X174460526Y-85302294D02*
X174508145Y-85254675D01*
X174508145Y-85254675D02*
X174508145Y-85349913D01*
X173651003Y-86207056D02*
X173746241Y-86254675D01*
X173746241Y-86254675D02*
X173936717Y-86254675D01*
X173936717Y-86254675D02*
X174031955Y-86207056D01*
X174031955Y-86207056D02*
X174079574Y-86111817D01*
X174079574Y-86111817D02*
X174079574Y-85730865D01*
X174079574Y-85730865D02*
X174031955Y-85635627D01*
X174031955Y-85635627D02*
X173936717Y-85588008D01*
X173936717Y-85588008D02*
X173746241Y-85588008D01*
X173746241Y-85588008D02*
X173651003Y-85635627D01*
X173651003Y-85635627D02*
X173603384Y-85730865D01*
X173603384Y-85730865D02*
X173603384Y-85826103D01*
X173603384Y-85826103D02*
X174079574Y-85921341D01*
X172746241Y-85588008D02*
X172746241Y-86254675D01*
X173174812Y-85588008D02*
X173174812Y-86111817D01*
X173174812Y-86111817D02*
X173127193Y-86207056D01*
X173127193Y-86207056D02*
X173031955Y-86254675D01*
X173031955Y-86254675D02*
X172889098Y-86254675D01*
X172889098Y-86254675D02*
X172793860Y-86207056D01*
X172793860Y-86207056D02*
X172746241Y-86159436D01*
X178222431Y-87197952D02*
X178222431Y-88197952D01*
X178222431Y-87245571D02*
X178127193Y-87197952D01*
X178127193Y-87197952D02*
X177936717Y-87197952D01*
X177936717Y-87197952D02*
X177841479Y-87245571D01*
X177841479Y-87245571D02*
X177793860Y-87293190D01*
X177793860Y-87293190D02*
X177746241Y-87388428D01*
X177746241Y-87388428D02*
X177746241Y-87674142D01*
X177746241Y-87674142D02*
X177793860Y-87769380D01*
X177793860Y-87769380D02*
X177841479Y-87817000D01*
X177841479Y-87817000D02*
X177936717Y-87864619D01*
X177936717Y-87864619D02*
X178127193Y-87864619D01*
X178127193Y-87864619D02*
X178222431Y-87817000D01*
X177174812Y-87864619D02*
X177270050Y-87817000D01*
X177270050Y-87817000D02*
X177317669Y-87769380D01*
X177317669Y-87769380D02*
X177365288Y-87674142D01*
X177365288Y-87674142D02*
X177365288Y-87388428D01*
X177365288Y-87388428D02*
X177317669Y-87293190D01*
X177317669Y-87293190D02*
X177270050Y-87245571D01*
X177270050Y-87245571D02*
X177174812Y-87197952D01*
X177174812Y-87197952D02*
X177031955Y-87197952D01*
X177031955Y-87197952D02*
X176936717Y-87245571D01*
X176936717Y-87245571D02*
X176889098Y-87293190D01*
X176889098Y-87293190D02*
X176841479Y-87388428D01*
X176841479Y-87388428D02*
X176841479Y-87674142D01*
X176841479Y-87674142D02*
X176889098Y-87769380D01*
X176889098Y-87769380D02*
X176936717Y-87817000D01*
X176936717Y-87817000D02*
X177031955Y-87864619D01*
X177031955Y-87864619D02*
X177174812Y-87864619D01*
X176412907Y-87864619D02*
X176412907Y-87197952D01*
X176412907Y-87293190D02*
X176365288Y-87245571D01*
X176365288Y-87245571D02*
X176270050Y-87197952D01*
X176270050Y-87197952D02*
X176127193Y-87197952D01*
X176127193Y-87197952D02*
X176031955Y-87245571D01*
X176031955Y-87245571D02*
X175984336Y-87340809D01*
X175984336Y-87340809D02*
X175984336Y-87864619D01*
X175984336Y-87340809D02*
X175936717Y-87245571D01*
X175936717Y-87245571D02*
X175841479Y-87197952D01*
X175841479Y-87197952D02*
X175698622Y-87197952D01*
X175698622Y-87197952D02*
X175603383Y-87245571D01*
X175603383Y-87245571D02*
X175555764Y-87340809D01*
X175555764Y-87340809D02*
X175555764Y-87864619D01*
X175079574Y-87864619D02*
X175079574Y-87197952D01*
X175079574Y-87293190D02*
X175031955Y-87245571D01*
X175031955Y-87245571D02*
X174936717Y-87197952D01*
X174936717Y-87197952D02*
X174793860Y-87197952D01*
X174793860Y-87197952D02*
X174698622Y-87245571D01*
X174698622Y-87245571D02*
X174651003Y-87340809D01*
X174651003Y-87340809D02*
X174651003Y-87864619D01*
X174651003Y-87340809D02*
X174603384Y-87245571D01*
X174603384Y-87245571D02*
X174508146Y-87197952D01*
X174508146Y-87197952D02*
X174365289Y-87197952D01*
X174365289Y-87197952D02*
X174270050Y-87245571D01*
X174270050Y-87245571D02*
X174222431Y-87340809D01*
X174222431Y-87340809D02*
X174222431Y-87864619D01*
X173365289Y-87817000D02*
X173460527Y-87864619D01*
X173460527Y-87864619D02*
X173651003Y-87864619D01*
X173651003Y-87864619D02*
X173746241Y-87817000D01*
X173746241Y-87817000D02*
X173793860Y-87721761D01*
X173793860Y-87721761D02*
X173793860Y-87340809D01*
X173793860Y-87340809D02*
X173746241Y-87245571D01*
X173746241Y-87245571D02*
X173651003Y-87197952D01*
X173651003Y-87197952D02*
X173460527Y-87197952D01*
X173460527Y-87197952D02*
X173365289Y-87245571D01*
X173365289Y-87245571D02*
X173317670Y-87340809D01*
X173317670Y-87340809D02*
X173317670Y-87436047D01*
X173317670Y-87436047D02*
X173793860Y-87531285D01*
X172889098Y-87864619D02*
X172889098Y-87197952D01*
X172889098Y-87388428D02*
X172841479Y-87293190D01*
X172841479Y-87293190D02*
X172793860Y-87245571D01*
X172793860Y-87245571D02*
X172698622Y-87197952D01*
X172698622Y-87197952D02*
X172603384Y-87197952D01*
X172365288Y-87197952D02*
X172127193Y-87864619D01*
X171889098Y-87197952D02*
X172127193Y-87864619D01*
X172127193Y-87864619D02*
X172222431Y-88102714D01*
X172222431Y-88102714D02*
X172270050Y-88150333D01*
X172270050Y-88150333D02*
X172365288Y-88197952D01*
X162741479Y-69017000D02*
X162836717Y-69064619D01*
X162836717Y-69064619D02*
X163027193Y-69064619D01*
X163027193Y-69064619D02*
X163122431Y-69017000D01*
X163122431Y-69017000D02*
X163170050Y-68921761D01*
X163170050Y-68921761D02*
X163170050Y-68540809D01*
X163170050Y-68540809D02*
X163122431Y-68445571D01*
X163122431Y-68445571D02*
X163027193Y-68397952D01*
X163027193Y-68397952D02*
X162836717Y-68397952D01*
X162836717Y-68397952D02*
X162741479Y-68445571D01*
X162741479Y-68445571D02*
X162693860Y-68540809D01*
X162693860Y-68540809D02*
X162693860Y-68636047D01*
X162693860Y-68636047D02*
X163170050Y-68731285D01*
X162360526Y-69064619D02*
X161836717Y-68397952D01*
X162360526Y-68397952D02*
X161836717Y-69064619D01*
X161598621Y-68397952D02*
X161217669Y-68397952D01*
X161455764Y-68064619D02*
X161455764Y-68921761D01*
X161455764Y-68921761D02*
X161408145Y-69017000D01*
X161408145Y-69017000D02*
X161312907Y-69064619D01*
X161312907Y-69064619D02*
X161217669Y-69064619D01*
X160503383Y-69017000D02*
X160598621Y-69064619D01*
X160598621Y-69064619D02*
X160789097Y-69064619D01*
X160789097Y-69064619D02*
X160884335Y-69017000D01*
X160884335Y-69017000D02*
X160931954Y-68921761D01*
X160931954Y-68921761D02*
X160931954Y-68540809D01*
X160931954Y-68540809D02*
X160884335Y-68445571D01*
X160884335Y-68445571D02*
X160789097Y-68397952D01*
X160789097Y-68397952D02*
X160598621Y-68397952D01*
X160598621Y-68397952D02*
X160503383Y-68445571D01*
X160503383Y-68445571D02*
X160455764Y-68540809D01*
X160455764Y-68540809D02*
X160455764Y-68636047D01*
X160455764Y-68636047D02*
X160931954Y-68731285D01*
X160027192Y-68397952D02*
X160027192Y-69064619D01*
X160027192Y-68493190D02*
X159979573Y-68445571D01*
X159979573Y-68445571D02*
X159884335Y-68397952D01*
X159884335Y-68397952D02*
X159741478Y-68397952D01*
X159741478Y-68397952D02*
X159646240Y-68445571D01*
X159646240Y-68445571D02*
X159598621Y-68540809D01*
X159598621Y-68540809D02*
X159598621Y-69064619D01*
X159170049Y-69017000D02*
X159074811Y-69064619D01*
X159074811Y-69064619D02*
X158884335Y-69064619D01*
X158884335Y-69064619D02*
X158789097Y-69017000D01*
X158789097Y-69017000D02*
X158741478Y-68921761D01*
X158741478Y-68921761D02*
X158741478Y-68874142D01*
X158741478Y-68874142D02*
X158789097Y-68778904D01*
X158789097Y-68778904D02*
X158884335Y-68731285D01*
X158884335Y-68731285D02*
X159027192Y-68731285D01*
X159027192Y-68731285D02*
X159122430Y-68683666D01*
X159122430Y-68683666D02*
X159170049Y-68588428D01*
X159170049Y-68588428D02*
X159170049Y-68540809D01*
X159170049Y-68540809D02*
X159122430Y-68445571D01*
X159122430Y-68445571D02*
X159027192Y-68397952D01*
X159027192Y-68397952D02*
X158884335Y-68397952D01*
X158884335Y-68397952D02*
X158789097Y-68445571D01*
X158312906Y-69064619D02*
X158312906Y-68397952D01*
X158312906Y-68064619D02*
X158360525Y-68112238D01*
X158360525Y-68112238D02*
X158312906Y-68159857D01*
X158312906Y-68159857D02*
X158265287Y-68112238D01*
X158265287Y-68112238D02*
X158312906Y-68064619D01*
X158312906Y-68064619D02*
X158312906Y-68159857D01*
X157693859Y-69064619D02*
X157789097Y-69017000D01*
X157789097Y-69017000D02*
X157836716Y-68969380D01*
X157836716Y-68969380D02*
X157884335Y-68874142D01*
X157884335Y-68874142D02*
X157884335Y-68588428D01*
X157884335Y-68588428D02*
X157836716Y-68493190D01*
X157836716Y-68493190D02*
X157789097Y-68445571D01*
X157789097Y-68445571D02*
X157693859Y-68397952D01*
X157693859Y-68397952D02*
X157551002Y-68397952D01*
X157551002Y-68397952D02*
X157455764Y-68445571D01*
X157455764Y-68445571D02*
X157408145Y-68493190D01*
X157408145Y-68493190D02*
X157360526Y-68588428D01*
X157360526Y-68588428D02*
X157360526Y-68874142D01*
X157360526Y-68874142D02*
X157408145Y-68969380D01*
X157408145Y-68969380D02*
X157455764Y-69017000D01*
X157455764Y-69017000D02*
X157551002Y-69064619D01*
X157551002Y-69064619D02*
X157693859Y-69064619D01*
X156931954Y-68397952D02*
X156931954Y-69064619D01*
X156931954Y-68493190D02*
X156884335Y-68445571D01*
X156884335Y-68445571D02*
X156789097Y-68397952D01*
X156789097Y-68397952D02*
X156646240Y-68397952D01*
X156646240Y-68397952D02*
X156551002Y-68445571D01*
X156551002Y-68445571D02*
X156503383Y-68540809D01*
X156503383Y-68540809D02*
X156503383Y-69064619D01*
X162538860Y-83097952D02*
X162538860Y-83764619D01*
X162967431Y-83097952D02*
X162967431Y-83621761D01*
X162967431Y-83621761D02*
X162919812Y-83717000D01*
X162919812Y-83717000D02*
X162824574Y-83764619D01*
X162824574Y-83764619D02*
X162681717Y-83764619D01*
X162681717Y-83764619D02*
X162586479Y-83717000D01*
X162586479Y-83717000D02*
X162538860Y-83669380D01*
X162110288Y-83717000D02*
X162015050Y-83764619D01*
X162015050Y-83764619D02*
X161824574Y-83764619D01*
X161824574Y-83764619D02*
X161729336Y-83717000D01*
X161729336Y-83717000D02*
X161681717Y-83621761D01*
X161681717Y-83621761D02*
X161681717Y-83574142D01*
X161681717Y-83574142D02*
X161729336Y-83478904D01*
X161729336Y-83478904D02*
X161824574Y-83431285D01*
X161824574Y-83431285D02*
X161967431Y-83431285D01*
X161967431Y-83431285D02*
X162062669Y-83383666D01*
X162062669Y-83383666D02*
X162110288Y-83288428D01*
X162110288Y-83288428D02*
X162110288Y-83240809D01*
X162110288Y-83240809D02*
X162062669Y-83145571D01*
X162062669Y-83145571D02*
X161967431Y-83097952D01*
X161967431Y-83097952D02*
X161824574Y-83097952D01*
X161824574Y-83097952D02*
X161729336Y-83145571D01*
X161253145Y-83764619D02*
X161253145Y-82764619D01*
X161253145Y-83145571D02*
X161157907Y-83097952D01*
X161157907Y-83097952D02*
X160967431Y-83097952D01*
X160967431Y-83097952D02*
X160872193Y-83145571D01*
X160872193Y-83145571D02*
X160824574Y-83193190D01*
X160824574Y-83193190D02*
X160776955Y-83288428D01*
X160776955Y-83288428D02*
X160776955Y-83574142D01*
X160776955Y-83574142D02*
X160824574Y-83669380D01*
X160824574Y-83669380D02*
X160872193Y-83717000D01*
X160872193Y-83717000D02*
X160967431Y-83764619D01*
X160967431Y-83764619D02*
X161157907Y-83764619D01*
X161157907Y-83764619D02*
X161253145Y-83717000D01*
D11*
X156595018Y-79209887D02*
X157502161Y-79209887D01*
X157502161Y-79209887D02*
X157683589Y-79149410D01*
X157683589Y-79149410D02*
X157804542Y-79028458D01*
X157804542Y-79028458D02*
X157865018Y-78847029D01*
X157865018Y-78847029D02*
X157865018Y-78726077D01*
X156595018Y-79693696D02*
X156595018Y-80479887D01*
X156595018Y-80479887D02*
X157078827Y-80056553D01*
X157078827Y-80056553D02*
X157078827Y-80237982D01*
X157078827Y-80237982D02*
X157139303Y-80358934D01*
X157139303Y-80358934D02*
X157199780Y-80419410D01*
X157199780Y-80419410D02*
X157320732Y-80479887D01*
X157320732Y-80479887D02*
X157623113Y-80479887D01*
X157623113Y-80479887D02*
X157744065Y-80419410D01*
X157744065Y-80419410D02*
X157804542Y-80358934D01*
X157804542Y-80358934D02*
X157865018Y-80237982D01*
X157865018Y-80237982D02*
X157865018Y-79875125D01*
X157865018Y-79875125D02*
X157804542Y-79754172D01*
X157804542Y-79754172D02*
X157744065Y-79693696D01*
D12*
%TO.C,J3*%
X155875000Y-82200000D02*
X155875000Y-76400000D01*
X160125000Y-83425000D02*
X158725000Y-83425000D01*
X160125000Y-75175000D02*
X158725000Y-75175000D01*
X160125000Y-83425000D02*
X160125000Y-81800000D01*
X160125000Y-75175000D02*
X160125000Y-76800000D01*
D13*
%TO.C,C2*%
X158107836Y-73990000D02*
X157892164Y-73990000D01*
X158107836Y-74710000D02*
X157892164Y-74710000D01*
D10*
%TO.C,IC5*%
X157075000Y-70475000D02*
G75*
G02*
X156825000Y-70475000I-125000J0D01*
G01*
X156825000Y-70475000D02*
G75*
G02*
X157075000Y-70475000I125000J0D01*
G01*
D13*
%TO.C,C62*%
X171290000Y-85751665D02*
X171290000Y-85983335D01*
X172010000Y-85751665D02*
X172010000Y-85983335D01*
%TO.C,C45*%
X176067164Y-67590000D02*
X176282836Y-67590000D01*
X176067164Y-68310000D02*
X176282836Y-68310000D01*
D14*
%TO.C,SW1*%
X161625000Y-86550000D02*
X161625000Y-86550000D01*
X161725000Y-86550000D02*
X161725000Y-86550000D01*
D12*
X162500000Y-85450000D02*
X165725000Y-85450000D01*
X162525000Y-87650000D02*
X165725000Y-87650000D01*
D14*
X161625000Y-86550000D02*
G75*
G02*
X161725000Y-86550000I50000J0D01*
G01*
X161725000Y-86550000D02*
G75*
G02*
X161625000Y-86550000I-50000J0D01*
G01*
D13*
%TO.C,SW2*%
X161300000Y-71450000D02*
X161300000Y-80650000D01*
X161300000Y-80650000D02*
X162900000Y-82250000D01*
X162900000Y-69850000D02*
X161300000Y-71450000D01*
X164050000Y-69850000D02*
X162900000Y-69850000D01*
X164050000Y-82250000D02*
X162900000Y-82250000D01*
X165950000Y-69850000D02*
X169050000Y-69850000D01*
X165950000Y-82250000D02*
X169050000Y-82250000D01*
X170950000Y-69850000D02*
X172100000Y-69850000D01*
X170950000Y-82250000D02*
X172100000Y-82250000D01*
X172100000Y-69850000D02*
X173700000Y-71450000D01*
X173700000Y-71450000D02*
X173700000Y-80650000D01*
X173700000Y-80650000D02*
X172100000Y-82250000D01*
%TD*%
M02*
