%TF.GenerationSoftware,KiCad,Pcbnew,9.0.6-rc1*%
%TF.CreationDate,2025-12-21T23:59:12+01:00*%
%TF.ProjectId,PCB_PAPI,5043425f-5041-4504-992e-6b696361645f,rev?*%
%TF.SameCoordinates,Original*%
%TF.FileFunction,Copper,L4,Bot*%
%TF.FilePolarity,Positive*%
%FSLAX46Y46*%
G04 Gerber Fmt 4.6, Leading zero omitted, Abs format (unit mm)*
G04 Created by KiCad (PCBNEW 9.0.6-rc1) date 2025-12-21 23:59:12*
%MOMM*%
%LPD*%
G01*
G04 APERTURE LIST*
G04 Aperture macros list*
%AMRoundRect*
0 Rectangle with rounded corners*
0 $1 Rounding radius*
0 $2 $3 $4 $5 $6 $7 $8 $9 X,Y pos of 4 corners*
0 Add a 4 corners polygon primitive as box body*
4,1,4,$2,$3,$4,$5,$6,$7,$8,$9,$2,$3,0*
0 Add four circle primitives for the rounded corners*
1,1,$1+$1,$2,$3*
1,1,$1+$1,$4,$5*
1,1,$1+$1,$6,$7*
1,1,$1+$1,$8,$9*
0 Add four rect primitives between the rounded corners*
20,1,$1+$1,$2,$3,$4,$5,0*
20,1,$1+$1,$4,$5,$6,$7,0*
20,1,$1+$1,$6,$7,$8,$9,0*
20,1,$1+$1,$8,$9,$2,$3,0*%
G04 Aperture macros list end*
%TA.AperFunction,SMDPad,CuDef*%
%ADD10R,1.700000X0.600000*%
%TD*%
%TA.AperFunction,SMDPad,CuDef*%
%ADD11R,2.700000X1.000000*%
%TD*%
%TA.AperFunction,SMDPad,CuDef*%
%ADD12R,0.600000X1.700000*%
%TD*%
%TA.AperFunction,SMDPad,CuDef*%
%ADD13R,1.000000X2.700000*%
%TD*%
%TA.AperFunction,ComponentPad*%
%ADD14C,0.700000*%
%TD*%
%TA.AperFunction,ComponentPad*%
%ADD15C,4.400000*%
%TD*%
%TA.AperFunction,SMDPad,CuDef*%
%ADD16RoundRect,0.140000X0.140000X0.170000X-0.140000X0.170000X-0.140000X-0.170000X0.140000X-0.170000X0*%
%TD*%
%TA.AperFunction,SMDPad,CuDef*%
%ADD17RoundRect,0.100000X0.100000X-0.130000X0.100000X0.130000X-0.100000X0.130000X-0.100000X-0.130000X0*%
%TD*%
%TA.AperFunction,SMDPad,CuDef*%
%ADD18R,0.300000X0.850000*%
%TD*%
%TA.AperFunction,SMDPad,CuDef*%
%ADD19R,1.420000X0.610000*%
%TD*%
%TA.AperFunction,SMDPad,CuDef*%
%ADD20RoundRect,0.100000X-0.100000X0.130000X-0.100000X-0.130000X0.100000X-0.130000X0.100000X0.130000X0*%
%TD*%
%TA.AperFunction,SMDPad,CuDef*%
%ADD21RoundRect,0.155000X-0.155000X0.212500X-0.155000X-0.212500X0.155000X-0.212500X0.155000X0.212500X0*%
%TD*%
%TA.AperFunction,SMDPad,CuDef*%
%ADD22RoundRect,0.140000X-0.140000X-0.170000X0.140000X-0.170000X0.140000X0.170000X-0.140000X0.170000X0*%
%TD*%
%TA.AperFunction,SMDPad,CuDef*%
%ADD23RoundRect,0.100000X-0.100000X0.217500X-0.100000X-0.217500X0.100000X-0.217500X0.100000X0.217500X0*%
%TD*%
%TA.AperFunction,SMDPad,CuDef*%
%ADD24RoundRect,0.100000X-0.130000X-0.100000X0.130000X-0.100000X0.130000X0.100000X-0.130000X0.100000X0*%
%TD*%
%TA.AperFunction,SMDPad,CuDef*%
%ADD25RoundRect,0.100000X0.100000X-0.217500X0.100000X0.217500X-0.100000X0.217500X-0.100000X-0.217500X0*%
%TD*%
%TA.AperFunction,SMDPad,CuDef*%
%ADD26RoundRect,0.100000X0.217500X0.100000X-0.217500X0.100000X-0.217500X-0.100000X0.217500X-0.100000X0*%
%TD*%
%TA.AperFunction,SMDPad,CuDef*%
%ADD27R,0.550000X1.500000*%
%TD*%
%TA.AperFunction,SMDPad,CuDef*%
%ADD28RoundRect,0.250000X-0.500000X0.750000X-0.500000X-0.750000X0.500000X-0.750000X0.500000X0.750000X0*%
%TD*%
%TA.AperFunction,ViaPad*%
%ADD29C,0.400000*%
%TD*%
%TA.AperFunction,Conductor*%
%ADD30C,0.120000*%
%TD*%
%TA.AperFunction,Conductor*%
%ADD31C,0.300000*%
%TD*%
%TA.AperFunction,Conductor*%
%ADD32C,0.200000*%
%TD*%
G04 APERTURE END LIST*
D10*
%TO.P,J3,1,1*%
%TO.N,GND*%
X160325000Y-81175000D03*
%TO.P,J3,2,2*%
%TO.N,/D-*%
X160325000Y-79925000D03*
%TO.P,J3,3,3*%
%TO.N,/D+*%
X160325000Y-78675000D03*
%TO.P,J3,4,4*%
%TO.N,VUSB*%
X160325000Y-77425000D03*
D11*
%TO.P,J3,5,5*%
%TO.N,GND*%
X157125000Y-83025000D03*
%TO.P,J3,6,6*%
X157125000Y-75575000D03*
%TD*%
D12*
%TO.P,J1,1,1*%
%TO.N,VUSB*%
X158475000Y-66650000D03*
%TO.P,J1,2,2*%
%TO.N,LDO_IN*%
X159725000Y-66650000D03*
%TO.P,J1,3,3*%
%TO.N,BAT+*%
X160975000Y-66650000D03*
%TO.P,J1,4,4*%
%TO.N,+3.3V*%
X162225000Y-66650000D03*
%TO.P,J1,5,5*%
%TO.N,/LED_TIM*%
X163475000Y-66650000D03*
%TO.P,J1,6,6*%
%TO.N,GND*%
X164725000Y-66650000D03*
%TO.P,J1,7,7*%
%TO.N,/HP+*%
X165975000Y-66650000D03*
%TO.P,J1,8,8*%
%TO.N,/HP-*%
X167225000Y-66650000D03*
D13*
%TO.P,J1,MP1,MP1*%
%TO.N,GND*%
X156625000Y-63450000D03*
%TO.P,J1,MP2,MP2*%
X169075000Y-63450000D03*
%TD*%
D14*
%TO.P,H2,1,1*%
%TO.N,GND*%
X156650000Y-86125000D03*
X157133274Y-84958274D03*
X157133274Y-87291726D03*
X158300000Y-84475000D03*
D15*
X158300000Y-86125000D03*
D14*
X158300000Y-87775000D03*
X159466726Y-84958274D03*
X159466726Y-87291726D03*
X159950000Y-86125000D03*
%TD*%
%TO.P,H1,1,1*%
%TO.N,GND*%
X174675000Y-64650000D03*
X175158274Y-63483274D03*
X175158274Y-65816726D03*
X176325000Y-63000000D03*
D15*
X176325000Y-64650000D03*
D14*
X176325000Y-66300000D03*
X177491726Y-63483274D03*
X177491726Y-65816726D03*
X177975000Y-64650000D03*
%TD*%
D16*
%TO.P,C2,1*%
%TO.N,VUSB*%
X158480000Y-74350000D03*
%TO.P,C2,2*%
%TO.N,GND*%
X157520000Y-74350000D03*
%TD*%
D17*
%TO.P,R30,1*%
%TO.N,/max_gpio*%
X178425000Y-69570000D03*
%TO.P,R30,2*%
%TO.N,Net-(IC6-~{SD_MODE})*%
X178425000Y-68930000D03*
%TD*%
D18*
%TO.P,IC5,1,GND*%
%TO.N,GND*%
X157600000Y-70900000D03*
%TO.P,IC5,2,~{CHRG}*%
%TO.N,Net-(IC5-~{CHRG})*%
X158100000Y-70900000D03*
%TO.P,IC5,3,BAT*%
%TO.N,BAT+*%
X158600000Y-70900000D03*
%TO.P,IC5,4,VCC*%
%TO.N,VUSB*%
X158600000Y-72800000D03*
%TO.P,IC5,5,~{EN}*%
%TO.N,GND*%
X158100000Y-72800000D03*
%TO.P,IC5,6,PROG*%
%TO.N,Net-(IC5-PROG)*%
X157600000Y-72800000D03*
D19*
%TO.P,IC5,7,EP*%
%TO.N,GND*%
X158100000Y-71850000D03*
%TD*%
D20*
%TO.P,R31,1*%
%TO.N,GND*%
X178415000Y-67505000D03*
%TO.P,R31,2*%
%TO.N,Net-(IC6-GAIN_SLOT)*%
X178415000Y-68145000D03*
%TD*%
D21*
%TO.P,C62,1*%
%TO.N,+3.3V*%
X171650000Y-85300000D03*
%TO.P,C62,2*%
%TO.N,GND*%
X171650000Y-86435000D03*
%TD*%
D22*
%TO.P,C45,1*%
%TO.N,+3.3V*%
X175695000Y-67950000D03*
%TO.P,C45,2*%
%TO.N,GND*%
X176655000Y-67950000D03*
%TD*%
D23*
%TO.P,C65,1*%
%TO.N,+3.3V*%
X170800000Y-85292500D03*
%TO.P,C65,2*%
%TO.N,GND*%
X170800000Y-86107500D03*
%TD*%
D24*
%TO.P,C44,1*%
%TO.N,+3.3V*%
X175680000Y-68775000D03*
%TO.P,C44,2*%
%TO.N,GND*%
X176320000Y-68775000D03*
%TD*%
D25*
%TO.P,C30,1*%
%TO.N,GND*%
X178500000Y-76175000D03*
%TO.P,C30,2*%
%TO.N,+3.3V*%
X178500000Y-75360000D03*
%TD*%
D26*
%TO.P,R36,1*%
%TO.N,+3.3V*%
X175450000Y-80950000D03*
%TO.P,R36,2*%
%TO.N,RESET*%
X174635000Y-80950000D03*
%TD*%
%TO.P,R15,1*%
%TO.N,+3.3V*%
X175450000Y-80225000D03*
%TO.P,R15,2*%
%TO.N,Net-(U5-GPIO3)*%
X174635000Y-80225000D03*
%TD*%
D27*
%TO.P,SW1,1,1*%
%TO.N,GND*%
X162500000Y-86550000D03*
%TO.P,SW1,2,2*%
%TO.N,Net-(U5-GPIO0)*%
X165750000Y-86550000D03*
%TD*%
D25*
%TO.P,R17,1*%
%TO.N,Net-(IC5-PROG)*%
X156100000Y-72957500D03*
%TO.P,R17,2*%
%TO.N,GND*%
X156100000Y-72142500D03*
%TD*%
D26*
%TO.P,C71,1*%
%TO.N,GND*%
X175450000Y-81650000D03*
%TO.P,C71,2*%
%TO.N,RESET*%
X174635000Y-81650000D03*
%TD*%
D28*
%TO.P,SW2,1,1*%
%TO.N,+3.3V*%
X165000000Y-68900000D03*
X165000000Y-83200000D03*
%TO.P,SW2,2,2*%
%TO.N,/MAIN_BTN*%
X170000000Y-68900000D03*
X170000000Y-83200000D03*
%TD*%
D17*
%TO.P,R32,1*%
%TO.N,Net-(IC6-GAIN_SLOT)*%
X177675000Y-68150000D03*
%TO.P,R32,2*%
%TO.N,+3.3V*%
X177675000Y-67510000D03*
%TD*%
D29*
%TO.N,+3.3V*%
X178150000Y-78125000D03*
%TO.N,GND*%
X163150000Y-76950000D03*
X162075000Y-70825000D03*
X162100000Y-68150000D03*
X163400000Y-72075000D03*
X168225000Y-66750000D03*
X171325000Y-82650000D03*
X160375000Y-73475000D03*
X161800000Y-76750000D03*
X178415000Y-67505000D03*
X164450000Y-75425000D03*
X165650000Y-75050000D03*
X170800000Y-86107500D03*
X173650000Y-87075000D03*
X173675000Y-85325000D03*
X173875000Y-79650000D03*
X176575000Y-76750000D03*
X177425000Y-76650000D03*
X176925000Y-76025000D03*
X175900000Y-73500000D03*
X173575000Y-69975000D03*
X161900000Y-73247000D03*
X160375000Y-69125000D03*
X158950000Y-79500000D03*
X159000000Y-78025000D03*
X157825000Y-77175000D03*
X157625000Y-81000000D03*
X162225000Y-82475000D03*
X162700000Y-79600000D03*
X160325000Y-81175000D03*
X160775000Y-83600000D03*
X162500000Y-86550000D03*
X164150000Y-87075000D03*
X171650000Y-87375000D03*
X169050000Y-87000000D03*
X167950000Y-86250000D03*
X164375000Y-85775000D03*
X171450000Y-73800000D03*
X169425000Y-73925000D03*
X168250000Y-71900000D03*
X168300000Y-74325000D03*
X167120000Y-81980000D03*
X168620000Y-80480000D03*
X167120000Y-80480000D03*
X165620000Y-80480000D03*
X168620000Y-78980000D03*
X167120000Y-78980000D03*
X165620000Y-78980000D03*
X168620000Y-81980000D03*
X171175000Y-77275000D03*
X171100000Y-76375000D03*
X172800000Y-75225000D03*
X177200000Y-72775000D03*
X174700000Y-68300000D03*
X176175000Y-69650000D03*
X174600000Y-71050000D03*
X171575000Y-70275000D03*
X171050000Y-71900000D03*
X172375000Y-72492000D03*
X172600000Y-73742000D03*
X171675000Y-74717000D03*
X161075000Y-68275000D03*
X160350000Y-70650000D03*
X159750000Y-68625000D03*
X156850000Y-68075000D03*
X158350000Y-63100000D03*
X161750000Y-64025000D03*
X160000000Y-63400000D03*
X166725000Y-64150000D03*
X166750000Y-63175000D03*
X172325000Y-63900000D03*
X173025000Y-63200000D03*
X172325000Y-63200000D03*
X168725000Y-63900000D03*
X169425000Y-63200000D03*
X168725000Y-63200000D03*
X169425000Y-63900000D03*
X173025000Y-63900000D03*
X178575000Y-66561000D03*
X178575000Y-71731000D03*
X178575000Y-72765000D03*
X178575000Y-73799000D03*
X178575000Y-78969000D03*
X178575000Y-80003000D03*
X178575000Y-81037000D03*
X178575000Y-82071000D03*
X178575000Y-83105000D03*
X178575000Y-84139000D03*
X178575000Y-85173000D03*
X178575000Y-86207000D03*
X178575000Y-87241000D03*
X178575000Y-88275000D03*
X156000000Y-63459000D03*
X156000000Y-64493000D03*
X156000000Y-65527000D03*
X156000000Y-66561000D03*
X156000000Y-67595000D03*
X156000000Y-68629000D03*
X156000000Y-70697000D03*
X156000000Y-71731000D03*
X156000000Y-73799000D03*
X156000000Y-74833000D03*
X156000000Y-75867000D03*
X156000000Y-76901000D03*
X156000000Y-77935000D03*
X156000000Y-78969000D03*
X156000000Y-80003000D03*
X156000000Y-81037000D03*
X156000000Y-82071000D03*
X156000000Y-83105000D03*
X156000000Y-84139000D03*
X156000000Y-88275000D03*
X156000000Y-62425000D03*
X174275000Y-62425000D03*
X173200000Y-62425000D03*
X172125000Y-62425000D03*
X171050000Y-62425000D03*
X169975000Y-62425000D03*
X168900000Y-62425000D03*
X165675000Y-62425000D03*
X164600000Y-62425000D03*
X163525000Y-62425000D03*
X162450000Y-62425000D03*
X161375000Y-62425000D03*
X160300000Y-62425000D03*
X159225000Y-62425000D03*
X158150000Y-62425000D03*
X157075000Y-62425000D03*
X178575000Y-62425000D03*
X177500000Y-88275000D03*
X176425000Y-88275000D03*
X175350000Y-88275000D03*
X174275000Y-88275000D03*
X173200000Y-88275000D03*
X172125000Y-88275000D03*
X171050000Y-88275000D03*
X169975000Y-88275000D03*
X168900000Y-88275000D03*
X167825000Y-88275000D03*
X166750000Y-88275000D03*
X165675000Y-88275000D03*
X164600000Y-88275000D03*
X163525000Y-88275000D03*
X162450000Y-88275000D03*
X161375000Y-88275000D03*
X160300000Y-88275000D03*
%TO.N,Net-(U5-GPIO17)*%
X159725000Y-64310000D03*
X166375000Y-76225000D03*
%TO.N,GND*%
X165050000Y-72825000D03*
X164300000Y-72000000D03*
%TO.N,/LED_TIM*%
X165025000Y-73700000D03*
%TO.N,LDO_IN*%
X159725000Y-66275000D03*
X159725000Y-66975000D03*
%TO.N,GND*%
X158450000Y-71850000D03*
X177300000Y-84030000D03*
X173400000Y-84030000D03*
X175225000Y-86200000D03*
X172750000Y-84030000D03*
X174050000Y-84030000D03*
X175320000Y-85370000D03*
X164725000Y-66275000D03*
X164725000Y-66975000D03*
X178050000Y-85380000D03*
X178040000Y-84570000D03*
X172970000Y-82260000D03*
X174370000Y-82260000D03*
X175225000Y-86900000D03*
X157750000Y-71850000D03*
X175225000Y-87600000D03*
X173670000Y-82260000D03*
X165250000Y-70767000D03*
X175660000Y-81930000D03*
X171160000Y-83540000D03*
X175350000Y-84030000D03*
X175070000Y-82260000D03*
X168825000Y-74875000D03*
X175340000Y-84650000D03*
X174700000Y-84030000D03*
X177220000Y-83350000D03*
X176000000Y-84030000D03*
X171925000Y-84525000D03*
%TO.N,+3.3V*%
X175375000Y-67475000D03*
X176025000Y-67325000D03*
X159800000Y-74875000D03*
X178500000Y-75360000D03*
X164650000Y-68550000D03*
X165350000Y-68550000D03*
X166975000Y-76200000D03*
X177575000Y-77900000D03*
X160500000Y-74875000D03*
X159800000Y-74175000D03*
X166607500Y-75625000D03*
X171542500Y-85150000D03*
X167450000Y-70767000D03*
X167150000Y-68575000D03*
X178050000Y-77500000D03*
X170800000Y-85125000D03*
X165550000Y-84850000D03*
X164900000Y-85050000D03*
X174325000Y-78657500D03*
X164650000Y-69250000D03*
X168550000Y-68230000D03*
X165350000Y-69250000D03*
X160500000Y-74175000D03*
X162225000Y-66625000D03*
%TO.N,/HP+*%
X173275000Y-68050000D03*
%TO.N,/HP-*%
X172725000Y-68525000D03*
%TO.N,/D+*%
X163130000Y-76350000D03*
%TO.N,/D-*%
X163135000Y-75650000D03*
%TO.N,/max_bit_clk*%
X177375000Y-71825000D03*
X171225000Y-79075000D03*
%TO.N,/max_data*%
X178025000Y-71150000D03*
X171700000Y-79500000D03*
%TO.N,/max_frame_clk*%
X175000000Y-72225000D03*
X171700000Y-78700000D03*
%TO.N,VUSB*%
X158475000Y-66225000D03*
X166592500Y-62525000D03*
%TO.N,/mic_data*%
X177975000Y-74425000D03*
X171225000Y-80680000D03*
%TO.N,/mic_frame_sck*%
X178025000Y-73525000D03*
X171225000Y-79880000D03*
%TO.N,/mic_sck*%
X176275000Y-76125000D03*
X171650000Y-81075000D03*
%TO.N,Net-(IC6-~{SD_MODE})*%
X178425000Y-68925000D03*
%TO.N,/max_gpio*%
X178425000Y-69570000D03*
X171200000Y-78275000D03*
%TO.N,Net-(IC6-GAIN_SLOT)*%
X178600000Y-70325000D03*
%TO.N,/MAIN_BTN*%
X170500000Y-76900000D03*
%TO.N,BAT+*%
X160975000Y-66275000D03*
X160975000Y-66975000D03*
%TO.N,Net-(IC5-~{CHRG})*%
X156625000Y-69550000D03*
X167450000Y-64617500D03*
%TO.N,Net-(U5-GPIO0)*%
X171225000Y-81480000D03*
X172357500Y-85150000D03*
X166175000Y-87850000D03*
%TO.N,RESET*%
X171875000Y-81675000D03*
X174635000Y-81650000D03*
%TO.N,Net-(U5-GPIO3)*%
X171675000Y-80275000D03*
X174635000Y-80225000D03*
%TD*%
D30*
%TO.N,Net-(IC5-~{CHRG})*%
X158100000Y-70125000D02*
X158100000Y-70900000D01*
X157525000Y-69550000D02*
X158100000Y-70125000D01*
X156625000Y-69550000D02*
X157525000Y-69550000D01*
%TO.N,Net-(U5-GPIO0)*%
X172000000Y-82700000D02*
X172000000Y-83150000D01*
X172357500Y-83507500D02*
X172357500Y-85150000D01*
X171225000Y-81925000D02*
X172000000Y-82700000D01*
X171225000Y-81480000D02*
X171225000Y-81925000D01*
X172000000Y-83150000D02*
X172357500Y-83507500D01*
D31*
%TO.N,+3.3V*%
X165800000Y-75950000D02*
X166125000Y-75625000D01*
X166200000Y-77850000D02*
X165800000Y-77450000D01*
X166200000Y-81025000D02*
X166200000Y-77850000D01*
X166125000Y-75625000D02*
X166607500Y-75625000D01*
X165000000Y-83200000D02*
X165000000Y-82225000D01*
X165000000Y-82225000D02*
X166200000Y-81025000D01*
X165800000Y-77450000D02*
X165800000Y-75950000D01*
D30*
%TO.N,Net-(IC6-GAIN_SLOT)*%
X178415000Y-68145000D02*
X178410000Y-68150000D01*
X178410000Y-68150000D02*
X177675000Y-68150000D01*
%TO.N,Net-(U5-GPIO0)*%
X165750000Y-87425000D02*
X165750000Y-86550000D01*
X166175000Y-87850000D02*
X165750000Y-87425000D01*
%TO.N,Net-(U5-GPIO17)*%
X159735000Y-64300000D02*
X159725000Y-64310000D01*
X160650000Y-64300000D02*
X159735000Y-64300000D01*
X161625000Y-65275000D02*
X160650000Y-64300000D01*
X161625000Y-71025000D02*
X161625000Y-65275000D01*
X167425000Y-76475000D02*
X167425000Y-75425000D01*
X167225000Y-76675000D02*
X167425000Y-76475000D01*
X166675000Y-76675000D02*
X167225000Y-76675000D01*
X164875000Y-74275000D02*
X161625000Y-71025000D01*
X166375000Y-76375000D02*
X166675000Y-76675000D01*
X167425000Y-75425000D02*
X166275000Y-74275000D01*
X166375000Y-76225000D02*
X166375000Y-76375000D01*
X166275000Y-74275000D02*
X164875000Y-74275000D01*
D31*
%TO.N,+3.3V*%
X166825000Y-75625000D02*
X166607500Y-75625000D01*
X166975000Y-75775000D02*
X166825000Y-75625000D01*
X166975000Y-76200000D02*
X166975000Y-75775000D01*
%TO.N,/HP-*%
X170100000Y-65900000D02*
X172725000Y-68525000D01*
X167225000Y-66650000D02*
X167975000Y-65900000D01*
X167975000Y-65900000D02*
X170100000Y-65900000D01*
%TO.N,/HP+*%
X166275000Y-65350000D02*
X165975000Y-65650000D01*
X173275000Y-68050000D02*
X170575000Y-65350000D01*
X170575000Y-65350000D02*
X166275000Y-65350000D01*
X165975000Y-65650000D02*
X165975000Y-66650000D01*
D30*
%TO.N,/LED_TIM*%
X163475000Y-67925000D02*
X163475000Y-66650000D01*
X163850000Y-72525000D02*
X163850000Y-68300000D01*
X165025000Y-73700000D02*
X163850000Y-72525000D01*
X163850000Y-68300000D02*
X163475000Y-67925000D01*
D32*
%TO.N,/D+*%
X163280000Y-76200000D02*
X163700000Y-76200000D01*
X163700000Y-76200000D02*
X163825000Y-76325000D01*
X163825000Y-76325000D02*
X163825000Y-77100000D01*
X161000000Y-78675000D02*
X160325000Y-78675000D01*
X161775000Y-79150000D02*
X161475000Y-79150000D01*
X163130000Y-76350000D02*
X163280000Y-76200000D01*
X161475000Y-79150000D02*
X161000000Y-78675000D01*
X163825000Y-77100000D02*
X161775000Y-79150000D01*
%TO.N,/D-*%
X161412500Y-79562500D02*
X161050000Y-79925000D01*
X161050000Y-79925000D02*
X160325000Y-79925000D01*
X164225000Y-77300000D02*
X161962500Y-79562500D01*
X164225000Y-76162500D02*
X164225000Y-77300000D01*
X161962500Y-79562500D02*
X161412500Y-79562500D01*
X163135000Y-75650000D02*
X163335000Y-75850000D01*
X163912500Y-75850000D02*
X164225000Y-76162500D01*
X163335000Y-75850000D02*
X163912500Y-75850000D01*
D31*
%TO.N,VUSB*%
X158475000Y-66650000D02*
X158475000Y-66575000D01*
D30*
%TO.N,Net-(IC6-GAIN_SLOT)*%
X178450000Y-70325000D02*
X177675000Y-69550000D01*
X177675000Y-69550000D02*
X177675000Y-68150000D01*
X178600000Y-70325000D02*
X178450000Y-70325000D01*
D31*
%TO.N,/MAIN_BTN*%
X170000000Y-76900000D02*
X170000000Y-68900000D01*
D30*
X170500000Y-76900000D02*
X170000000Y-76900000D01*
D31*
X170000000Y-83200000D02*
X170000000Y-76900000D01*
D30*
%TO.N,Net-(IC5-PROG)*%
X157442500Y-72957500D02*
X156100000Y-72957500D01*
X157600000Y-72800000D02*
X157442500Y-72957500D01*
%TO.N,RESET*%
X174635000Y-80950000D02*
X174635000Y-81650000D01*
%TD*%
%TA.AperFunction,Conductor*%
%TO.N,VUSB*%
G36*
X158743039Y-65794685D02*
G01*
X158788794Y-65847489D01*
X158800000Y-65899000D01*
X158800000Y-67075000D01*
X159924444Y-70375000D01*
X159943373Y-70430551D01*
X159950000Y-70470545D01*
X159950000Y-73331176D01*
X159930315Y-73398215D01*
X159922465Y-73409090D01*
X159468514Y-73971125D01*
X159425000Y-74025000D01*
X159425000Y-75050000D01*
X161145790Y-77090365D01*
X161173963Y-77154303D01*
X161175000Y-77170308D01*
X161175000Y-77601000D01*
X161155315Y-77668039D01*
X161102511Y-77713794D01*
X161051000Y-77725000D01*
X159566214Y-77725000D01*
X159499175Y-77705315D01*
X159453420Y-77652511D01*
X159447839Y-77637924D01*
X159247843Y-76996761D01*
X158625000Y-75000000D01*
X158250608Y-74790340D01*
X158063413Y-74685511D01*
X158014539Y-74635580D01*
X158000000Y-74577320D01*
X158000000Y-74033390D01*
X158016766Y-73971125D01*
X158343109Y-73409090D01*
X158450000Y-73225000D01*
X158450000Y-72499000D01*
X158469685Y-72431961D01*
X158522489Y-72386206D01*
X158574000Y-72375000D01*
X158749998Y-72375000D01*
X158750000Y-72375000D01*
X159150000Y-72200000D01*
X159150000Y-70375000D01*
X159150000Y-70374998D01*
X158156774Y-67494644D01*
X158150000Y-67454221D01*
X158150000Y-65899000D01*
X158169685Y-65831961D01*
X158222489Y-65786206D01*
X158274000Y-65775000D01*
X158676000Y-65775000D01*
X158743039Y-65794685D01*
G37*
%TD.AperFunction*%
%TD*%
%TA.AperFunction,Conductor*%
%TO.N,BAT+*%
G36*
X160798520Y-64869685D02*
G01*
X160836464Y-64908011D01*
X161208571Y-65500000D01*
X161330983Y-65694745D01*
X161350000Y-65760734D01*
X161350000Y-67376000D01*
X161330315Y-67443039D01*
X161277511Y-67488794D01*
X161226000Y-67500000D01*
X160700464Y-67500000D01*
X160633425Y-67480315D01*
X160587670Y-67427511D01*
X160576464Y-67376142D01*
X160576351Y-67278535D01*
X160575000Y-66100000D01*
X160225000Y-65525000D01*
X160224999Y-65524999D01*
X158174999Y-65500301D01*
X158150000Y-65500000D01*
X158149999Y-65500000D01*
X158045503Y-65592886D01*
X157925000Y-65700000D01*
X157925000Y-67475000D01*
X158767748Y-69829737D01*
X158775000Y-69871521D01*
X158775000Y-71201000D01*
X158772449Y-71209685D01*
X158773738Y-71218647D01*
X158762759Y-71242687D01*
X158755315Y-71268039D01*
X158748474Y-71273966D01*
X158744713Y-71282203D01*
X158722478Y-71296492D01*
X158702511Y-71313794D01*
X158691996Y-71316081D01*
X158685935Y-71319977D01*
X158651000Y-71325000D01*
X158574000Y-71325000D01*
X158506961Y-71305315D01*
X158461206Y-71252511D01*
X158450000Y-71201000D01*
X158450000Y-70249999D01*
X157186324Y-67499646D01*
X157175000Y-67447876D01*
X157175000Y-65592886D01*
X157194685Y-65525847D01*
X157201497Y-65516276D01*
X157214286Y-65500000D01*
X157687765Y-64897390D01*
X157744661Y-64856837D01*
X157785268Y-64850000D01*
X160731481Y-64850000D01*
X160798520Y-64869685D01*
G37*
%TD.AperFunction*%
%TD*%
%TA.AperFunction,Conductor*%
%TO.N,+3.3V*%
G36*
X177647145Y-67119685D02*
G01*
X177659480Y-67128733D01*
X177878608Y-67311340D01*
X177917506Y-67369378D01*
X177923167Y-67410362D01*
X177914394Y-67699264D01*
X177892684Y-67765675D01*
X177838515Y-67809806D01*
X177790451Y-67819500D01*
X177555250Y-67819500D01*
X177514445Y-67827617D01*
X177490253Y-67830000D01*
X177453809Y-67830000D01*
X177386770Y-67810315D01*
X177369395Y-67796831D01*
X177264411Y-67699264D01*
X177050000Y-67500000D01*
X177049999Y-67500000D01*
X176375000Y-67500000D01*
X176175000Y-67619232D01*
X176175000Y-67931204D01*
X176169431Y-67967949D01*
X176000000Y-68514038D01*
X176000000Y-68590252D01*
X175997617Y-68614443D01*
X175989500Y-68655248D01*
X175989500Y-68876000D01*
X175969815Y-68943039D01*
X175917011Y-68988794D01*
X175865500Y-69000000D01*
X175503884Y-69000000D01*
X175436845Y-68980315D01*
X175413233Y-68960607D01*
X175133349Y-68660731D01*
X175101997Y-68598291D01*
X175100000Y-68576124D01*
X175100000Y-67415322D01*
X175106004Y-67394874D01*
X175107231Y-67373596D01*
X175118535Y-67352196D01*
X175119685Y-67348283D01*
X175123717Y-67342389D01*
X175262860Y-67151067D01*
X175318210Y-67108427D01*
X175363143Y-67100000D01*
X177580106Y-67100000D01*
X177647145Y-67119685D01*
G37*
%TD.AperFunction*%
%TD*%
%TA.AperFunction,Conductor*%
%TO.N,+3.3V*%
G36*
X174530591Y-78369685D02*
G01*
X174562217Y-78398893D01*
X175774667Y-79991719D01*
X175799609Y-80056985D01*
X175800000Y-80066824D01*
X175800000Y-81005507D01*
X175780315Y-81072546D01*
X175727511Y-81118301D01*
X175680589Y-81129422D01*
X175253589Y-81145237D01*
X175185867Y-81128047D01*
X175138189Y-81076973D01*
X175125000Y-81021322D01*
X175125000Y-80074999D01*
X174183042Y-79225860D01*
X174146428Y-79166352D01*
X174142098Y-79136461D01*
X174127754Y-78476693D01*
X174130467Y-78466650D01*
X174128987Y-78456353D01*
X174139424Y-78433498D01*
X174145977Y-78409244D01*
X174153689Y-78402261D01*
X174158012Y-78392797D01*
X174179149Y-78379212D01*
X174197774Y-78362352D01*
X174209598Y-78359644D01*
X174216790Y-78355023D01*
X174251725Y-78350000D01*
X174463552Y-78350000D01*
X174530591Y-78369685D01*
G37*
%TD.AperFunction*%
%TD*%
%TA.AperFunction,Conductor*%
%TO.N,+3.3V*%
G36*
X171893039Y-84944685D02*
G01*
X171938794Y-84997489D01*
X171950000Y-85049000D01*
X171950000Y-85550973D01*
X171930315Y-85618012D01*
X171877511Y-85663767D01*
X171826007Y-85674973D01*
X171383057Y-85674999D01*
X171367004Y-85673956D01*
X170950006Y-85619536D01*
X170950000Y-85619536D01*
X170725934Y-85623033D01*
X170658597Y-85604398D01*
X170612023Y-85552315D01*
X170600000Y-85499049D01*
X170600000Y-85049000D01*
X170619685Y-84981961D01*
X170672489Y-84936206D01*
X170724000Y-84925000D01*
X171826000Y-84925000D01*
X171893039Y-84944685D01*
G37*
%TD.AperFunction*%
%TD*%
%TA.AperFunction,Conductor*%
%TO.N,GND*%
G36*
X166359706Y-62120185D02*
G01*
X166405461Y-62172989D01*
X166415405Y-62242147D01*
X166386380Y-62305703D01*
X166380348Y-62312181D01*
X166352041Y-62340487D01*
X166352035Y-62340495D01*
X166312482Y-62409004D01*
X166312479Y-62409009D01*
X166298826Y-62459962D01*
X166292000Y-62485438D01*
X166292000Y-62564562D01*
X166305652Y-62615513D01*
X166312479Y-62640990D01*
X166312482Y-62640995D01*
X166352035Y-62709504D01*
X166352039Y-62709509D01*
X166352040Y-62709511D01*
X166407989Y-62765460D01*
X166407991Y-62765461D01*
X166407995Y-62765464D01*
X166476504Y-62805017D01*
X166476511Y-62805021D01*
X166552938Y-62825500D01*
X166552940Y-62825500D01*
X166632060Y-62825500D01*
X166632062Y-62825500D01*
X166708489Y-62805021D01*
X166777011Y-62765460D01*
X166832960Y-62709511D01*
X166872521Y-62640989D01*
X166893000Y-62564562D01*
X166893000Y-62485438D01*
X166872521Y-62409011D01*
X166872517Y-62409004D01*
X166832964Y-62340495D01*
X166832958Y-62340487D01*
X166804652Y-62312181D01*
X166771167Y-62250858D01*
X166776151Y-62181166D01*
X166818023Y-62125233D01*
X166883487Y-62100816D01*
X166892333Y-62100500D01*
X178725500Y-62100500D01*
X178792539Y-62120185D01*
X178838294Y-62172989D01*
X178849500Y-62224500D01*
X178849500Y-67065845D01*
X178829815Y-67132884D01*
X178777011Y-67178639D01*
X178707853Y-67188583D01*
X178656611Y-67168948D01*
X178612548Y-67139507D01*
X178612543Y-67139504D01*
X178540000Y-67125074D01*
X178540000Y-67381000D01*
X178537449Y-67389685D01*
X178538738Y-67398647D01*
X178527759Y-67422687D01*
X178520315Y-67448039D01*
X178513474Y-67453966D01*
X178509713Y-67462203D01*
X178487478Y-67476492D01*
X178467511Y-67493794D01*
X178456996Y-67496081D01*
X178450935Y-67499977D01*
X178416000Y-67505000D01*
X178414000Y-67505000D01*
X178346961Y-67485315D01*
X178301206Y-67432511D01*
X178290000Y-67381000D01*
X178290000Y-67125074D01*
X178289999Y-67125074D01*
X178217456Y-67139504D01*
X178217453Y-67139506D01*
X178134759Y-67194760D01*
X178128633Y-67203929D01*
X178075020Y-67248732D01*
X178005695Y-67257438D01*
X177946150Y-67230295D01*
X177837203Y-67139506D01*
X177727020Y-67047686D01*
X177727016Y-67047683D01*
X177727009Y-67047677D01*
X177721879Y-67043664D01*
X177709544Y-67034617D01*
X177676872Y-67018460D01*
X177609834Y-66998775D01*
X177609832Y-66998774D01*
X177609830Y-66998774D01*
X177580106Y-66994500D01*
X175363143Y-66994500D01*
X175359901Y-66994801D01*
X175343691Y-66996308D01*
X175298765Y-67004734D01*
X175298761Y-67004735D01*
X175253829Y-67024849D01*
X175253823Y-67024852D01*
X175198477Y-67067490D01*
X175198475Y-67067491D01*
X175177538Y-67089014D01*
X175046197Y-67269607D01*
X175046166Y-67269651D01*
X175038395Y-67280337D01*
X175036642Y-67282822D01*
X175032610Y-67288716D01*
X175031773Y-67290478D01*
X175031623Y-67290697D01*
X175030104Y-67293730D01*
X175013946Y-67324318D01*
X175013945Y-67324321D01*
X175001906Y-67367519D01*
X175000817Y-67374075D01*
X175000643Y-67374046D01*
X174999552Y-67382014D01*
X174998773Y-67385592D01*
X174994500Y-67415319D01*
X174994500Y-67415322D01*
X174994500Y-68576124D01*
X174994791Y-68582600D01*
X174994926Y-68585596D01*
X174994926Y-68585599D01*
X174996923Y-68607759D01*
X175007714Y-68645629D01*
X175007715Y-68645631D01*
X175030490Y-68690990D01*
X175039069Y-68708074D01*
X175039073Y-68708082D01*
X175048603Y-68721770D01*
X175056223Y-68732716D01*
X175336107Y-69032592D01*
X175340517Y-69036764D01*
X175345626Y-69041598D01*
X175345638Y-69041609D01*
X175369239Y-69061307D01*
X175369240Y-69061307D01*
X175369242Y-69061309D01*
X175382754Y-69068526D01*
X175403771Y-69079752D01*
X175407121Y-69081541D01*
X175474160Y-69101226D01*
X175503884Y-69105500D01*
X175503888Y-69105500D01*
X175865500Y-69105500D01*
X175887927Y-69103089D01*
X175939438Y-69091883D01*
X175986099Y-69068526D01*
X176038903Y-69022771D01*
X176071041Y-68972763D01*
X176090726Y-68905724D01*
X176095000Y-68876000D01*
X176095000Y-68677853D01*
X176095409Y-68667795D01*
X176095988Y-68660670D01*
X176101090Y-68635026D01*
X176102609Y-68624786D01*
X176104992Y-68600595D01*
X176105500Y-68590252D01*
X176105500Y-68543792D01*
X176105909Y-68538767D01*
X176107751Y-68533972D01*
X176111069Y-68512080D01*
X176119335Y-68485438D01*
X176270193Y-67999212D01*
X176273740Y-67983758D01*
X176279309Y-67947013D01*
X176280500Y-67931204D01*
X176280500Y-67749601D01*
X176283638Y-67738911D01*
X176282425Y-67727839D01*
X176293307Y-67705985D01*
X176300185Y-67682562D01*
X176309415Y-67673636D01*
X176313569Y-67665295D01*
X176340997Y-67643095D01*
X176374725Y-67622989D01*
X176438218Y-67605500D01*
X176959820Y-67605500D01*
X177026859Y-67625185D01*
X177044234Y-67638669D01*
X177297567Y-67874104D01*
X177297575Y-67874111D01*
X177304714Y-67880177D01*
X177322089Y-67893661D01*
X177322093Y-67893663D01*
X177326523Y-67897101D01*
X177367417Y-67953753D01*
X177374500Y-67995063D01*
X177374500Y-68299752D01*
X177386131Y-68358229D01*
X177386132Y-68358230D01*
X177427108Y-68419553D01*
X177430448Y-68424552D01*
X177459391Y-68443891D01*
X177504195Y-68497502D01*
X177514500Y-68546993D01*
X177514500Y-69518075D01*
X177514500Y-69581925D01*
X177538935Y-69640916D01*
X177538936Y-69640917D01*
X178289519Y-70391500D01*
X178314358Y-70434521D01*
X178316869Y-70433481D01*
X178319980Y-70440992D01*
X178359537Y-70509507D01*
X178359539Y-70509510D01*
X178359540Y-70509511D01*
X178415489Y-70565460D01*
X178415491Y-70565461D01*
X178415495Y-70565464D01*
X178484004Y-70605017D01*
X178484011Y-70605021D01*
X178560438Y-70625500D01*
X178560440Y-70625500D01*
X178639561Y-70625500D01*
X178639562Y-70625500D01*
X178693406Y-70611072D01*
X178763254Y-70612733D01*
X178821117Y-70651895D01*
X178848623Y-70716123D01*
X178849500Y-70730846D01*
X178849500Y-74838995D01*
X178829815Y-74906034D01*
X178777011Y-74951789D01*
X178707853Y-74961733D01*
X178678570Y-74953699D01*
X178619752Y-74942000D01*
X178619748Y-74942000D01*
X178380252Y-74942000D01*
X178380247Y-74942000D01*
X178321770Y-74953631D01*
X178321769Y-74953632D01*
X178255447Y-74997947D01*
X178211132Y-75064269D01*
X178211131Y-75064270D01*
X178199500Y-75122747D01*
X178199500Y-75597252D01*
X178211131Y-75655729D01*
X178211132Y-75655730D01*
X178255447Y-75722052D01*
X178321769Y-75766367D01*
X178321770Y-75766368D01*
X178380247Y-75777999D01*
X178380250Y-75778000D01*
X178380252Y-75778000D01*
X178619750Y-75778000D01*
X178619751Y-75777999D01*
X178634485Y-75775068D01*
X178690210Y-75763985D01*
X178690434Y-75765112D01*
X178747511Y-75758973D01*
X178809991Y-75790245D01*
X178845647Y-75850332D01*
X178849500Y-75881004D01*
X178849500Y-88453675D01*
X178829815Y-88520714D01*
X178777011Y-88566469D01*
X178725500Y-88577675D01*
X155824500Y-88577675D01*
X155757461Y-88557990D01*
X155711706Y-88505186D01*
X155700500Y-88453675D01*
X155700500Y-85790098D01*
X165374500Y-85790098D01*
X165374500Y-87309894D01*
X165374501Y-87309902D01*
X165380330Y-87339212D01*
X165402542Y-87372457D01*
X165419219Y-87383599D01*
X165435787Y-87394669D01*
X165435790Y-87394669D01*
X165435791Y-87394670D01*
X165450444Y-87397584D01*
X165465101Y-87400500D01*
X165483270Y-87400499D01*
X165550308Y-87420181D01*
X165596065Y-87472983D01*
X165597833Y-87477044D01*
X165613934Y-87515914D01*
X165613936Y-87515917D01*
X165838181Y-87740162D01*
X165871666Y-87801485D01*
X165874500Y-87827843D01*
X165874500Y-87889562D01*
X165888152Y-87940513D01*
X165894979Y-87965990D01*
X165894982Y-87965995D01*
X165934535Y-88034504D01*
X165934539Y-88034509D01*
X165934540Y-88034511D01*
X165990489Y-88090460D01*
X165990491Y-88090461D01*
X165990495Y-88090464D01*
X166059004Y-88130017D01*
X166059011Y-88130021D01*
X166135438Y-88150500D01*
X166135440Y-88150500D01*
X166214560Y-88150500D01*
X166214562Y-88150500D01*
X166290989Y-88130021D01*
X166359511Y-88090460D01*
X166415460Y-88034511D01*
X166455021Y-87965989D01*
X166475500Y-87889562D01*
X166475500Y-87810438D01*
X166455021Y-87734011D01*
X166455017Y-87734004D01*
X166415464Y-87665495D01*
X166415458Y-87665487D01*
X166359512Y-87609541D01*
X166359504Y-87609535D01*
X166290995Y-87569982D01*
X166290990Y-87569979D01*
X166265513Y-87563152D01*
X166214562Y-87549500D01*
X166211148Y-87549500D01*
X166208373Y-87548685D01*
X166206503Y-87548439D01*
X166206541Y-87548147D01*
X166144109Y-87529815D01*
X166098354Y-87477011D01*
X166088410Y-87407853D01*
X166108043Y-87356613D01*
X166119669Y-87339213D01*
X166125500Y-87309899D01*
X166125499Y-85790102D01*
X166119669Y-85760787D01*
X166098110Y-85728520D01*
X166097457Y-85727542D01*
X166072496Y-85710865D01*
X166064213Y-85705331D01*
X166064211Y-85705330D01*
X166064208Y-85705329D01*
X166034901Y-85699500D01*
X165465105Y-85699500D01*
X165465097Y-85699501D01*
X165435787Y-85705330D01*
X165402542Y-85727542D01*
X165380332Y-85760785D01*
X165380329Y-85760791D01*
X165374500Y-85790098D01*
X155700500Y-85790098D01*
X155700500Y-85010438D01*
X164599500Y-85010438D01*
X164599500Y-85089562D01*
X164605094Y-85110438D01*
X164619979Y-85165990D01*
X164619982Y-85165995D01*
X164659535Y-85234504D01*
X164659539Y-85234509D01*
X164659540Y-85234511D01*
X164715489Y-85290460D01*
X164715491Y-85290461D01*
X164715495Y-85290464D01*
X164784004Y-85330017D01*
X164784011Y-85330021D01*
X164860438Y-85350500D01*
X164860440Y-85350500D01*
X164939560Y-85350500D01*
X164939562Y-85350500D01*
X165015989Y-85330021D01*
X165084511Y-85290460D01*
X165140460Y-85234511D01*
X165180021Y-85165989D01*
X165180568Y-85163944D01*
X165181501Y-85162414D01*
X165183130Y-85158482D01*
X165183742Y-85158735D01*
X165216926Y-85104286D01*
X165279770Y-85073751D01*
X165349146Y-85082039D01*
X165362343Y-85088644D01*
X165377473Y-85097379D01*
X165434011Y-85130021D01*
X165510438Y-85150500D01*
X165510440Y-85150500D01*
X165589560Y-85150500D01*
X165589562Y-85150500D01*
X165665989Y-85130021D01*
X165734511Y-85090460D01*
X165775968Y-85049003D01*
X170494500Y-85049003D01*
X170494500Y-85499051D01*
X170497088Y-85522277D01*
X170502240Y-85545103D01*
X170502241Y-85545106D01*
X170504879Y-85556792D01*
X170511133Y-85588231D01*
X170530870Y-85617769D01*
X170533380Y-85622640D01*
X170534577Y-85623979D01*
X170534986Y-85624975D01*
X170536411Y-85627046D01*
X170541178Y-85633196D01*
X170555445Y-85654549D01*
X170555446Y-85654550D01*
X170555448Y-85654552D01*
X170558450Y-85656558D01*
X170573005Y-85669198D01*
X170573157Y-85669018D01*
X170579949Y-85674719D01*
X170579952Y-85674720D01*
X170579954Y-85674723D01*
X170609784Y-85693241D01*
X170630457Y-85706076D01*
X170630460Y-85706077D01*
X170679243Y-85719577D01*
X170697795Y-85724711D01*
X170727580Y-85728520D01*
X170934954Y-85725282D01*
X170952913Y-85726309D01*
X171353352Y-85778569D01*
X171360164Y-85779234D01*
X171371029Y-85779939D01*
X171376213Y-85780277D01*
X171377130Y-85780306D01*
X171383063Y-85780499D01*
X171826013Y-85780473D01*
X171848436Y-85778061D01*
X171899940Y-85766855D01*
X171946599Y-85743499D01*
X171999403Y-85697744D01*
X172031541Y-85647736D01*
X172039079Y-85622064D01*
X172045676Y-85612191D01*
X172060500Y-85537667D01*
X172060499Y-85525872D01*
X172063804Y-85511850D01*
X172074228Y-85493515D01*
X172080164Y-85473279D01*
X172091150Y-85463753D01*
X172098338Y-85451112D01*
X172117020Y-85441323D01*
X172132955Y-85427508D01*
X172147347Y-85425434D01*
X172160228Y-85418686D01*
X172181235Y-85420552D01*
X172202111Y-85417545D01*
X172221022Y-85424087D01*
X172229824Y-85424869D01*
X172233625Y-85427817D01*
X172234001Y-85426910D01*
X172241509Y-85430020D01*
X172241511Y-85430021D01*
X172317938Y-85450500D01*
X172317940Y-85450500D01*
X172397060Y-85450500D01*
X172397062Y-85450500D01*
X172473489Y-85430021D01*
X172542011Y-85390460D01*
X172597960Y-85334511D01*
X172637521Y-85265989D01*
X172658000Y-85189562D01*
X172658000Y-85110438D01*
X172637521Y-85034011D01*
X172623911Y-85010438D01*
X172597964Y-84965495D01*
X172597958Y-84965487D01*
X172554319Y-84921848D01*
X172520834Y-84860525D01*
X172518000Y-84834167D01*
X172518000Y-83475576D01*
X172518000Y-83475575D01*
X172493565Y-83416584D01*
X172493565Y-83416583D01*
X172196819Y-83119837D01*
X172163334Y-83058514D01*
X172160500Y-83032156D01*
X172160500Y-82668076D01*
X172160499Y-82668072D01*
X172158131Y-82662355D01*
X172152734Y-82612160D01*
X172149538Y-82612121D01*
X172155387Y-82142506D01*
X172159996Y-81772421D01*
X172175500Y-81714562D01*
X172175500Y-81635438D01*
X172162315Y-81586233D01*
X172163078Y-81525000D01*
X172163078Y-81524993D01*
X172163078Y-81524989D01*
X172076923Y-80019324D01*
X172000500Y-78683738D01*
X172000500Y-78660438D01*
X171980021Y-78584011D01*
X171940460Y-78515489D01*
X171903957Y-78478986D01*
X174022279Y-78478986D01*
X174022409Y-78484979D01*
X174022409Y-78484981D01*
X174024979Y-78603257D01*
X174024500Y-78612053D01*
X174024500Y-78697065D01*
X174025560Y-78705118D01*
X174025130Y-78705174D01*
X174027567Y-78722245D01*
X174036622Y-79138759D01*
X174037685Y-79151568D01*
X174037686Y-79151571D01*
X174042018Y-79181477D01*
X174042019Y-79181482D01*
X174050191Y-79204027D01*
X174055957Y-79226084D01*
X174215344Y-80191511D01*
X174216885Y-80206365D01*
X174217000Y-80209031D01*
X174217000Y-80344748D01*
X174224474Y-80382326D01*
X174224885Y-80391834D01*
X174224590Y-80393023D01*
X174225000Y-80397178D01*
X174225000Y-80777821D01*
X174222616Y-80802013D01*
X174217000Y-80830252D01*
X174217000Y-81069748D01*
X174218010Y-81074828D01*
X174222617Y-81097985D01*
X174225000Y-81122178D01*
X174225000Y-81477821D01*
X174222617Y-81502013D01*
X174217000Y-81530250D01*
X174217000Y-81769752D01*
X174228631Y-81828229D01*
X174228632Y-81828230D01*
X174272947Y-81894552D01*
X174339269Y-81938867D01*
X174339270Y-81938868D01*
X174397747Y-81950499D01*
X174397750Y-81950500D01*
X174397752Y-81950500D01*
X174872250Y-81950500D01*
X174872251Y-81950499D01*
X174887068Y-81947552D01*
X174930729Y-81938868D01*
X174930729Y-81938867D01*
X174930731Y-81938867D01*
X174997052Y-81894552D01*
X175041367Y-81828231D01*
X175041367Y-81828229D01*
X175041368Y-81828229D01*
X175052999Y-81769752D01*
X175053000Y-81769750D01*
X175053000Y-81530249D01*
X175052999Y-81530247D01*
X175041368Y-81471770D01*
X175041367Y-81471769D01*
X175010090Y-81424960D01*
X174989212Y-81358283D01*
X175007696Y-81290903D01*
X175059675Y-81244212D01*
X175128645Y-81233036D01*
X175129680Y-81233170D01*
X175149778Y-81235866D01*
X175154269Y-81238867D01*
X175212752Y-81250500D01*
X175255940Y-81250500D01*
X175257494Y-81250665D01*
X175259654Y-81250584D01*
X175264244Y-81250500D01*
X175687250Y-81250500D01*
X175687251Y-81250499D01*
X175706918Y-81246587D01*
X175745728Y-81238868D01*
X175745728Y-81238867D01*
X175745731Y-81238867D01*
X175812052Y-81194552D01*
X175818499Y-81184901D01*
X175840400Y-81160078D01*
X175849403Y-81152278D01*
X175881541Y-81102270D01*
X175901226Y-81035231D01*
X175905500Y-81005507D01*
X175905500Y-80066824D01*
X175905417Y-80062635D01*
X175905026Y-80052796D01*
X175898158Y-80019324D01*
X175873216Y-79954058D01*
X175858614Y-79927819D01*
X175419162Y-79350500D01*
X174646170Y-78335000D01*
X174646164Y-78334993D01*
X174633795Y-78321389D01*
X174602169Y-78292181D01*
X174602164Y-78292178D01*
X174602161Y-78292176D01*
X174560318Y-78268460D01*
X174560315Y-78268459D01*
X174493283Y-78248775D01*
X174492949Y-78248727D01*
X174463552Y-78244500D01*
X174251725Y-78244500D01*
X174236712Y-78245573D01*
X174211655Y-78249176D01*
X174201775Y-78250597D01*
X174201773Y-78250597D01*
X174201770Y-78250598D01*
X174191324Y-78254492D01*
X174191325Y-78254493D01*
X174184444Y-78257059D01*
X174183653Y-78257354D01*
X174174222Y-78259515D01*
X174165068Y-78264284D01*
X174159766Y-78266262D01*
X174159757Y-78266266D01*
X174158001Y-78267395D01*
X174148306Y-78273019D01*
X174126971Y-78284138D01*
X174126966Y-78284141D01*
X174122350Y-78288319D01*
X174114787Y-78295165D01*
X174100971Y-78304047D01*
X174086380Y-78320883D01*
X174080825Y-78325913D01*
X174080816Y-78325923D01*
X174075165Y-78331039D01*
X174075161Y-78331044D01*
X174074681Y-78331829D01*
X174062662Y-78348255D01*
X174062048Y-78348963D01*
X174062046Y-78348966D01*
X174058877Y-78355905D01*
X174051843Y-78369125D01*
X174046463Y-78377912D01*
X174044128Y-78381727D01*
X174042507Y-78387727D01*
X174035603Y-78406869D01*
X174033022Y-78412521D01*
X174033020Y-78412529D01*
X174030918Y-78427145D01*
X174030860Y-78427424D01*
X174030860Y-78427541D01*
X174029133Y-78439275D01*
X174028618Y-78439137D01*
X174025905Y-78449180D01*
X174022279Y-78478986D01*
X171903957Y-78478986D01*
X171884511Y-78459540D01*
X171884509Y-78459539D01*
X171884504Y-78459535D01*
X171815995Y-78419982D01*
X171815991Y-78419980D01*
X171815989Y-78419979D01*
X171815987Y-78419978D01*
X171815984Y-78419977D01*
X171751078Y-78402585D01*
X171695492Y-78370492D01*
X171486113Y-78161113D01*
X171466406Y-78135430D01*
X171440462Y-78090492D01*
X171440458Y-78090487D01*
X171384512Y-78034541D01*
X171384504Y-78034535D01*
X171315995Y-77994982D01*
X171315990Y-77994979D01*
X171290513Y-77988152D01*
X171239562Y-77974500D01*
X171160438Y-77974500D01*
X171122224Y-77984739D01*
X171084009Y-77994979D01*
X171084004Y-77994982D01*
X171015495Y-78034535D01*
X171015487Y-78034541D01*
X170959541Y-78090487D01*
X170959537Y-78090492D01*
X170919980Y-78159007D01*
X170919976Y-78159016D01*
X170910107Y-78195846D01*
X170910095Y-78195893D01*
X170902497Y-78224250D01*
X170900000Y-78225000D01*
X170900080Y-78233273D01*
X170899500Y-78235438D01*
X170899500Y-78240268D01*
X170899500Y-78314570D01*
X170899993Y-78318319D01*
X170901046Y-78333289D01*
X170930709Y-81399717D01*
X170926491Y-81433004D01*
X170924501Y-81440431D01*
X170924500Y-81440436D01*
X170924500Y-81440438D01*
X170924500Y-81519562D01*
X170937780Y-81569121D01*
X170944979Y-81595990D01*
X170944982Y-81595995D01*
X170984535Y-81664504D01*
X170984541Y-81664512D01*
X171028181Y-81708152D01*
X171061666Y-81769475D01*
X171064500Y-81795833D01*
X171064500Y-81893075D01*
X171064500Y-81956925D01*
X171088935Y-82015916D01*
X171088936Y-82015917D01*
X171803181Y-82730162D01*
X171836666Y-82791485D01*
X171839500Y-82817843D01*
X171839500Y-83118075D01*
X171839500Y-83181925D01*
X171863935Y-83240916D01*
X171863936Y-83240917D01*
X172160681Y-83537662D01*
X172194166Y-83598985D01*
X172197000Y-83625343D01*
X172197000Y-84801914D01*
X172177315Y-84868953D01*
X172124511Y-84914708D01*
X172055353Y-84924652D01*
X171991797Y-84895627D01*
X171979289Y-84883119D01*
X171978491Y-84882198D01*
X171972771Y-84875597D01*
X171922763Y-84843459D01*
X171855729Y-84823775D01*
X171855725Y-84823774D01*
X171855724Y-84823774D01*
X171826000Y-84819500D01*
X170724000Y-84819500D01*
X170723997Y-84819500D01*
X170701573Y-84821910D01*
X170650061Y-84833117D01*
X170603399Y-84856474D01*
X170550596Y-84902229D01*
X170518460Y-84952235D01*
X170518459Y-84952236D01*
X170498775Y-85019270D01*
X170498774Y-85019275D01*
X170498774Y-85019276D01*
X170496584Y-85034512D01*
X170494500Y-85049003D01*
X165775968Y-85049003D01*
X165790460Y-85034511D01*
X165804358Y-85010439D01*
X165820448Y-84982571D01*
X165820448Y-84982570D01*
X165830021Y-84965989D01*
X165850500Y-84889562D01*
X165850500Y-84810438D01*
X165830021Y-84734011D01*
X165830017Y-84734004D01*
X165790464Y-84665495D01*
X165790458Y-84665487D01*
X165734512Y-84609541D01*
X165734504Y-84609535D01*
X165665995Y-84569982D01*
X165665990Y-84569979D01*
X165640513Y-84563152D01*
X165589562Y-84549500D01*
X165510438Y-84549500D01*
X165472224Y-84559739D01*
X165434009Y-84569979D01*
X165434004Y-84569982D01*
X165365495Y-84609535D01*
X165365487Y-84609541D01*
X165309541Y-84665487D01*
X165309535Y-84665495D01*
X165269982Y-84734004D01*
X165269978Y-84734012D01*
X165269429Y-84736064D01*
X165268493Y-84737599D01*
X165266870Y-84741518D01*
X165266258Y-84741264D01*
X165233062Y-84795723D01*
X165170214Y-84826251D01*
X165100839Y-84817954D01*
X165087656Y-84811355D01*
X165015989Y-84769979D01*
X165015990Y-84769979D01*
X164990513Y-84763152D01*
X164939562Y-84749500D01*
X164860438Y-84749500D01*
X164822224Y-84759739D01*
X164784009Y-84769979D01*
X164784004Y-84769982D01*
X164715495Y-84809535D01*
X164715487Y-84809541D01*
X164659541Y-84865487D01*
X164659535Y-84865495D01*
X164619982Y-84934004D01*
X164619979Y-84934009D01*
X164611410Y-84965989D01*
X164599500Y-85010438D01*
X155700500Y-85010438D01*
X155700500Y-78365098D01*
X159374500Y-78365098D01*
X159374500Y-78984894D01*
X159374501Y-78984902D01*
X159380330Y-79014210D01*
X159385005Y-79025497D01*
X159383416Y-79026154D01*
X159399980Y-79079046D01*
X159400000Y-79081264D01*
X159400000Y-79518735D01*
X159383773Y-79573997D01*
X159385004Y-79574507D01*
X159380329Y-79585791D01*
X159374500Y-79615098D01*
X159374500Y-80234894D01*
X159374501Y-80234902D01*
X159380330Y-80264212D01*
X159402542Y-80297457D01*
X159419219Y-80308599D01*
X159435787Y-80319669D01*
X159435790Y-80319669D01*
X159435791Y-80319670D01*
X159445647Y-80321630D01*
X159465101Y-80325500D01*
X161184898Y-80325499D01*
X161214213Y-80319669D01*
X161247457Y-80297457D01*
X161269669Y-80264213D01*
X161275500Y-80234899D01*
X161275499Y-80034411D01*
X161284144Y-80004966D01*
X161290667Y-79974984D01*
X161294420Y-79969970D01*
X161295183Y-79967372D01*
X161311809Y-79946739D01*
X161459232Y-79799316D01*
X161520553Y-79765834D01*
X161546911Y-79763000D01*
X162002380Y-79763000D01*
X162002382Y-79763000D01*
X162076074Y-79732476D01*
X164394976Y-77413574D01*
X164425500Y-77339882D01*
X164425500Y-77260118D01*
X164425500Y-76122618D01*
X164394976Y-76048926D01*
X164338574Y-75992524D01*
X164026074Y-75680024D01*
X163952383Y-75649500D01*
X163952382Y-75649500D01*
X163541115Y-75649500D01*
X163474076Y-75629815D01*
X163428321Y-75577011D01*
X163421341Y-75557596D01*
X163419170Y-75549496D01*
X163415021Y-75534011D01*
X163415017Y-75534004D01*
X163375464Y-75465495D01*
X163375458Y-75465487D01*
X163319512Y-75409541D01*
X163319504Y-75409535D01*
X163250995Y-75369982D01*
X163250990Y-75369979D01*
X163225513Y-75363152D01*
X163174562Y-75349500D01*
X163095438Y-75349500D01*
X163057224Y-75359739D01*
X163019009Y-75369979D01*
X163019004Y-75369982D01*
X162950495Y-75409535D01*
X162950487Y-75409541D01*
X162894541Y-75465487D01*
X162894535Y-75465495D01*
X162854982Y-75534004D01*
X162854979Y-75534009D01*
X162854978Y-75534013D01*
X162834500Y-75610438D01*
X162834500Y-75689562D01*
X162843206Y-75722052D01*
X162854979Y-75765990D01*
X162854982Y-75765995D01*
X162894535Y-75834504D01*
X162894539Y-75834509D01*
X162894540Y-75834511D01*
X162950489Y-75890460D01*
X162950490Y-75890461D01*
X162950492Y-75890462D01*
X162951713Y-75891167D01*
X162952537Y-75892031D01*
X162956940Y-75895410D01*
X162956413Y-75896096D01*
X162999931Y-75941732D01*
X163013156Y-76010339D01*
X162987190Y-76075204D01*
X162951722Y-76105940D01*
X162945495Y-76109535D01*
X162945487Y-76109541D01*
X162889541Y-76165487D01*
X162889535Y-76165495D01*
X162849982Y-76234004D01*
X162849979Y-76234009D01*
X162846887Y-76245550D01*
X162829500Y-76310438D01*
X162829500Y-76389562D01*
X162834454Y-76408050D01*
X162849979Y-76465990D01*
X162849982Y-76465995D01*
X162889535Y-76534504D01*
X162889539Y-76534509D01*
X162889540Y-76534511D01*
X162945489Y-76590460D01*
X162945491Y-76590461D01*
X162945495Y-76590464D01*
X162996623Y-76619982D01*
X163014011Y-76630021D01*
X163090438Y-76650500D01*
X163090440Y-76650500D01*
X163169560Y-76650500D01*
X163169562Y-76650500D01*
X163245989Y-76630021D01*
X163314511Y-76590460D01*
X163370460Y-76534511D01*
X163393112Y-76495275D01*
X163443678Y-76447059D01*
X163512285Y-76433835D01*
X163577150Y-76459802D01*
X163617680Y-76516716D01*
X163624500Y-76557274D01*
X163624500Y-76965587D01*
X163604815Y-77032626D01*
X163588181Y-77053268D01*
X163026122Y-77615326D01*
X162983534Y-77643155D01*
X161325011Y-78290611D01*
X161255403Y-78296654D01*
X161225770Y-78284332D01*
X161225493Y-78285004D01*
X161214208Y-78280329D01*
X161184901Y-78274500D01*
X159465105Y-78274500D01*
X159465097Y-78274501D01*
X159435787Y-78280330D01*
X159402542Y-78302542D01*
X159380332Y-78335785D01*
X159380329Y-78335791D01*
X159374500Y-78365098D01*
X155700500Y-78365098D01*
X155700500Y-73448007D01*
X155720185Y-73380968D01*
X155772989Y-73335213D01*
X155842147Y-73325269D01*
X155893392Y-73344906D01*
X155921768Y-73363867D01*
X155921770Y-73363868D01*
X155980247Y-73375499D01*
X155980250Y-73375500D01*
X155980252Y-73375500D01*
X156219750Y-73375500D01*
X156219751Y-73375499D01*
X156234568Y-73372552D01*
X156278229Y-73363868D01*
X156278229Y-73363867D01*
X156278231Y-73363867D01*
X156344552Y-73319552D01*
X156388867Y-73253231D01*
X156392513Y-73234901D01*
X156395914Y-73217808D01*
X156428299Y-73155897D01*
X156489015Y-73121323D01*
X156517531Y-73118000D01*
X157225601Y-73118000D01*
X157292640Y-73137685D01*
X157338395Y-73190489D01*
X157349004Y-73229850D01*
X157349501Y-73234900D01*
X157355330Y-73264212D01*
X157377542Y-73297457D01*
X157394219Y-73308599D01*
X157410787Y-73319669D01*
X157410790Y-73319669D01*
X157410791Y-73319670D01*
X157420647Y-73321630D01*
X157440101Y-73325500D01*
X157759898Y-73325499D01*
X157789213Y-73319669D01*
X157822457Y-73297457D01*
X157844669Y-73264213D01*
X157850500Y-73234899D01*
X157850499Y-72365102D01*
X157844669Y-72335787D01*
X157844668Y-72335785D01*
X157822457Y-72302542D01*
X157789214Y-72280332D01*
X157789215Y-72280332D01*
X157789213Y-72280331D01*
X157789211Y-72280330D01*
X157789208Y-72280329D01*
X157759901Y-72274500D01*
X157440105Y-72274500D01*
X157440097Y-72274501D01*
X157410787Y-72280330D01*
X157377542Y-72302542D01*
X157355332Y-72335785D01*
X157355329Y-72335791D01*
X157349500Y-72365098D01*
X157349500Y-72673000D01*
X157329815Y-72740039D01*
X157277011Y-72785794D01*
X157225500Y-72797000D01*
X156517531Y-72797000D01*
X156450492Y-72777315D01*
X156404737Y-72724511D01*
X156395914Y-72697192D01*
X156388867Y-72661770D01*
X156388867Y-72661769D01*
X156344552Y-72595447D01*
X156278230Y-72551132D01*
X156278229Y-72551131D01*
X156219752Y-72539500D01*
X156219748Y-72539500D01*
X155980252Y-72539500D01*
X155980247Y-72539500D01*
X155921770Y-72551131D01*
X155921770Y-72551132D01*
X155893390Y-72570095D01*
X155826713Y-72590972D01*
X155759333Y-72572487D01*
X155712643Y-72520508D01*
X155700500Y-72466992D01*
X155700500Y-69506140D01*
X156324500Y-69506140D01*
X156324500Y-69593863D01*
X156325000Y-69601489D01*
X156325000Y-69825000D01*
X157591298Y-70273074D01*
X157767521Y-70335430D01*
X157824154Y-70376350D01*
X157849674Y-70441393D01*
X157849562Y-70464463D01*
X157849500Y-70465093D01*
X157849500Y-71334894D01*
X157849501Y-71334902D01*
X157855330Y-71364212D01*
X157877542Y-71397457D01*
X157888895Y-71405042D01*
X157910787Y-71419669D01*
X157910790Y-71419669D01*
X157910791Y-71419670D01*
X157920647Y-71421630D01*
X157940101Y-71425500D01*
X158259898Y-71425499D01*
X158289213Y-71419669D01*
X158289214Y-71419667D01*
X158300496Y-71414996D01*
X158301969Y-71418553D01*
X158347763Y-71404205D01*
X158364553Y-71405042D01*
X158394125Y-71408536D01*
X158410787Y-71419669D01*
X158440101Y-71425500D01*
X158537655Y-71425499D01*
X158544907Y-71426356D01*
X158545426Y-71426577D01*
X158548003Y-71426761D01*
X158574000Y-71430500D01*
X158574001Y-71430500D01*
X158651000Y-71430500D01*
X158666015Y-71429426D01*
X158684549Y-71426760D01*
X158702197Y-71425499D01*
X158759895Y-71425499D01*
X158759898Y-71425499D01*
X158789213Y-71419669D01*
X158822457Y-71397457D01*
X158822457Y-71397455D01*
X158822459Y-71397455D01*
X158831094Y-71388821D01*
X158833688Y-71391415D01*
X158871003Y-71360227D01*
X158940327Y-71351515D01*
X159003357Y-71381666D01*
X159040080Y-71441107D01*
X159044500Y-71473920D01*
X159044500Y-72049902D01*
X159039203Y-72067939D01*
X159038903Y-72086734D01*
X159029564Y-72100767D01*
X159024815Y-72116941D01*
X159010609Y-72129250D01*
X159000194Y-72144901D01*
X158973282Y-72161593D01*
X158972011Y-72162696D01*
X158970202Y-72163505D01*
X158751693Y-72259103D01*
X158701991Y-72269500D01*
X158573983Y-72269500D01*
X158551584Y-72271909D01*
X158548303Y-72272441D01*
X158548255Y-72272146D01*
X158526341Y-72274500D01*
X158440106Y-72274500D01*
X158440096Y-72274501D01*
X158410787Y-72280330D01*
X158377542Y-72302542D01*
X158355332Y-72335785D01*
X158355329Y-72335791D01*
X158349500Y-72365098D01*
X158349500Y-72455355D01*
X158348238Y-72473002D01*
X158344500Y-72499000D01*
X158344500Y-73163201D01*
X158327734Y-73225466D01*
X157925532Y-73918147D01*
X157914893Y-73943697D01*
X157898129Y-74005953D01*
X157894500Y-74033390D01*
X157894500Y-74577331D01*
X157897636Y-74602847D01*
X157897638Y-74602857D01*
X157897639Y-74602865D01*
X157912178Y-74661125D01*
X157917649Y-74670914D01*
X157936710Y-74705021D01*
X157939145Y-74709377D01*
X157988019Y-74759308D01*
X158011865Y-74777560D01*
X158425528Y-75009211D01*
X158493712Y-75047394D01*
X158542586Y-75097325D01*
X158551500Y-75118661D01*
X159347122Y-77669330D01*
X159349311Y-77675640D01*
X159354885Y-77690210D01*
X159359897Y-77698576D01*
X159375138Y-77738105D01*
X159380330Y-77764212D01*
X159402542Y-77797457D01*
X159407097Y-77800500D01*
X159435787Y-77819669D01*
X159465101Y-77825500D01*
X159522566Y-77825499D01*
X159540206Y-77826760D01*
X159566214Y-77830500D01*
X159566218Y-77830500D01*
X161051000Y-77830500D01*
X161073427Y-77828089D01*
X161073432Y-77828087D01*
X161073440Y-77828087D01*
X161076702Y-77827559D01*
X161076749Y-77827854D01*
X161098666Y-77825499D01*
X161184895Y-77825499D01*
X161184898Y-77825499D01*
X161214213Y-77819669D01*
X161247457Y-77797457D01*
X161269669Y-77764213D01*
X161275500Y-77734899D01*
X161275499Y-77644647D01*
X161276760Y-77627007D01*
X161280500Y-77601000D01*
X161280500Y-77170308D01*
X161280279Y-77163487D01*
X161279242Y-77147482D01*
X161275499Y-77132178D01*
X161275499Y-77115102D01*
X161269669Y-77085787D01*
X161247457Y-77052543D01*
X161243141Y-77049659D01*
X161242333Y-77047825D01*
X161226438Y-77022349D01*
X160895558Y-76630020D01*
X160782533Y-76496004D01*
X160754360Y-76432066D01*
X160753386Y-76412094D01*
X160825000Y-74175000D01*
X160821228Y-74170390D01*
X160797425Y-74123965D01*
X160780021Y-74059011D01*
X160749392Y-74005959D01*
X160740464Y-73990495D01*
X160740458Y-73990487D01*
X160684512Y-73934541D01*
X160684507Y-73934537D01*
X160615992Y-73894980D01*
X160615985Y-73894977D01*
X160585632Y-73886844D01*
X160555761Y-73874477D01*
X160226504Y-73684521D01*
X160076867Y-73598192D01*
X160028637Y-73547641D01*
X160015392Y-73479039D01*
X160027473Y-73436246D01*
X160031539Y-73427943D01*
X160031538Y-73427943D01*
X160031541Y-73427939D01*
X160049526Y-73366689D01*
X160051224Y-73360907D01*
X160051224Y-73360906D01*
X160051226Y-73360900D01*
X160055500Y-73331176D01*
X160055500Y-70470545D01*
X160054081Y-70453299D01*
X160047454Y-70413305D01*
X160043235Y-70396524D01*
X159384694Y-68463853D01*
X159381705Y-68394048D01*
X159416930Y-68333708D01*
X159434322Y-68320003D01*
X160526376Y-67607759D01*
X160593278Y-67587626D01*
X160619641Y-67590279D01*
X160633617Y-67593219D01*
X160635787Y-67594669D01*
X160665101Y-67600500D01*
X160668221Y-67600499D01*
X160668382Y-67600532D01*
X160670740Y-67601226D01*
X160700464Y-67605500D01*
X160700468Y-67605500D01*
X161226000Y-67605500D01*
X161248427Y-67603089D01*
X161248432Y-67603087D01*
X161248440Y-67603087D01*
X161251702Y-67602559D01*
X161251704Y-67602572D01*
X161257786Y-67601520D01*
X161265693Y-67600499D01*
X161284898Y-67600499D01*
X161314213Y-67594669D01*
X161315020Y-67594129D01*
X161324620Y-67592890D01*
X161355139Y-67597726D01*
X161385904Y-67600481D01*
X161389335Y-67603146D01*
X161393629Y-67603827D01*
X161416685Y-67624393D01*
X161441080Y-67643345D01*
X161442525Y-67647444D01*
X161445769Y-67650337D01*
X161454045Y-67680102D01*
X161464322Y-67709236D01*
X161464500Y-67715869D01*
X161464500Y-70993075D01*
X161464500Y-71056925D01*
X161488935Y-71115916D01*
X164738935Y-74365916D01*
X164784084Y-74411065D01*
X164843075Y-74435500D01*
X165469926Y-74435500D01*
X165536965Y-74455185D01*
X165577421Y-74497689D01*
X165673890Y-74665460D01*
X166012304Y-75254007D01*
X166028657Y-75321936D01*
X166005688Y-75387922D01*
X165990443Y-75402704D01*
X165991739Y-75404000D01*
X165587637Y-75808101D01*
X165587636Y-75808102D01*
X165549500Y-75900170D01*
X165549500Y-77499829D01*
X165587636Y-77591897D01*
X165913181Y-77917442D01*
X165946666Y-77978765D01*
X165949500Y-78005123D01*
X165949500Y-80869877D01*
X165929815Y-80936916D01*
X165913181Y-80957558D01*
X164858102Y-82012637D01*
X164807556Y-82063182D01*
X164746233Y-82096666D01*
X164719876Y-82099500D01*
X164466739Y-82099500D01*
X164398608Y-82109426D01*
X164293514Y-82160803D01*
X164210803Y-82243514D01*
X164159426Y-82348608D01*
X164149500Y-82416739D01*
X164149500Y-83983260D01*
X164159426Y-84051391D01*
X164210803Y-84156485D01*
X164293514Y-84239196D01*
X164293515Y-84239196D01*
X164293517Y-84239198D01*
X164398607Y-84290573D01*
X164432673Y-84295536D01*
X164466739Y-84300500D01*
X164466740Y-84300500D01*
X165533261Y-84300500D01*
X165555971Y-84297191D01*
X165601393Y-84290573D01*
X165706483Y-84239198D01*
X165789198Y-84156483D01*
X165840573Y-84051393D01*
X165850500Y-83983260D01*
X165850500Y-82416740D01*
X165840573Y-82348607D01*
X165789198Y-82243517D01*
X165789196Y-82243515D01*
X165789196Y-82243514D01*
X165706485Y-82160803D01*
X165706483Y-82160802D01*
X165669056Y-82142505D01*
X165617475Y-82095378D01*
X165599560Y-82027844D01*
X165621001Y-81961345D01*
X165635831Y-81943429D01*
X166412364Y-81166897D01*
X166450500Y-81074828D01*
X166450500Y-80975173D01*
X166450500Y-79066328D01*
X166460607Y-79017294D01*
X167472523Y-76666892D01*
X167498735Y-76628245D01*
X167514715Y-76612265D01*
X167561065Y-76565916D01*
X167585500Y-76506925D01*
X167585500Y-76443075D01*
X167585500Y-75393075D01*
X167561065Y-75334084D01*
X167515916Y-75288935D01*
X166365916Y-74138935D01*
X166357474Y-74135438D01*
X166311476Y-74116384D01*
X166298167Y-74109915D01*
X165450967Y-73633657D01*
X165306339Y-73552353D01*
X165268721Y-73519741D01*
X165265463Y-73515495D01*
X165265460Y-73515489D01*
X165209511Y-73459540D01*
X165209508Y-73459538D01*
X165209504Y-73459535D01*
X165140995Y-73419982D01*
X165140990Y-73419979D01*
X165064559Y-73399499D01*
X165056503Y-73398439D01*
X165056714Y-73396834D01*
X165051894Y-73395572D01*
X165039047Y-73396332D01*
X165006135Y-73383592D01*
X164859834Y-73301347D01*
X164832920Y-73280939D01*
X164046819Y-72494838D01*
X164013334Y-72433515D01*
X164010500Y-72407157D01*
X164010500Y-70727438D01*
X167149500Y-70727438D01*
X167149500Y-70806562D01*
X167163152Y-70857513D01*
X167169979Y-70882990D01*
X167169982Y-70882995D01*
X167209535Y-70951504D01*
X167209539Y-70951509D01*
X167209540Y-70951511D01*
X167265489Y-71007460D01*
X167265491Y-71007461D01*
X167265495Y-71007464D01*
X167311473Y-71034009D01*
X167334011Y-71047021D01*
X167410438Y-71067500D01*
X167410440Y-71067500D01*
X167489560Y-71067500D01*
X167489562Y-71067500D01*
X167565989Y-71047021D01*
X167634511Y-71007460D01*
X167690460Y-70951511D01*
X167730021Y-70882989D01*
X167750500Y-70806562D01*
X167750500Y-70727438D01*
X167730021Y-70651011D01*
X167730017Y-70651004D01*
X167690464Y-70582495D01*
X167690458Y-70582487D01*
X167634512Y-70526541D01*
X167634504Y-70526535D01*
X167565995Y-70486982D01*
X167565990Y-70486979D01*
X167540513Y-70480152D01*
X167489562Y-70466500D01*
X167410438Y-70466500D01*
X167372224Y-70476739D01*
X167334009Y-70486979D01*
X167334004Y-70486982D01*
X167265495Y-70526535D01*
X167265487Y-70526541D01*
X167209541Y-70582487D01*
X167209535Y-70582495D01*
X167169982Y-70651004D01*
X167169979Y-70651009D01*
X167169742Y-70651895D01*
X167149500Y-70727438D01*
X164010500Y-70727438D01*
X164010500Y-69955544D01*
X164030185Y-69888505D01*
X164082989Y-69842750D01*
X164152147Y-69832806D01*
X164215703Y-69861831D01*
X164222181Y-69867863D01*
X164293514Y-69939196D01*
X164293515Y-69939196D01*
X164293517Y-69939198D01*
X164398607Y-69990573D01*
X164432673Y-69995536D01*
X164466739Y-70000500D01*
X164466740Y-70000500D01*
X165533261Y-70000500D01*
X165555971Y-69997191D01*
X165601393Y-69990573D01*
X165706483Y-69939198D01*
X165789198Y-69856483D01*
X165840573Y-69751393D01*
X165850500Y-69683260D01*
X165850500Y-68535438D01*
X166849500Y-68535438D01*
X166849500Y-68614562D01*
X166856582Y-68640990D01*
X166869979Y-68690990D01*
X166869982Y-68690995D01*
X166909535Y-68759504D01*
X166909539Y-68759509D01*
X166909540Y-68759511D01*
X166965489Y-68815460D01*
X166965491Y-68815461D01*
X166965495Y-68815464D01*
X167034004Y-68855017D01*
X167034011Y-68855021D01*
X167110438Y-68875500D01*
X167110440Y-68875500D01*
X167189560Y-68875500D01*
X167189562Y-68875500D01*
X167265989Y-68855021D01*
X167334511Y-68815460D01*
X167390460Y-68759511D01*
X167430021Y-68690989D01*
X167450500Y-68614562D01*
X167450500Y-68535438D01*
X167430021Y-68459011D01*
X167407240Y-68419553D01*
X167390464Y-68390495D01*
X167390458Y-68390487D01*
X167334512Y-68334541D01*
X167334504Y-68334535D01*
X167265992Y-68294980D01*
X167265993Y-68294980D01*
X167249117Y-68290458D01*
X167189562Y-68274500D01*
X167110438Y-68274500D01*
X167072969Y-68284540D01*
X167034009Y-68294979D01*
X167034004Y-68294982D01*
X166965495Y-68334535D01*
X166965487Y-68334541D01*
X166909541Y-68390487D01*
X166909535Y-68390495D01*
X166869982Y-68459004D01*
X166869979Y-68459009D01*
X166859665Y-68497502D01*
X166849500Y-68535438D01*
X165850500Y-68535438D01*
X165850500Y-68190438D01*
X168249500Y-68190438D01*
X168249500Y-68269562D01*
X168257590Y-68299752D01*
X168269979Y-68345990D01*
X168269982Y-68345995D01*
X168309535Y-68414504D01*
X168309539Y-68414509D01*
X168309540Y-68414511D01*
X168365489Y-68470460D01*
X168365491Y-68470461D01*
X168365495Y-68470464D01*
X168412327Y-68497502D01*
X168434011Y-68510021D01*
X168510438Y-68530500D01*
X168510440Y-68530500D01*
X168589560Y-68530500D01*
X168589562Y-68530500D01*
X168665989Y-68510021D01*
X168734511Y-68470460D01*
X168790460Y-68414511D01*
X168830021Y-68345989D01*
X168850500Y-68269562D01*
X168850500Y-68190438D01*
X168830752Y-68116739D01*
X169149500Y-68116739D01*
X169149500Y-69683260D01*
X169159426Y-69751391D01*
X169210803Y-69856485D01*
X169293514Y-69939196D01*
X169293515Y-69939196D01*
X169293517Y-69939198D01*
X169398607Y-69990573D01*
X169432673Y-69995536D01*
X169466739Y-70000500D01*
X169466740Y-70000500D01*
X169625500Y-70000500D01*
X169692539Y-70020185D01*
X169738294Y-70072989D01*
X169749500Y-70124500D01*
X169749500Y-81975500D01*
X169729815Y-82042539D01*
X169677011Y-82088294D01*
X169625500Y-82099500D01*
X169466739Y-82099500D01*
X169398608Y-82109426D01*
X169293514Y-82160803D01*
X169210803Y-82243514D01*
X169159426Y-82348608D01*
X169149500Y-82416739D01*
X169149500Y-83983260D01*
X169159426Y-84051391D01*
X169210803Y-84156485D01*
X169293514Y-84239196D01*
X169293515Y-84239196D01*
X169293517Y-84239198D01*
X169398607Y-84290573D01*
X169432673Y-84295536D01*
X169466739Y-84300500D01*
X169466740Y-84300500D01*
X170533261Y-84300500D01*
X170555971Y-84297191D01*
X170601393Y-84290573D01*
X170706483Y-84239198D01*
X170789198Y-84156483D01*
X170840573Y-84051393D01*
X170850500Y-83983260D01*
X170850500Y-82416740D01*
X170840573Y-82348607D01*
X170789198Y-82243517D01*
X170789196Y-82243515D01*
X170789196Y-82243514D01*
X170706485Y-82160803D01*
X170601391Y-82109426D01*
X170533261Y-82099500D01*
X170533260Y-82099500D01*
X170374500Y-82099500D01*
X170307461Y-82079815D01*
X170261706Y-82027011D01*
X170250500Y-81975500D01*
X170250500Y-77860438D01*
X177274500Y-77860438D01*
X177274500Y-77939562D01*
X177278305Y-77953761D01*
X177294979Y-78015990D01*
X177294982Y-78015995D01*
X177334535Y-78084504D01*
X177334539Y-78084509D01*
X177334540Y-78084511D01*
X177390489Y-78140460D01*
X177390491Y-78140461D01*
X177390495Y-78140464D01*
X177454802Y-78177591D01*
X177459011Y-78180021D01*
X177535438Y-78200500D01*
X177535440Y-78200500D01*
X177614560Y-78200500D01*
X177614562Y-78200500D01*
X177690989Y-78180021D01*
X177692596Y-78179092D01*
X177694123Y-78178722D01*
X177698499Y-78176910D01*
X177698781Y-78177591D01*
X177760490Y-78162615D01*
X177826520Y-78185460D01*
X177865375Y-78234262D01*
X177865915Y-78233951D01*
X177867991Y-78237547D01*
X177869163Y-78239019D01*
X177869980Y-78240993D01*
X177909535Y-78309504D01*
X177909539Y-78309509D01*
X177909540Y-78309511D01*
X177965489Y-78365460D01*
X177965491Y-78365461D01*
X177965495Y-78365464D01*
X178021131Y-78397585D01*
X178034011Y-78405021D01*
X178110438Y-78425500D01*
X178110440Y-78425500D01*
X178189560Y-78425500D01*
X178189562Y-78425500D01*
X178265989Y-78405021D01*
X178334511Y-78365460D01*
X178390460Y-78309511D01*
X178430021Y-78240989D01*
X178450500Y-78164562D01*
X178450500Y-78085438D01*
X178430021Y-78009011D01*
X178427776Y-78005123D01*
X178390464Y-77940495D01*
X178390458Y-77940487D01*
X178334512Y-77884541D01*
X178334507Y-77884537D01*
X178319721Y-77876001D01*
X178271504Y-77825435D01*
X178258280Y-77756828D01*
X178284247Y-77691963D01*
X178287890Y-77687858D01*
X178290454Y-77684516D01*
X178290460Y-77684511D01*
X178330021Y-77615989D01*
X178350500Y-77539562D01*
X178350500Y-77460438D01*
X178330021Y-77384011D01*
X178304544Y-77339883D01*
X178290464Y-77315495D01*
X178290458Y-77315487D01*
X178234512Y-77259541D01*
X178234504Y-77259535D01*
X178165995Y-77219982D01*
X178165990Y-77219979D01*
X178140513Y-77213152D01*
X178089562Y-77199500D01*
X178010438Y-77199500D01*
X177972224Y-77209739D01*
X177934009Y-77219979D01*
X177934004Y-77219982D01*
X177865495Y-77259535D01*
X177865487Y-77259541D01*
X177809541Y-77315487D01*
X177809535Y-77315495D01*
X177769982Y-77384004D01*
X177769979Y-77384009D01*
X177749500Y-77460439D01*
X177749500Y-77475869D01*
X177729815Y-77542908D01*
X177677011Y-77588663D01*
X177622690Y-77596812D01*
X177622690Y-77599500D01*
X177614562Y-77599500D01*
X177535438Y-77599500D01*
X177497224Y-77609739D01*
X177459009Y-77619979D01*
X177459004Y-77619982D01*
X177390495Y-77659535D01*
X177390487Y-77659541D01*
X177334541Y-77715487D01*
X177334535Y-77715495D01*
X177294982Y-77784004D01*
X177294979Y-77784009D01*
X177285425Y-77819667D01*
X177274500Y-77860438D01*
X170250500Y-77860438D01*
X170250500Y-77305846D01*
X170270185Y-77238807D01*
X170322989Y-77193052D01*
X170392147Y-77183108D01*
X170406583Y-77186069D01*
X170460438Y-77200500D01*
X170460439Y-77200500D01*
X170539560Y-77200500D01*
X170539562Y-77200500D01*
X170615989Y-77180021D01*
X170684511Y-77140460D01*
X170740460Y-77084511D01*
X170780021Y-77015989D01*
X170800500Y-76939562D01*
X170800500Y-76860438D01*
X170780021Y-76784011D01*
X170749500Y-76731146D01*
X170740464Y-76715495D01*
X170740458Y-76715487D01*
X170684512Y-76659541D01*
X170684504Y-76659535D01*
X170615995Y-76619982D01*
X170615990Y-76619979D01*
X170590513Y-76613152D01*
X170539562Y-76599500D01*
X170460438Y-76599500D01*
X170406593Y-76613927D01*
X170336744Y-76612265D01*
X170278881Y-76573103D01*
X170251377Y-76508874D01*
X170250500Y-76494153D01*
X170250500Y-76085438D01*
X175974500Y-76085438D01*
X175974500Y-76164562D01*
X175988152Y-76215513D01*
X175994979Y-76240990D01*
X175994982Y-76240995D01*
X176034535Y-76309504D01*
X176034539Y-76309509D01*
X176034540Y-76309511D01*
X176090489Y-76365460D01*
X176090491Y-76365461D01*
X176090495Y-76365464D01*
X176132235Y-76389562D01*
X176159011Y-76405021D01*
X176235438Y-76425500D01*
X176235440Y-76425500D01*
X176314560Y-76425500D01*
X176314562Y-76425500D01*
X176390989Y-76405021D01*
X176459511Y-76365460D01*
X176515460Y-76309511D01*
X176555021Y-76240989D01*
X176575500Y-76164562D01*
X176575500Y-76085438D01*
X176555021Y-76009011D01*
X176516178Y-75941732D01*
X176515464Y-75940495D01*
X176515458Y-75940487D01*
X176459512Y-75884541D01*
X176459504Y-75884535D01*
X176390995Y-75844982D01*
X176390990Y-75844979D01*
X176351926Y-75834512D01*
X176314562Y-75824500D01*
X176235438Y-75824500D01*
X176198103Y-75834504D01*
X176159009Y-75844979D01*
X176159004Y-75844982D01*
X176090495Y-75884535D01*
X176090487Y-75884541D01*
X176034541Y-75940487D01*
X176034535Y-75940495D01*
X175994982Y-76009004D01*
X175994979Y-76009009D01*
X175984130Y-76049500D01*
X175974500Y-76085438D01*
X170250500Y-76085438D01*
X170250500Y-74372273D01*
X174889500Y-74372273D01*
X174889500Y-74477727D01*
X174916793Y-74579587D01*
X174969520Y-74670913D01*
X175044087Y-74745480D01*
X175135413Y-74798207D01*
X175237273Y-74825500D01*
X175237275Y-74825500D01*
X175342725Y-74825500D01*
X175342727Y-74825500D01*
X175444587Y-74798207D01*
X175535913Y-74745480D01*
X175610480Y-74670913D01*
X175663207Y-74579587D01*
X175690500Y-74477727D01*
X175690500Y-74385438D01*
X177674500Y-74385438D01*
X177674500Y-74464562D01*
X177678028Y-74477727D01*
X177694979Y-74540990D01*
X177694982Y-74540995D01*
X177734535Y-74609504D01*
X177734539Y-74609509D01*
X177734540Y-74609511D01*
X177790489Y-74665460D01*
X177790491Y-74665461D01*
X177790495Y-74665464D01*
X177859004Y-74705017D01*
X177859011Y-74705021D01*
X177935438Y-74725500D01*
X177935440Y-74725500D01*
X178014560Y-74725500D01*
X178014562Y-74725500D01*
X178090989Y-74705021D01*
X178159511Y-74665460D01*
X178215460Y-74609511D01*
X178255021Y-74540989D01*
X178275500Y-74464562D01*
X178275500Y-74385438D01*
X178255021Y-74309011D01*
X178232735Y-74270410D01*
X178215464Y-74240495D01*
X178215458Y-74240487D01*
X178159512Y-74184541D01*
X178159504Y-74184535D01*
X178090995Y-74144982D01*
X178090990Y-74144979D01*
X178055382Y-74135438D01*
X178014562Y-74124500D01*
X177935438Y-74124500D01*
X177897224Y-74134739D01*
X177859009Y-74144979D01*
X177859004Y-74144982D01*
X177790495Y-74184535D01*
X177790487Y-74184541D01*
X177734541Y-74240487D01*
X177734535Y-74240495D01*
X177694982Y-74309004D01*
X177694979Y-74309009D01*
X177694925Y-74309211D01*
X177674500Y-74385438D01*
X175690500Y-74385438D01*
X175690500Y-74372273D01*
X175663207Y-74270413D01*
X175610480Y-74179087D01*
X175535913Y-74104520D01*
X175444587Y-74051793D01*
X175342727Y-74024500D01*
X175237273Y-74024500D01*
X175135413Y-74051793D01*
X175135410Y-74051794D01*
X175044085Y-74104521D01*
X174969521Y-74179085D01*
X174916794Y-74270410D01*
X174916793Y-74270413D01*
X174889500Y-74372273D01*
X170250500Y-74372273D01*
X170250500Y-73485438D01*
X177724500Y-73485438D01*
X177724500Y-73564562D01*
X177733512Y-73598193D01*
X177744979Y-73640990D01*
X177744982Y-73640995D01*
X177784535Y-73709504D01*
X177784539Y-73709509D01*
X177784540Y-73709511D01*
X177840489Y-73765460D01*
X177840491Y-73765461D01*
X177840495Y-73765464D01*
X177909004Y-73805017D01*
X177909011Y-73805021D01*
X177985438Y-73825500D01*
X177985440Y-73825500D01*
X178064560Y-73825500D01*
X178064562Y-73825500D01*
X178140989Y-73805021D01*
X178209511Y-73765460D01*
X178265460Y-73709511D01*
X178305021Y-73640989D01*
X178325500Y-73564562D01*
X178325500Y-73485438D01*
X178305021Y-73409011D01*
X178290345Y-73383591D01*
X178265464Y-73340495D01*
X178265458Y-73340487D01*
X178209512Y-73284541D01*
X178209504Y-73284535D01*
X178140995Y-73244982D01*
X178140990Y-73244979D01*
X178103374Y-73234900D01*
X178064562Y-73224500D01*
X177985438Y-73224500D01*
X177947224Y-73234739D01*
X177909009Y-73244979D01*
X177909004Y-73244982D01*
X177840495Y-73284535D01*
X177840487Y-73284541D01*
X177784541Y-73340487D01*
X177784535Y-73340495D01*
X177744982Y-73409004D01*
X177744979Y-73409009D01*
X177739907Y-73427939D01*
X177724500Y-73485438D01*
X170250500Y-73485438D01*
X170250500Y-72185438D01*
X174699500Y-72185438D01*
X174699500Y-72264562D01*
X174703726Y-72280332D01*
X174719979Y-72340990D01*
X174719982Y-72340995D01*
X174759535Y-72409504D01*
X174759539Y-72409509D01*
X174759540Y-72409511D01*
X174815489Y-72465460D01*
X174815491Y-72465461D01*
X174815495Y-72465464D01*
X174866373Y-72494838D01*
X174884011Y-72505021D01*
X174960438Y-72525500D01*
X174960440Y-72525500D01*
X175039560Y-72525500D01*
X175039562Y-72525500D01*
X175115989Y-72505021D01*
X175184511Y-72465460D01*
X175240460Y-72409511D01*
X175280021Y-72340989D01*
X175300500Y-72264562D01*
X175300500Y-72185438D01*
X175280021Y-72109011D01*
X175275261Y-72100767D01*
X175240464Y-72040495D01*
X175240458Y-72040487D01*
X175184512Y-71984541D01*
X175184504Y-71984535D01*
X175115995Y-71944982D01*
X175115990Y-71944979D01*
X175090513Y-71938152D01*
X175039562Y-71924500D01*
X174960438Y-71924500D01*
X174922224Y-71934739D01*
X174884009Y-71944979D01*
X174884004Y-71944982D01*
X174815495Y-71984535D01*
X174815487Y-71984541D01*
X174759541Y-72040487D01*
X174759535Y-72040495D01*
X174719982Y-72109004D01*
X174719979Y-72109009D01*
X174710362Y-72144901D01*
X174699500Y-72185438D01*
X170250500Y-72185438D01*
X170250500Y-71785438D01*
X177074500Y-71785438D01*
X177074500Y-71864562D01*
X177088152Y-71915513D01*
X177094979Y-71940990D01*
X177094982Y-71940995D01*
X177134535Y-72009504D01*
X177134539Y-72009509D01*
X177134540Y-72009511D01*
X177190489Y-72065460D01*
X177190491Y-72065461D01*
X177190495Y-72065464D01*
X177251643Y-72100767D01*
X177259011Y-72105021D01*
X177335438Y-72125500D01*
X177335440Y-72125500D01*
X177414560Y-72125500D01*
X177414562Y-72125500D01*
X177490989Y-72105021D01*
X177559511Y-72065460D01*
X177615460Y-72009511D01*
X177655021Y-71940989D01*
X177675500Y-71864562D01*
X177675500Y-71785438D01*
X177655021Y-71709011D01*
X177655017Y-71709004D01*
X177615464Y-71640495D01*
X177615458Y-71640487D01*
X177559512Y-71584541D01*
X177559504Y-71584535D01*
X177490995Y-71544982D01*
X177490990Y-71544979D01*
X177465513Y-71538152D01*
X177414562Y-71524500D01*
X177335438Y-71524500D01*
X177297224Y-71534739D01*
X177259009Y-71544979D01*
X177259004Y-71544982D01*
X177190495Y-71584535D01*
X177190487Y-71584541D01*
X177134541Y-71640487D01*
X177134535Y-71640495D01*
X177094982Y-71709004D01*
X177094979Y-71709009D01*
X177081326Y-71759962D01*
X177074500Y-71785438D01*
X170250500Y-71785438D01*
X170250500Y-71110438D01*
X177724500Y-71110438D01*
X177724500Y-71189562D01*
X177727565Y-71201000D01*
X177744979Y-71265990D01*
X177744982Y-71265995D01*
X177784535Y-71334504D01*
X177784539Y-71334509D01*
X177784540Y-71334511D01*
X177840489Y-71390460D01*
X177840491Y-71390461D01*
X177840495Y-71390464D01*
X177901180Y-71425500D01*
X177909011Y-71430021D01*
X177985438Y-71450500D01*
X177985440Y-71450500D01*
X178064560Y-71450500D01*
X178064562Y-71450500D01*
X178140989Y-71430021D01*
X178209511Y-71390460D01*
X178265460Y-71334511D01*
X178305021Y-71265989D01*
X178325500Y-71189562D01*
X178325500Y-71110438D01*
X178305021Y-71034011D01*
X178281387Y-70993075D01*
X178265464Y-70965495D01*
X178265458Y-70965487D01*
X178209512Y-70909541D01*
X178209504Y-70909535D01*
X178140995Y-70869982D01*
X178140990Y-70869979D01*
X178115513Y-70863152D01*
X178064562Y-70849500D01*
X177985438Y-70849500D01*
X177947224Y-70859739D01*
X177909009Y-70869979D01*
X177909004Y-70869982D01*
X177840495Y-70909535D01*
X177840487Y-70909541D01*
X177784541Y-70965487D01*
X177784535Y-70965495D01*
X177744982Y-71034004D01*
X177744979Y-71034009D01*
X177741494Y-71047017D01*
X177724500Y-71110438D01*
X170250500Y-71110438D01*
X170250500Y-70124500D01*
X170270185Y-70057461D01*
X170322989Y-70011706D01*
X170374500Y-70000500D01*
X170533261Y-70000500D01*
X170555971Y-69997191D01*
X170601393Y-69990573D01*
X170706483Y-69939198D01*
X170789198Y-69856483D01*
X170840573Y-69751393D01*
X170850500Y-69683260D01*
X170850500Y-68116740D01*
X170850102Y-68114011D01*
X170840573Y-68048608D01*
X170840573Y-68048607D01*
X170789198Y-67943517D01*
X170789196Y-67943515D01*
X170789196Y-67943514D01*
X170706485Y-67860803D01*
X170601391Y-67809426D01*
X170533261Y-67799500D01*
X170533260Y-67799500D01*
X169466740Y-67799500D01*
X169466739Y-67799500D01*
X169398608Y-67809426D01*
X169293514Y-67860803D01*
X169210803Y-67943514D01*
X169159426Y-68048608D01*
X169149500Y-68116739D01*
X168830752Y-68116739D01*
X168830021Y-68114011D01*
X168819297Y-68095436D01*
X168790464Y-68045495D01*
X168790458Y-68045487D01*
X168734512Y-67989541D01*
X168734504Y-67989535D01*
X168665995Y-67949982D01*
X168665990Y-67949979D01*
X168640513Y-67943152D01*
X168589562Y-67929500D01*
X168510438Y-67929500D01*
X168472224Y-67939739D01*
X168434009Y-67949979D01*
X168434004Y-67949982D01*
X168365495Y-67989535D01*
X168365487Y-67989541D01*
X168309541Y-68045487D01*
X168309535Y-68045495D01*
X168269982Y-68114004D01*
X168269979Y-68114009D01*
X168261850Y-68144347D01*
X168249500Y-68190438D01*
X165850500Y-68190438D01*
X165850500Y-68116740D01*
X165850102Y-68114011D01*
X165840573Y-68048608D01*
X165840573Y-68048607D01*
X165789198Y-67943517D01*
X165789196Y-67943515D01*
X165789196Y-67943514D01*
X165706484Y-67860802D01*
X165665812Y-67840918D01*
X165665805Y-67840916D01*
X165601393Y-67809427D01*
X165533260Y-67799500D01*
X164466740Y-67799500D01*
X164466739Y-67799500D01*
X164398608Y-67809426D01*
X164293514Y-67860803D01*
X164210803Y-67943514D01*
X164159426Y-68048608D01*
X164152603Y-68095436D01*
X164123458Y-68158936D01*
X164064608Y-68196599D01*
X163994738Y-68196467D01*
X163942218Y-68165237D01*
X163671819Y-67894838D01*
X163657115Y-67867910D01*
X163640523Y-67842092D01*
X163639631Y-67835891D01*
X163638334Y-67833515D01*
X163635500Y-67807157D01*
X163635500Y-67724499D01*
X163655185Y-67657460D01*
X163707989Y-67611705D01*
X163759500Y-67600499D01*
X163784895Y-67600499D01*
X163784898Y-67600499D01*
X163814213Y-67594669D01*
X163847457Y-67572457D01*
X163869669Y-67539213D01*
X163875500Y-67509899D01*
X163875499Y-65790102D01*
X163875498Y-65790098D01*
X165574500Y-65790098D01*
X165574500Y-67509894D01*
X165574501Y-67509902D01*
X165580330Y-67539212D01*
X165597215Y-67564484D01*
X165597216Y-67564484D01*
X165602543Y-67572457D01*
X165635787Y-67594669D01*
X165665101Y-67600500D01*
X166284898Y-67600499D01*
X166314213Y-67594669D01*
X166314217Y-67594665D01*
X166325497Y-67589995D01*
X166326987Y-67593593D01*
X166372629Y-67579288D01*
X166380035Y-67579375D01*
X166467653Y-67583026D01*
X166913125Y-67601589D01*
X166924323Y-67600499D01*
X167534898Y-67600499D01*
X167564213Y-67594669D01*
X167597457Y-67572457D01*
X167619669Y-67539213D01*
X167625500Y-67509899D01*
X167625499Y-66655122D01*
X167645183Y-66588084D01*
X167661818Y-66567442D01*
X168042442Y-66186819D01*
X168103765Y-66153334D01*
X168130123Y-66150500D01*
X169944877Y-66150500D01*
X170011916Y-66170185D01*
X170032558Y-66186819D01*
X172406202Y-68560462D01*
X172438295Y-68616046D01*
X172444978Y-68640987D01*
X172444982Y-68640995D01*
X172484535Y-68709504D01*
X172484539Y-68709509D01*
X172484540Y-68709511D01*
X172540489Y-68765460D01*
X172540491Y-68765461D01*
X172540495Y-68765464D01*
X172609004Y-68805017D01*
X172609011Y-68805021D01*
X172685438Y-68825500D01*
X172685440Y-68825500D01*
X172764560Y-68825500D01*
X172764562Y-68825500D01*
X172840989Y-68805021D01*
X172909511Y-68765460D01*
X172965460Y-68709511D01*
X173005021Y-68640989D01*
X173025500Y-68564562D01*
X173025500Y-68485438D01*
X173025499Y-68485437D01*
X173024439Y-68477381D01*
X173026128Y-68477158D01*
X173027557Y-68417065D01*
X173066719Y-68359202D01*
X173130947Y-68331697D01*
X173177763Y-68335045D01*
X173235438Y-68350500D01*
X173235439Y-68350500D01*
X173314560Y-68350500D01*
X173314562Y-68350500D01*
X173390989Y-68330021D01*
X173459511Y-68290460D01*
X173515460Y-68234511D01*
X173555021Y-68165989D01*
X173575500Y-68089562D01*
X173575500Y-68010438D01*
X173555021Y-67934011D01*
X173535385Y-67900000D01*
X173515464Y-67865495D01*
X173515458Y-67865487D01*
X173459512Y-67809541D01*
X173459504Y-67809535D01*
X173390995Y-67769982D01*
X173390987Y-67769978D01*
X173366046Y-67763295D01*
X173310462Y-67731202D01*
X172146702Y-66567442D01*
X170716897Y-65137636D01*
X170624829Y-65099500D01*
X170624828Y-65099500D01*
X168273411Y-65099500D01*
X168206372Y-65079815D01*
X168176888Y-65053341D01*
X167731425Y-64500966D01*
X167720561Y-64485125D01*
X167706343Y-64460500D01*
X167690460Y-64432989D01*
X167634511Y-64377040D01*
X167634509Y-64377039D01*
X167634504Y-64377035D01*
X167565995Y-64337482D01*
X167565990Y-64337479D01*
X167540513Y-64330652D01*
X167489562Y-64317000D01*
X167410438Y-64317000D01*
X167372224Y-64327239D01*
X167334009Y-64337479D01*
X167334004Y-64337482D01*
X167265488Y-64377039D01*
X167248110Y-64394417D01*
X167212075Y-64419468D01*
X167200000Y-64424999D01*
X166586161Y-65061573D01*
X166525456Y-65096167D01*
X166496900Y-65099500D01*
X166225170Y-65099500D01*
X166133102Y-65137636D01*
X165762636Y-65508102D01*
X165724499Y-65600174D01*
X165722539Y-65610028D01*
X165690154Y-65671939D01*
X165645668Y-65697270D01*
X165647071Y-65700657D01*
X165635788Y-65705330D01*
X165602542Y-65727542D01*
X165580332Y-65760785D01*
X165580329Y-65760791D01*
X165574500Y-65790098D01*
X163875498Y-65790098D01*
X163869669Y-65760787D01*
X163850114Y-65731519D01*
X163847457Y-65727542D01*
X163814214Y-65705332D01*
X163814215Y-65705332D01*
X163814213Y-65705331D01*
X163814211Y-65705330D01*
X163814208Y-65705329D01*
X163784901Y-65699500D01*
X163165105Y-65699500D01*
X163165097Y-65699501D01*
X163135787Y-65705330D01*
X163102542Y-65727542D01*
X163080332Y-65760785D01*
X163080329Y-65760791D01*
X163074500Y-65790098D01*
X163074500Y-67509894D01*
X163074501Y-67509902D01*
X163080330Y-67539212D01*
X163102542Y-67572457D01*
X163112898Y-67579376D01*
X163135787Y-67594669D01*
X163135790Y-67594669D01*
X163135791Y-67594670D01*
X163150444Y-67597584D01*
X163165101Y-67600500D01*
X163190498Y-67600499D01*
X163257536Y-67620181D01*
X163303293Y-67672984D01*
X163314500Y-67724499D01*
X163314500Y-67893075D01*
X163314500Y-67956925D01*
X163338935Y-68015916D01*
X163338936Y-68015917D01*
X163653181Y-68330162D01*
X163686666Y-68391485D01*
X163689500Y-68417843D01*
X163689500Y-72563157D01*
X163669815Y-72630196D01*
X163617011Y-72675951D01*
X163547853Y-72685895D01*
X163484297Y-72656870D01*
X163477819Y-72650838D01*
X161821819Y-70994838D01*
X161788334Y-70933515D01*
X161785500Y-70907157D01*
X161785500Y-67724499D01*
X161805185Y-67657460D01*
X161857989Y-67611705D01*
X161909500Y-67600499D01*
X161915096Y-67600499D01*
X161915101Y-67600500D01*
X162534898Y-67600499D01*
X162564213Y-67594669D01*
X162597457Y-67572457D01*
X162619669Y-67539213D01*
X162625500Y-67509899D01*
X162625499Y-65790102D01*
X162619669Y-65760787D01*
X162600114Y-65731519D01*
X162597457Y-65727542D01*
X162564214Y-65705332D01*
X162564215Y-65705332D01*
X162564213Y-65705331D01*
X162564211Y-65705330D01*
X162564208Y-65705329D01*
X162534901Y-65699500D01*
X161909500Y-65699500D01*
X161842461Y-65679815D01*
X161796706Y-65627011D01*
X161785500Y-65575500D01*
X161785500Y-65243076D01*
X161785500Y-65243075D01*
X161761065Y-65184084D01*
X161715916Y-65138935D01*
X160740916Y-64163935D01*
X160681925Y-64139500D01*
X160030833Y-64139500D01*
X159963794Y-64119815D01*
X159943152Y-64103181D01*
X159909512Y-64069541D01*
X159909504Y-64069535D01*
X159840995Y-64029982D01*
X159840990Y-64029979D01*
X159815513Y-64023152D01*
X159764562Y-64009500D01*
X159685438Y-64009500D01*
X159647224Y-64019739D01*
X159609009Y-64029979D01*
X159609004Y-64029982D01*
X159540495Y-64069535D01*
X159540487Y-64069541D01*
X159484541Y-64125487D01*
X159484535Y-64125495D01*
X159444982Y-64194004D01*
X159444979Y-64194009D01*
X159431326Y-64244962D01*
X159424500Y-64270438D01*
X159424500Y-64349562D01*
X159431862Y-64377035D01*
X159444979Y-64425990D01*
X159444982Y-64425995D01*
X159484535Y-64494504D01*
X159484541Y-64494512D01*
X159522848Y-64532819D01*
X159556333Y-64594142D01*
X159551349Y-64663834D01*
X159509477Y-64719767D01*
X159444013Y-64744184D01*
X159435167Y-64744500D01*
X157785254Y-64744500D01*
X157767780Y-64745960D01*
X157767753Y-64745963D01*
X157767752Y-64745964D01*
X157727145Y-64752801D01*
X157683427Y-64770926D01*
X157683420Y-64770929D01*
X157626530Y-64811478D01*
X157604810Y-64832207D01*
X157118559Y-65451070D01*
X157115545Y-65455099D01*
X157108729Y-65464676D01*
X157093460Y-65496119D01*
X157093459Y-65496122D01*
X157073775Y-65563156D01*
X157069500Y-65592889D01*
X157069500Y-67447877D01*
X157071937Y-67470419D01*
X157083262Y-67522195D01*
X157083263Y-67522196D01*
X157090456Y-67543687D01*
X157090458Y-67543691D01*
X157221907Y-67829785D01*
X157232009Y-67898920D01*
X157208771Y-67955499D01*
X156718080Y-68616046D01*
X156607089Y-68765458D01*
X156600001Y-68774999D01*
X156599998Y-68775003D01*
X156531936Y-68956503D01*
X156512659Y-68990425D01*
X156325000Y-69224999D01*
X156325000Y-69498513D01*
X156324500Y-69506140D01*
X155700500Y-69506140D01*
X155700500Y-62224500D01*
X155720185Y-62157461D01*
X155772989Y-62111706D01*
X155824500Y-62100500D01*
X166292667Y-62100500D01*
X166359706Y-62120185D01*
G37*
%TD.AperFunction*%
%TD*%
M02*
