M48
; DRILL file {KiCad 9.0.6-rc1} date 2025-12-21T23:58:59+0100
; FORMAT={-:-/ absolute / metric / decimal}
; #@! TF.CreationDate,2025-12-21T23:58:59+01:00
; #@! TF.GenerationSoftware,Kicad,Pcbnew,9.0.6-rc1
; #@! TF.FileFunction,Plated,1,4,PTH
FMAT,2
METRIC
; #@! TA.AperFunction,Plated,PTH,ViaDrill
T1C0.300
; #@! TA.AperFunction,Plated,PTH,ComponentDrill
T2C0.400
; #@! TA.AperFunction,Plated,PTH,ComponentDrill
T3C2.200
%
G90
G05
T1
X156.0Y-62.425
X156.0Y-63.459
X156.0Y-64.493
X156.0Y-65.527
X156.0Y-66.561
X156.0Y-67.595
X156.0Y-68.629
X156.0Y-70.697
X156.0Y-71.731
X156.0Y-73.799
X156.0Y-74.833
X156.0Y-75.867
X156.0Y-76.901
X156.0Y-77.935
X156.0Y-78.969
X156.0Y-80.003
X156.0Y-81.037
X156.0Y-82.071
X156.0Y-83.105
X156.0Y-84.139
X156.0Y-88.275
X156.625Y-69.55
X156.85Y-68.075
X157.075Y-62.425
X157.625Y-81.0
X157.75Y-71.85
X157.825Y-77.175
X158.15Y-62.425
X158.35Y-63.1
X158.45Y-71.85
X158.475Y-66.225
X158.95Y-79.5
X159.0Y-78.025
X159.225Y-62.425
X159.725Y-64.31
X159.725Y-66.275
X159.725Y-66.975
X159.75Y-68.625
X159.8Y-74.175
X159.8Y-74.875
X160.0Y-63.4
X160.3Y-62.425
X160.3Y-88.275
X160.325Y-81.175
X160.35Y-70.65
X160.375Y-69.125
X160.375Y-73.475
X160.5Y-74.175
X160.5Y-74.875
X160.775Y-83.6
X160.975Y-66.275
X160.975Y-66.975
X161.075Y-68.275
X161.375Y-62.425
X161.375Y-88.275
X161.75Y-64.025
X161.8Y-76.75
X161.9Y-73.247
X162.075Y-70.825
X162.1Y-68.15
X162.225Y-66.625
X162.225Y-82.475
X162.45Y-62.425
X162.45Y-88.275
X162.5Y-86.55
X162.7Y-79.6
X163.13Y-76.35
X163.135Y-75.65
X163.15Y-76.95
X163.4Y-72.075
X163.525Y-62.425
X163.525Y-88.275
X164.15Y-87.075
X164.3Y-72.0
X164.375Y-85.775
X164.45Y-75.425
X164.6Y-62.425
X164.6Y-88.275
X164.65Y-68.55
X164.65Y-69.25
X164.725Y-66.275
X164.725Y-66.975
X164.9Y-85.05
X165.025Y-73.7
X165.05Y-72.825
X165.25Y-70.767
X165.35Y-68.55
X165.35Y-69.25
X165.55Y-84.85
X165.62Y-78.98
X165.62Y-80.48
X165.65Y-75.05
X165.675Y-62.425
X165.675Y-88.275
X166.175Y-87.85
X166.375Y-76.225
X166.593Y-62.525
X166.607Y-75.625
X166.725Y-64.15
X166.75Y-63.175
X166.75Y-88.275
X166.975Y-76.2
X167.12Y-78.98
X167.12Y-80.48
X167.12Y-81.98
X167.15Y-68.575
X167.45Y-64.617
X167.45Y-70.767
X167.825Y-88.275
X167.95Y-86.25
X168.225Y-66.75
X168.25Y-71.9
X168.3Y-74.325
X168.55Y-68.23
X168.62Y-78.98
X168.62Y-80.48
X168.62Y-81.98
X168.725Y-63.2
X168.725Y-63.9
X168.825Y-74.875
X168.9Y-62.425
X168.9Y-88.275
X169.05Y-87.0
X169.425Y-63.2
X169.425Y-63.9
X169.425Y-73.925
X169.975Y-62.425
X169.975Y-88.275
X170.5Y-76.9
X170.8Y-85.125
X170.8Y-86.108
X171.05Y-62.425
X171.05Y-71.9
X171.05Y-88.275
X171.1Y-76.375
X171.16Y-83.54
X171.175Y-77.275
X171.2Y-78.275
X171.225Y-79.075
X171.225Y-79.88
X171.225Y-80.68
X171.225Y-81.48
X171.325Y-82.65
X171.45Y-73.8
X171.542Y-85.15
X171.575Y-70.275
X171.65Y-81.075
X171.65Y-87.375
X171.675Y-74.717
X171.675Y-80.275
X171.7Y-78.7
X171.7Y-79.5
X171.875Y-81.675
X171.925Y-84.525
X172.125Y-62.425
X172.125Y-88.275
X172.325Y-63.2
X172.325Y-63.9
X172.357Y-85.15
X172.375Y-72.492
X172.6Y-73.742
X172.725Y-68.525
X172.75Y-84.03
X172.8Y-75.225
X172.97Y-82.26
X173.025Y-63.2
X173.025Y-63.9
X173.2Y-62.425
X173.2Y-88.275
X173.275Y-68.05
X173.4Y-84.03
X173.575Y-69.975
X173.65Y-87.075
X173.67Y-82.26
X173.675Y-85.325
X173.875Y-79.65
X174.05Y-84.03
X174.275Y-62.425
X174.275Y-88.275
X174.325Y-78.657
X174.37Y-82.26
X174.6Y-71.05
X174.635Y-80.225
X174.635Y-81.65
X174.7Y-68.3
X174.7Y-84.03
X175.0Y-72.225
X175.07Y-82.26
X175.225Y-86.2
X175.225Y-86.9
X175.225Y-87.6
X175.32Y-85.37
X175.34Y-84.65
X175.35Y-84.03
X175.35Y-88.275
X175.375Y-67.475
X175.66Y-81.93
X175.9Y-73.5
X176.0Y-84.03
X176.025Y-67.325
X176.175Y-69.65
X176.275Y-76.125
X176.425Y-88.275
X176.575Y-76.75
X176.925Y-76.025
X177.2Y-72.775
X177.22Y-83.35
X177.3Y-84.03
X177.375Y-71.825
X177.425Y-76.65
X177.5Y-88.275
X177.575Y-77.9
X177.975Y-74.425
X178.025Y-71.15
X178.025Y-73.525
X178.04Y-84.57
X178.05Y-77.5
X178.05Y-85.38
X178.15Y-78.125
X178.415Y-67.505
X178.425Y-68.925
X178.425Y-69.57
X178.5Y-75.36
X178.575Y-62.425
X178.575Y-66.561
X178.575Y-71.731
X178.575Y-72.765
X178.575Y-73.799
X178.575Y-78.969
X178.575Y-80.003
X178.575Y-81.037
X178.575Y-82.071
X178.575Y-83.105
X178.575Y-84.139
X178.575Y-85.173
X178.575Y-86.207
X178.575Y-87.241
X178.575Y-88.275
X178.6Y-70.325
T2
X156.65Y-86.125
X157.133Y-84.958
X157.133Y-87.292
X158.3Y-84.475
X158.3Y-87.775
X159.467Y-84.958
X159.467Y-87.292
X159.95Y-86.125
X174.675Y-64.65
X175.158Y-63.483
X175.158Y-65.817
X176.325Y-63.0
X176.325Y-66.3
X177.492Y-63.483
X177.492Y-65.817
X177.975Y-64.65
T3
X158.3Y-86.125
X176.325Y-64.65
M30
