%TF.GenerationSoftware,KiCad,Pcbnew,9.0.6-rc1*%
%TF.CreationDate,2025-12-21T23:59:12+01:00*%
%TF.ProjectId,PCB_PAPI,5043425f-5041-4504-992e-6b696361645f,rev?*%
%TF.SameCoordinates,Original*%
%TF.FileFunction,Copper,L3,Inr*%
%TF.FilePolarity,Positive*%
%FSLAX46Y46*%
G04 Gerber Fmt 4.6, Leading zero omitted, Abs format (unit mm)*
G04 Created by KiCad (PCBNEW 9.0.6-rc1) date 2025-12-21 23:59:12*
%MOMM*%
%LPD*%
G01*
G04 APERTURE LIST*
%TA.AperFunction,ComponentPad*%
%ADD10C,0.700000*%
%TD*%
%TA.AperFunction,ComponentPad*%
%ADD11C,4.400000*%
%TD*%
%TA.AperFunction,ViaPad*%
%ADD12C,0.400000*%
%TD*%
%TA.AperFunction,Conductor*%
%ADD13C,0.300000*%
%TD*%
%TA.AperFunction,Conductor*%
%ADD14C,0.120000*%
%TD*%
G04 APERTURE END LIST*
D10*
%TO.N,GND*%
%TO.C,H2*%
X156650000Y-86125000D03*
X157133274Y-84958274D03*
X157133274Y-87291726D03*
X158300000Y-84475000D03*
D11*
X158300000Y-86125000D03*
D10*
X158300000Y-87775000D03*
X159466726Y-84958274D03*
X159466726Y-87291726D03*
X159950000Y-86125000D03*
%TD*%
%TO.N,GND*%
%TO.C,H1*%
X174675000Y-64650000D03*
X175158274Y-63483274D03*
X175158274Y-65816726D03*
X176325000Y-63000000D03*
D11*
X176325000Y-64650000D03*
D10*
X176325000Y-66300000D03*
X177491726Y-63483274D03*
X177491726Y-65816726D03*
X177975000Y-64650000D03*
%TD*%
D12*
%TO.N,+3.3V*%
X178150000Y-78125000D03*
%TO.N,GND*%
X163150000Y-76950000D03*
X162075000Y-70825000D03*
X162100000Y-68150000D03*
X163400000Y-72075000D03*
X168225000Y-66750000D03*
X171325000Y-82650000D03*
X160375000Y-73475000D03*
X161800000Y-76750000D03*
X178415000Y-67505000D03*
X164450000Y-75425000D03*
X165650000Y-75050000D03*
X170800000Y-86107500D03*
X173650000Y-87075000D03*
X173675000Y-85325000D03*
X173875000Y-79650000D03*
X176575000Y-76750000D03*
X177425000Y-76650000D03*
X176925000Y-76025000D03*
X175900000Y-73500000D03*
X173575000Y-69975000D03*
X161900000Y-73247000D03*
X160375000Y-69125000D03*
X158950000Y-79500000D03*
X159000000Y-78025000D03*
X157825000Y-77175000D03*
X157625000Y-81000000D03*
X162225000Y-82475000D03*
X162700000Y-79600000D03*
X160325000Y-81175000D03*
X160775000Y-83600000D03*
X162500000Y-86550000D03*
X164150000Y-87075000D03*
X171650000Y-87375000D03*
X169050000Y-87000000D03*
X167950000Y-86250000D03*
X164375000Y-85775000D03*
X171450000Y-73800000D03*
X169425000Y-73925000D03*
X168250000Y-71900000D03*
X168300000Y-74325000D03*
X167120000Y-81980000D03*
X168620000Y-80480000D03*
X167120000Y-80480000D03*
X165620000Y-80480000D03*
X168620000Y-78980000D03*
X167120000Y-78980000D03*
X165620000Y-78980000D03*
X168620000Y-81980000D03*
X171175000Y-77275000D03*
X171100000Y-76375000D03*
X172800000Y-75225000D03*
X177200000Y-72775000D03*
X174700000Y-68300000D03*
X176175000Y-69650000D03*
X174600000Y-71050000D03*
X171575000Y-70275000D03*
X171050000Y-71900000D03*
X172375000Y-72492000D03*
X172600000Y-73742000D03*
X171675000Y-74717000D03*
X161075000Y-68275000D03*
X160350000Y-70650000D03*
X159750000Y-68625000D03*
X156850000Y-68075000D03*
X158350000Y-63100000D03*
X161750000Y-64025000D03*
X160000000Y-63400000D03*
X166725000Y-64150000D03*
X166750000Y-63175000D03*
X172325000Y-63900000D03*
X173025000Y-63200000D03*
X172325000Y-63200000D03*
X168725000Y-63900000D03*
X169425000Y-63200000D03*
X168725000Y-63200000D03*
X169425000Y-63900000D03*
X173025000Y-63900000D03*
X178575000Y-66561000D03*
X178575000Y-71731000D03*
X178575000Y-72765000D03*
X178575000Y-73799000D03*
X178575000Y-78969000D03*
X178575000Y-80003000D03*
X178575000Y-81037000D03*
X178575000Y-82071000D03*
X178575000Y-83105000D03*
X178575000Y-84139000D03*
X178575000Y-85173000D03*
X178575000Y-86207000D03*
X178575000Y-87241000D03*
X178575000Y-88275000D03*
X156000000Y-63459000D03*
X156000000Y-64493000D03*
X156000000Y-65527000D03*
X156000000Y-66561000D03*
X156000000Y-67595000D03*
X156000000Y-68629000D03*
X156000000Y-70697000D03*
X156000000Y-71731000D03*
X156000000Y-73799000D03*
X156000000Y-74833000D03*
X156000000Y-75867000D03*
X156000000Y-76901000D03*
X156000000Y-77935000D03*
X156000000Y-78969000D03*
X156000000Y-80003000D03*
X156000000Y-81037000D03*
X156000000Y-82071000D03*
X156000000Y-83105000D03*
X156000000Y-84139000D03*
X156000000Y-88275000D03*
X156000000Y-62425000D03*
X174275000Y-62425000D03*
X173200000Y-62425000D03*
X172125000Y-62425000D03*
X171050000Y-62425000D03*
X169975000Y-62425000D03*
X168900000Y-62425000D03*
X165675000Y-62425000D03*
X164600000Y-62425000D03*
X163525000Y-62425000D03*
X162450000Y-62425000D03*
X161375000Y-62425000D03*
X160300000Y-62425000D03*
X159225000Y-62425000D03*
X158150000Y-62425000D03*
X157075000Y-62425000D03*
X178575000Y-62425000D03*
X177500000Y-88275000D03*
X176425000Y-88275000D03*
X175350000Y-88275000D03*
X174275000Y-88275000D03*
X173200000Y-88275000D03*
X172125000Y-88275000D03*
X171050000Y-88275000D03*
X169975000Y-88275000D03*
X168900000Y-88275000D03*
X167825000Y-88275000D03*
X166750000Y-88275000D03*
X165675000Y-88275000D03*
X164600000Y-88275000D03*
X163525000Y-88275000D03*
X162450000Y-88275000D03*
X161375000Y-88275000D03*
X160300000Y-88275000D03*
%TO.N,Net-(U5-GPIO17)*%
X159725000Y-64310000D03*
X166375000Y-76225000D03*
%TO.N,GND*%
X165050000Y-72825000D03*
X164300000Y-72000000D03*
%TO.N,/LED_TIM*%
X165025000Y-73700000D03*
%TO.N,LDO_IN*%
X159725000Y-66275000D03*
X159725000Y-66975000D03*
%TO.N,GND*%
X158450000Y-71850000D03*
X177300000Y-84030000D03*
X173400000Y-84030000D03*
X175225000Y-86200000D03*
X172750000Y-84030000D03*
X174050000Y-84030000D03*
X175320000Y-85370000D03*
X164725000Y-66275000D03*
X164725000Y-66975000D03*
X178050000Y-85380000D03*
X178040000Y-84570000D03*
X172970000Y-82260000D03*
X174370000Y-82260000D03*
X175225000Y-86900000D03*
X157750000Y-71850000D03*
X175225000Y-87600000D03*
X173670000Y-82260000D03*
X165250000Y-70767000D03*
X175660000Y-81930000D03*
X171160000Y-83540000D03*
X175350000Y-84030000D03*
X175070000Y-82260000D03*
X168825000Y-74875000D03*
X175340000Y-84650000D03*
X174700000Y-84030000D03*
X177220000Y-83350000D03*
X176000000Y-84030000D03*
X171925000Y-84525000D03*
%TO.N,+3.3V*%
X175375000Y-67475000D03*
X176025000Y-67325000D03*
X159800000Y-74875000D03*
X178500000Y-75360000D03*
X164650000Y-68550000D03*
X165350000Y-68550000D03*
X166975000Y-76200000D03*
X177575000Y-77900000D03*
X160500000Y-74875000D03*
X159800000Y-74175000D03*
X166607500Y-75625000D03*
X171542500Y-85150000D03*
X167450000Y-70767000D03*
X167150000Y-68575000D03*
X178050000Y-77500000D03*
X170800000Y-85125000D03*
X165550000Y-84850000D03*
X164900000Y-85050000D03*
X174325000Y-78657500D03*
X164650000Y-69250000D03*
X168550000Y-68230000D03*
X165350000Y-69250000D03*
X160500000Y-74175000D03*
X162225000Y-66625000D03*
%TO.N,/HP+*%
X173275000Y-68050000D03*
%TO.N,/HP-*%
X172725000Y-68525000D03*
%TO.N,/D+*%
X163130000Y-76350000D03*
%TO.N,/D-*%
X163135000Y-75650000D03*
%TO.N,/max_bit_clk*%
X177375000Y-71825000D03*
X171225000Y-79075000D03*
%TO.N,/max_data*%
X178025000Y-71150000D03*
X171700000Y-79500000D03*
%TO.N,/max_frame_clk*%
X175000000Y-72225000D03*
X171700000Y-78700000D03*
%TO.N,VUSB*%
X158475000Y-66225000D03*
X166592500Y-62525000D03*
%TO.N,/mic_data*%
X177975000Y-74425000D03*
X171225000Y-80680000D03*
%TO.N,/mic_frame_sck*%
X178025000Y-73525000D03*
X171225000Y-79880000D03*
%TO.N,/mic_sck*%
X176275000Y-76125000D03*
X171650000Y-81075000D03*
%TO.N,Net-(IC6-~{SD_MODE})*%
X178425000Y-68925000D03*
%TO.N,/max_gpio*%
X178425000Y-69570000D03*
X171200000Y-78275000D03*
%TO.N,Net-(IC6-GAIN_SLOT)*%
X178600000Y-70325000D03*
%TO.N,/MAIN_BTN*%
X170500000Y-76900000D03*
%TO.N,BAT+*%
X160975000Y-66275000D03*
X160975000Y-66975000D03*
%TO.N,Net-(IC5-~{CHRG})*%
X156625000Y-69550000D03*
X167450000Y-64617500D03*
%TO.N,Net-(U5-GPIO0)*%
X171225000Y-81480000D03*
X172357500Y-85150000D03*
X166175000Y-87850000D03*
%TO.N,RESET*%
X171875000Y-81675000D03*
X174635000Y-81650000D03*
%TO.N,Net-(U5-GPIO3)*%
X171675000Y-80275000D03*
X174635000Y-80225000D03*
%TD*%
D13*
%TO.N,GND*%
X178415000Y-67735000D02*
X178415000Y-67505000D01*
X176500000Y-69650000D02*
X178415000Y-67735000D01*
X176175000Y-69650000D02*
X176500000Y-69650000D01*
X176000000Y-69650000D02*
X176175000Y-69650000D01*
X174600000Y-71050000D02*
X176000000Y-69650000D01*
X173158000Y-72492000D02*
X174600000Y-71050000D01*
X172375000Y-72492000D02*
X173158000Y-72492000D01*
X172600000Y-72717000D02*
X172375000Y-72492000D01*
X172600000Y-73742000D02*
X172600000Y-72717000D01*
X172800000Y-73942000D02*
X172600000Y-73742000D01*
X172800000Y-75225000D02*
X172800000Y-73942000D01*
X172800000Y-76050000D02*
X172800000Y-75225000D01*
X171575000Y-77275000D02*
X172800000Y-76050000D01*
X171175000Y-77275000D02*
X171575000Y-77275000D01*
X168620000Y-81980000D02*
X170450000Y-80150000D01*
X170450000Y-80150000D02*
X170450000Y-78000000D01*
X170450000Y-78000000D02*
X171175000Y-77275000D01*
X176450000Y-81140000D02*
X175660000Y-81930000D01*
X176450000Y-76875000D02*
X176450000Y-81140000D01*
X176575000Y-76750000D02*
X176450000Y-76875000D01*
D14*
%TO.N,Net-(U5-GPIO0)*%
X172450000Y-85242500D02*
X172357500Y-85150000D01*
X170350000Y-87800000D02*
X172450000Y-85700000D01*
X166175000Y-87850000D02*
X166225000Y-87800000D01*
X166225000Y-87800000D02*
X170350000Y-87800000D01*
X172450000Y-85700000D02*
X172450000Y-85242500D01*
%TO.N,Net-(IC5-~{CHRG})*%
X167450000Y-64100000D02*
X167450000Y-64617500D01*
X163875000Y-63600000D02*
X166950000Y-63600000D01*
X161675000Y-67300000D02*
X161675000Y-65800000D01*
X161275000Y-67700000D02*
X161675000Y-67300000D01*
X158050000Y-67700000D02*
X161275000Y-67700000D01*
X161675000Y-65800000D02*
X163875000Y-63600000D01*
X156625000Y-69125000D02*
X158050000Y-67700000D01*
X166950000Y-63600000D02*
X167450000Y-64100000D01*
X156625000Y-69550000D02*
X156625000Y-69125000D01*
%TO.N,RESET*%
X171875000Y-81675000D02*
X171900000Y-81650000D01*
X171900000Y-81650000D02*
X174635000Y-81650000D01*
%TO.N,/max_gpio*%
X173250000Y-76600000D02*
X171575000Y-78275000D01*
X175925000Y-70500000D02*
X173250000Y-73175000D01*
X176925000Y-70500000D02*
X175925000Y-70500000D01*
X173250000Y-73175000D02*
X173250000Y-76600000D01*
X177855000Y-69570000D02*
X176925000Y-70500000D01*
X171575000Y-78275000D02*
X171200000Y-78275000D01*
X178425000Y-69570000D02*
X177855000Y-69570000D01*
%TO.N,VUSB*%
X165925000Y-62950000D02*
X159750000Y-62950000D01*
X158475000Y-64225000D02*
X158475000Y-66225000D01*
X166350000Y-62525000D02*
X165925000Y-62950000D01*
X166592500Y-62525000D02*
X166350000Y-62525000D01*
X159750000Y-62950000D02*
X158475000Y-64225000D01*
%TO.N,/max_data*%
X172100000Y-79500000D02*
X171700000Y-79500000D01*
X174600000Y-77000000D02*
X172100000Y-79500000D01*
X174600000Y-74175000D02*
X174600000Y-77000000D01*
X177675000Y-72375000D02*
X176400000Y-72375000D01*
X178025000Y-72025000D02*
X177675000Y-72375000D01*
X178025000Y-71150000D02*
X178025000Y-72025000D01*
X176400000Y-72375000D02*
X174600000Y-74175000D01*
%TO.N,/max_bit_clk*%
X174200000Y-76825000D02*
X171950000Y-79075000D01*
X174200000Y-73775000D02*
X174200000Y-76825000D01*
X176150000Y-71825000D02*
X174200000Y-73775000D01*
X177375000Y-71825000D02*
X176150000Y-71825000D01*
X171950000Y-79075000D02*
X171225000Y-79075000D01*
%TO.N,/max_frame_clk*%
X173725000Y-76675000D02*
X173725000Y-73500000D01*
X173725000Y-73500000D02*
X175000000Y-72225000D01*
X171700000Y-78700000D02*
X173725000Y-76675000D01*
%TO.N,VUSB*%
X166592500Y-62525000D02*
X166567500Y-62550000D01*
%TO.N,/mic_data*%
X174895000Y-80680000D02*
X175450000Y-80125000D01*
X177125000Y-74425000D02*
X177975000Y-74425000D01*
X175450000Y-80125000D02*
X175450000Y-76100000D01*
X175450000Y-76100000D02*
X177125000Y-74425000D01*
X171225000Y-80680000D02*
X174895000Y-80680000D01*
%TO.N,/mic_frame_sck*%
X177200000Y-73525000D02*
X175050000Y-75675000D01*
X175050000Y-77200000D02*
X172370000Y-79880000D01*
X175050000Y-75675000D02*
X175050000Y-77200000D01*
X172370000Y-79880000D02*
X171225000Y-79880000D01*
X178025000Y-73525000D02*
X177200000Y-73525000D01*
%TO.N,/mic_sck*%
X176025000Y-80350000D02*
X175300000Y-81075000D01*
X176025000Y-76375000D02*
X176025000Y-80350000D01*
X175300000Y-81075000D02*
X171650000Y-81075000D01*
X176275000Y-76125000D02*
X176025000Y-76375000D01*
%TO.N,Net-(U5-GPIO3)*%
X174585000Y-80275000D02*
X174635000Y-80225000D01*
X171675000Y-80275000D02*
X174585000Y-80275000D01*
%TD*%
%TA.AperFunction,Conductor*%
%TO.N,+3.3V*%
G36*
X162402301Y-66344685D02*
G01*
X162407335Y-66348097D01*
X162435390Y-66368136D01*
X162550000Y-66450000D01*
X162584842Y-66465204D01*
X163892500Y-67035818D01*
X163945088Y-67079219D01*
X164750000Y-68250000D01*
X164750000Y-68249999D01*
X164750001Y-68250000D01*
X164968750Y-68243750D01*
X165625000Y-68225000D01*
X167248276Y-67388767D01*
X167305063Y-67375000D01*
X171349998Y-67375000D01*
X171350000Y-67375000D01*
X172951514Y-66685116D01*
X173000571Y-66675000D01*
X174360160Y-66675000D01*
X174389424Y-66678503D01*
X176096126Y-67092987D01*
X176107983Y-67099062D01*
X176117766Y-67100415D01*
X176147559Y-67119336D01*
X176256698Y-67212884D01*
X176294788Y-67271459D01*
X176300000Y-67307032D01*
X176300000Y-67557145D01*
X176280315Y-67624184D01*
X176250289Y-67656428D01*
X176058033Y-67800283D01*
X175992563Y-67824686D01*
X175983744Y-67825000D01*
X175096704Y-67825000D01*
X175054588Y-67817629D01*
X174175000Y-67500000D01*
X173300000Y-67500000D01*
X172978648Y-67883150D01*
X172719493Y-68192142D01*
X172661330Y-68230858D01*
X172656580Y-68232232D01*
X172609015Y-68244977D01*
X172609004Y-68244982D01*
X172540495Y-68284535D01*
X172540487Y-68284541D01*
X172484541Y-68340487D01*
X172484535Y-68340495D01*
X172444982Y-68409004D01*
X172444979Y-68409009D01*
X172443109Y-68415989D01*
X172424749Y-68484511D01*
X172424500Y-68485439D01*
X172424500Y-68498748D01*
X172404815Y-68565787D01*
X172395508Y-68578432D01*
X172037168Y-69005684D01*
X171979005Y-69044399D01*
X171942160Y-69050000D01*
X169675000Y-69050000D01*
X168020522Y-70455973D01*
X168020522Y-71663241D01*
X168003910Y-71725240D01*
X167969979Y-71784010D01*
X167967040Y-71794979D01*
X167949500Y-71860438D01*
X167949500Y-71939562D01*
X167954713Y-71959015D01*
X167969979Y-72015990D01*
X167969980Y-72015991D01*
X168003909Y-72074758D01*
X168020522Y-72136758D01*
X168020522Y-74190658D01*
X168016297Y-74222751D01*
X167999500Y-74285437D01*
X167999500Y-74364564D01*
X168016296Y-74427244D01*
X168020522Y-74459339D01*
X168020522Y-76632492D01*
X168000837Y-76699531D01*
X167972132Y-76730772D01*
X165250001Y-78824998D01*
X165250000Y-78825000D01*
X165200000Y-81900000D01*
X165800000Y-82450000D01*
X168950000Y-82450000D01*
X169287765Y-82022163D01*
X169344755Y-81981743D01*
X169385090Y-81975000D01*
X171833572Y-81975000D01*
X171835438Y-81975500D01*
X171914562Y-81975500D01*
X171916428Y-81975000D01*
X172376389Y-81975000D01*
X172443428Y-81994685D01*
X172485248Y-82039622D01*
X172749999Y-82524999D01*
X172750000Y-82525000D01*
X172794399Y-82524918D01*
X172845791Y-82538639D01*
X172846507Y-82536912D01*
X172854004Y-82540017D01*
X172854011Y-82540021D01*
X172930438Y-82560500D01*
X172930440Y-82560500D01*
X173009560Y-82560500D01*
X173009562Y-82560500D01*
X173085989Y-82540021D01*
X173085996Y-82540016D01*
X173093495Y-82536911D01*
X173094074Y-82538310D01*
X173146263Y-82524268D01*
X173492170Y-82523630D01*
X173546043Y-82538014D01*
X173546501Y-82536910D01*
X173554009Y-82540020D01*
X173554011Y-82540021D01*
X173630438Y-82560500D01*
X173630440Y-82560500D01*
X173709560Y-82560500D01*
X173709562Y-82560500D01*
X173785989Y-82540021D01*
X173786733Y-82539591D01*
X173787569Y-82539366D01*
X173793497Y-82536911D01*
X173793817Y-82537685D01*
X173848508Y-82522973D01*
X174189941Y-82522343D01*
X174246308Y-82537392D01*
X174246507Y-82536912D01*
X174250126Y-82538411D01*
X174252166Y-82538956D01*
X174254011Y-82540021D01*
X174330438Y-82560500D01*
X174330440Y-82560500D01*
X174409560Y-82560500D01*
X174409562Y-82560500D01*
X174485989Y-82540021D01*
X174488979Y-82538294D01*
X174492339Y-82537390D01*
X174493497Y-82536911D01*
X174493559Y-82537062D01*
X174550752Y-82521677D01*
X174887710Y-82521055D01*
X174949936Y-82537668D01*
X174954011Y-82540021D01*
X175030438Y-82560500D01*
X175030440Y-82560500D01*
X175109560Y-82560500D01*
X175109562Y-82560500D01*
X175185989Y-82540021D01*
X175186731Y-82539593D01*
X175191227Y-82536997D01*
X175253000Y-82520381D01*
X175460000Y-82520000D01*
X176775000Y-82070000D01*
X176750453Y-77533803D01*
X176769774Y-77466660D01*
X176822330Y-77420620D01*
X176827562Y-77418341D01*
X177975000Y-76950000D01*
X177979649Y-76596666D01*
X177998390Y-75172369D01*
X178018955Y-75105594D01*
X178072356Y-75060538D01*
X178122379Y-75050000D01*
X178675063Y-75050000D01*
X178742102Y-75069685D01*
X178787857Y-75122489D01*
X178799059Y-75174934D01*
X178775542Y-78297587D01*
X178755354Y-78364476D01*
X178712201Y-78404806D01*
X178275000Y-78650000D01*
X178225952Y-82279511D01*
X178205363Y-82346278D01*
X178163941Y-82385235D01*
X176964036Y-83077670D01*
X176955800Y-83082019D01*
X175674408Y-83698261D01*
X175622920Y-83710492D01*
X174138033Y-83737489D01*
X174120561Y-83737806D01*
X174089562Y-83729500D01*
X174010438Y-83729500D01*
X173969169Y-83740558D01*
X173953985Y-83740834D01*
X173953985Y-83740835D01*
X173529339Y-83748557D01*
X173494991Y-83744352D01*
X173439562Y-83729500D01*
X173360438Y-83729500D01*
X173360437Y-83729500D01*
X173286510Y-83749309D01*
X173256671Y-83753514D01*
X172916425Y-83759700D01*
X172873954Y-83751652D01*
X172873839Y-83752083D01*
X172868073Y-83750538D01*
X172866722Y-83750282D01*
X172865996Y-83749981D01*
X172865989Y-83749979D01*
X172789562Y-83729500D01*
X172710438Y-83729500D01*
X172655011Y-83744352D01*
X172634003Y-83749981D01*
X172626498Y-83753090D01*
X172625989Y-83751861D01*
X172575425Y-83765901D01*
X172349999Y-83770000D01*
X171874679Y-84212412D01*
X171822296Y-84241418D01*
X171809014Y-84244977D01*
X171809007Y-84244980D01*
X171740492Y-84284537D01*
X171740487Y-84284541D01*
X171684541Y-84340487D01*
X171684535Y-84340495D01*
X171644982Y-84409004D01*
X171644979Y-84409009D01*
X171636809Y-84439500D01*
X171624500Y-84485438D01*
X171624500Y-84564562D01*
X171635314Y-84604920D01*
X171644979Y-84640990D01*
X171644982Y-84640995D01*
X171684535Y-84709504D01*
X171684539Y-84709509D01*
X171684540Y-84709511D01*
X171740489Y-84765460D01*
X171768422Y-84781587D01*
X171775024Y-84787416D01*
X171780216Y-84789322D01*
X171805302Y-84814149D01*
X171814410Y-84826185D01*
X171839166Y-84891521D01*
X171839522Y-84902405D01*
X171834741Y-85327395D01*
X171814304Y-85394209D01*
X171760988Y-85439367D01*
X171710749Y-85450000D01*
X164915266Y-85450000D01*
X164885192Y-85446298D01*
X163193926Y-85023481D01*
X163133662Y-84988124D01*
X163102080Y-84925800D01*
X163100000Y-84903183D01*
X163100000Y-83500438D01*
X170859500Y-83500438D01*
X170859500Y-83579562D01*
X170873021Y-83630021D01*
X170879979Y-83655990D01*
X170879982Y-83655995D01*
X170919535Y-83724504D01*
X170919539Y-83724509D01*
X170919540Y-83724511D01*
X170975489Y-83780460D01*
X170975491Y-83780461D01*
X170975495Y-83780464D01*
X171044004Y-83820017D01*
X171044011Y-83820021D01*
X171120438Y-83840500D01*
X171120440Y-83840500D01*
X171199560Y-83840500D01*
X171199562Y-83840500D01*
X171275989Y-83820021D01*
X171344511Y-83780460D01*
X171400460Y-83724511D01*
X171440021Y-83655989D01*
X171460500Y-83579562D01*
X171460500Y-83500438D01*
X171440021Y-83424011D01*
X171420132Y-83389562D01*
X171400464Y-83355495D01*
X171400458Y-83355487D01*
X171344512Y-83299541D01*
X171344504Y-83299535D01*
X171275995Y-83259982D01*
X171275990Y-83259979D01*
X171250513Y-83253152D01*
X171199562Y-83239500D01*
X171120438Y-83239500D01*
X171082224Y-83249739D01*
X171044009Y-83259979D01*
X171044004Y-83259982D01*
X170975495Y-83299535D01*
X170975487Y-83299541D01*
X170919541Y-83355487D01*
X170919535Y-83355495D01*
X170879982Y-83424004D01*
X170879979Y-83424009D01*
X170868731Y-83465989D01*
X170859500Y-83500438D01*
X163100000Y-83500438D01*
X163100000Y-82610438D01*
X171024500Y-82610438D01*
X171024500Y-82689562D01*
X171038152Y-82740513D01*
X171044979Y-82765990D01*
X171044982Y-82765995D01*
X171084535Y-82834504D01*
X171084539Y-82834509D01*
X171084540Y-82834511D01*
X171140489Y-82890460D01*
X171140491Y-82890461D01*
X171140495Y-82890464D01*
X171192501Y-82920489D01*
X171209011Y-82930021D01*
X171285438Y-82950500D01*
X171285440Y-82950500D01*
X171364560Y-82950500D01*
X171364562Y-82950500D01*
X171440989Y-82930021D01*
X171509511Y-82890460D01*
X171565460Y-82834511D01*
X171605021Y-82765989D01*
X171625500Y-82689562D01*
X171625500Y-82610438D01*
X171605021Y-82534011D01*
X171593792Y-82514562D01*
X171565464Y-82465495D01*
X171565458Y-82465487D01*
X171509512Y-82409541D01*
X171509504Y-82409535D01*
X171440995Y-82369982D01*
X171440990Y-82369979D01*
X171415513Y-82363152D01*
X171364562Y-82349500D01*
X171285438Y-82349500D01*
X171249943Y-82359011D01*
X171209009Y-82369979D01*
X171209004Y-82369982D01*
X171140495Y-82409535D01*
X171140487Y-82409541D01*
X171084541Y-82465487D01*
X171084535Y-82465495D01*
X171044982Y-82534004D01*
X171044979Y-82534009D01*
X171037881Y-82560500D01*
X171024500Y-82610438D01*
X163100000Y-82610438D01*
X163100000Y-79200001D01*
X163100000Y-79200000D01*
X160257895Y-76950000D01*
X160067830Y-76799532D01*
X159955290Y-76710438D01*
X161499500Y-76710438D01*
X161499500Y-76789562D01*
X161511410Y-76834009D01*
X161519979Y-76865990D01*
X161519982Y-76865995D01*
X161559535Y-76934504D01*
X161559539Y-76934509D01*
X161559540Y-76934511D01*
X161615489Y-76990460D01*
X161615491Y-76990461D01*
X161615495Y-76990464D01*
X161684004Y-77030017D01*
X161684011Y-77030021D01*
X161760438Y-77050500D01*
X161760440Y-77050500D01*
X161839560Y-77050500D01*
X161839562Y-77050500D01*
X161915989Y-77030021D01*
X161984511Y-76990460D01*
X162040460Y-76934511D01*
X162080021Y-76865989D01*
X162100500Y-76789562D01*
X162100500Y-76710438D01*
X162080021Y-76634011D01*
X162054877Y-76590460D01*
X162040464Y-76565495D01*
X162040458Y-76565487D01*
X161984512Y-76509541D01*
X161984504Y-76509535D01*
X161915995Y-76469982D01*
X161915990Y-76469979D01*
X161890513Y-76463152D01*
X161839562Y-76449500D01*
X161760438Y-76449500D01*
X161722224Y-76459739D01*
X161684009Y-76469979D01*
X161684004Y-76469982D01*
X161615495Y-76509535D01*
X161615487Y-76509541D01*
X161559541Y-76565487D01*
X161559535Y-76565495D01*
X161519982Y-76634004D01*
X161519979Y-76634009D01*
X161514349Y-76655021D01*
X161499500Y-76710438D01*
X159955290Y-76710438D01*
X159562567Y-76399532D01*
X159562566Y-76399531D01*
X159547032Y-76387233D01*
X159506689Y-76330187D01*
X159503401Y-76310438D01*
X162829500Y-76310438D01*
X162829500Y-76389562D01*
X162836199Y-76414562D01*
X162849979Y-76465990D01*
X162849982Y-76465995D01*
X162889535Y-76534504D01*
X162889541Y-76534512D01*
X162927348Y-76572319D01*
X162960833Y-76633642D01*
X162955849Y-76703334D01*
X162927348Y-76747681D01*
X162909541Y-76765487D01*
X162909535Y-76765495D01*
X162869982Y-76834004D01*
X162869979Y-76834009D01*
X162861410Y-76865989D01*
X162849500Y-76910438D01*
X162849500Y-76989562D01*
X162858862Y-77024500D01*
X162869979Y-77065990D01*
X162869982Y-77065995D01*
X162909535Y-77134504D01*
X162909539Y-77134509D01*
X162909540Y-77134511D01*
X162965489Y-77190460D01*
X162965491Y-77190461D01*
X162965495Y-77190464D01*
X163034004Y-77230017D01*
X163034011Y-77230021D01*
X163110438Y-77250500D01*
X163110440Y-77250500D01*
X163189560Y-77250500D01*
X163189562Y-77250500D01*
X163265989Y-77230021D01*
X163334511Y-77190460D01*
X163390460Y-77134511D01*
X163430021Y-77065989D01*
X163450500Y-76989562D01*
X163450500Y-76910438D01*
X163430021Y-76834011D01*
X163406386Y-76793074D01*
X163390464Y-76765495D01*
X163390458Y-76765487D01*
X163352652Y-76727681D01*
X163319167Y-76666358D01*
X163324151Y-76596666D01*
X163352652Y-76552319D01*
X163370460Y-76534511D01*
X163410021Y-76465989D01*
X163430500Y-76389562D01*
X163430500Y-76310438D01*
X163410021Y-76234011D01*
X163381978Y-76185438D01*
X166074500Y-76185438D01*
X166074500Y-76264562D01*
X166085341Y-76305021D01*
X166094979Y-76340990D01*
X166094982Y-76340995D01*
X166134535Y-76409504D01*
X166134539Y-76409509D01*
X166134540Y-76409511D01*
X166190489Y-76465460D01*
X166190491Y-76465461D01*
X166190495Y-76465464D01*
X166259004Y-76505017D01*
X166259011Y-76505021D01*
X166335438Y-76525500D01*
X166335440Y-76525500D01*
X166414560Y-76525500D01*
X166414562Y-76525500D01*
X166490989Y-76505021D01*
X166559511Y-76465460D01*
X166615460Y-76409511D01*
X166655021Y-76340989D01*
X166675500Y-76264562D01*
X166675500Y-76185438D01*
X166655021Y-76109011D01*
X166631348Y-76068008D01*
X166615464Y-76040495D01*
X166615458Y-76040487D01*
X166559512Y-75984541D01*
X166559504Y-75984535D01*
X166490995Y-75944982D01*
X166490990Y-75944979D01*
X166462294Y-75937290D01*
X166414562Y-75924500D01*
X166335438Y-75924500D01*
X166297224Y-75934739D01*
X166259009Y-75944979D01*
X166259004Y-75944982D01*
X166190495Y-75984535D01*
X166190487Y-75984541D01*
X166134541Y-76040487D01*
X166134535Y-76040495D01*
X166094982Y-76109004D01*
X166094979Y-76109009D01*
X166088839Y-76131925D01*
X166074500Y-76185438D01*
X163381978Y-76185438D01*
X163370460Y-76165489D01*
X163314511Y-76109540D01*
X163293903Y-76097642D01*
X163279657Y-76080385D01*
X163274358Y-76068008D01*
X163265066Y-76058263D01*
X163260874Y-76036514D01*
X163252158Y-76016155D01*
X163254391Y-76002876D01*
X163251844Y-75989656D01*
X163260075Y-75969095D01*
X163263750Y-75947253D01*
X163272808Y-75937290D01*
X163277812Y-75924791D01*
X163307788Y-75898816D01*
X163310752Y-75895557D01*
X163311907Y-75895247D01*
X163313282Y-75894055D01*
X163319511Y-75890460D01*
X163375460Y-75834511D01*
X163415021Y-75765989D01*
X163435500Y-75689562D01*
X163435500Y-75610438D01*
X163415021Y-75534011D01*
X163415017Y-75534004D01*
X163375464Y-75465495D01*
X163375458Y-75465487D01*
X163319512Y-75409541D01*
X163319504Y-75409535D01*
X163277766Y-75385438D01*
X164149500Y-75385438D01*
X164149500Y-75464562D01*
X164163152Y-75515513D01*
X164169979Y-75540990D01*
X164169982Y-75540995D01*
X164209535Y-75609504D01*
X164209539Y-75609509D01*
X164209540Y-75609511D01*
X164265489Y-75665460D01*
X164265491Y-75665461D01*
X164265495Y-75665464D01*
X164307235Y-75689562D01*
X164334011Y-75705021D01*
X164410438Y-75725500D01*
X164410440Y-75725500D01*
X164489560Y-75725500D01*
X164489562Y-75725500D01*
X164565989Y-75705021D01*
X164634511Y-75665460D01*
X164690460Y-75609511D01*
X164730021Y-75540989D01*
X164750500Y-75464562D01*
X164750500Y-75385438D01*
X164730021Y-75309011D01*
X164719311Y-75290460D01*
X164690464Y-75240495D01*
X164690458Y-75240487D01*
X164634512Y-75184541D01*
X164634504Y-75184535D01*
X164565995Y-75144982D01*
X164565990Y-75144979D01*
X164540513Y-75138152D01*
X164489562Y-75124500D01*
X164410438Y-75124500D01*
X164372224Y-75134739D01*
X164334009Y-75144979D01*
X164334004Y-75144982D01*
X164265495Y-75184535D01*
X164265487Y-75184541D01*
X164209541Y-75240487D01*
X164209535Y-75240495D01*
X164169982Y-75309004D01*
X164169979Y-75309009D01*
X164164349Y-75330021D01*
X164149500Y-75385438D01*
X163277766Y-75385438D01*
X163250995Y-75369982D01*
X163250990Y-75369979D01*
X163225513Y-75363152D01*
X163174562Y-75349500D01*
X163095438Y-75349500D01*
X163057224Y-75359739D01*
X163019009Y-75369979D01*
X163019004Y-75369982D01*
X162950495Y-75409535D01*
X162950487Y-75409541D01*
X162894541Y-75465487D01*
X162894535Y-75465495D01*
X162854982Y-75534004D01*
X162854979Y-75534009D01*
X162841562Y-75584084D01*
X162834500Y-75610438D01*
X162834500Y-75689562D01*
X162843862Y-75724500D01*
X162854979Y-75765990D01*
X162854982Y-75765995D01*
X162894535Y-75834504D01*
X162894539Y-75834509D01*
X162894540Y-75834511D01*
X162950489Y-75890460D01*
X162950490Y-75890461D01*
X162950492Y-75890462D01*
X162951713Y-75891167D01*
X162952537Y-75892031D01*
X162956940Y-75895410D01*
X162956413Y-75896096D01*
X162999931Y-75941732D01*
X163013156Y-76010339D01*
X162987190Y-76075204D01*
X162951722Y-76105940D01*
X162945495Y-76109535D01*
X162945487Y-76109541D01*
X162889541Y-76165487D01*
X162889535Y-76165495D01*
X162849982Y-76234004D01*
X162849979Y-76234009D01*
X162841552Y-76265460D01*
X162829500Y-76310438D01*
X159503401Y-76310438D01*
X159500000Y-76290012D01*
X159500000Y-75010438D01*
X165349500Y-75010438D01*
X165349500Y-75089562D01*
X165358323Y-75122489D01*
X165369979Y-75165990D01*
X165369982Y-75165995D01*
X165409535Y-75234504D01*
X165409539Y-75234509D01*
X165409540Y-75234511D01*
X165465489Y-75290460D01*
X165465491Y-75290461D01*
X165465495Y-75290464D01*
X165497620Y-75309011D01*
X165534011Y-75330021D01*
X165610438Y-75350500D01*
X165610440Y-75350500D01*
X165689560Y-75350500D01*
X165689562Y-75350500D01*
X165765989Y-75330021D01*
X165834511Y-75290460D01*
X165890460Y-75234511D01*
X165930021Y-75165989D01*
X165950500Y-75089562D01*
X165950500Y-75010438D01*
X165930021Y-74934011D01*
X165911257Y-74901511D01*
X165890464Y-74865495D01*
X165890458Y-74865487D01*
X165834512Y-74809541D01*
X165834504Y-74809535D01*
X165765995Y-74769982D01*
X165765990Y-74769979D01*
X165740513Y-74763152D01*
X165689562Y-74749500D01*
X165610438Y-74749500D01*
X165584083Y-74756562D01*
X165534009Y-74769979D01*
X165534004Y-74769982D01*
X165465495Y-74809535D01*
X165465487Y-74809541D01*
X165409541Y-74865487D01*
X165409535Y-74865495D01*
X165369982Y-74934004D01*
X165369979Y-74934009D01*
X165356326Y-74984962D01*
X165349500Y-75010438D01*
X159500000Y-75010438D01*
X159500000Y-73903091D01*
X159512107Y-73849650D01*
X159528184Y-73815990D01*
X159709940Y-73435438D01*
X160074500Y-73435438D01*
X160074500Y-73514562D01*
X160079316Y-73532535D01*
X160094979Y-73590990D01*
X160094982Y-73590995D01*
X160134535Y-73659504D01*
X160134539Y-73659509D01*
X160134540Y-73659511D01*
X160190489Y-73715460D01*
X160190491Y-73715461D01*
X160190495Y-73715464D01*
X160259004Y-73755017D01*
X160259011Y-73755021D01*
X160335438Y-73775500D01*
X160335440Y-73775500D01*
X160414560Y-73775500D01*
X160414562Y-73775500D01*
X160490989Y-73755021D01*
X160559511Y-73715460D01*
X160614533Y-73660438D01*
X164724500Y-73660438D01*
X164724500Y-73739562D01*
X164734130Y-73775500D01*
X164744979Y-73815990D01*
X164744982Y-73815995D01*
X164784535Y-73884504D01*
X164784539Y-73884509D01*
X164784540Y-73884511D01*
X164840489Y-73940460D01*
X164840491Y-73940461D01*
X164840495Y-73940464D01*
X164882235Y-73964562D01*
X164909011Y-73980021D01*
X164985438Y-74000500D01*
X164985440Y-74000500D01*
X165064560Y-74000500D01*
X165064562Y-74000500D01*
X165140989Y-73980021D01*
X165209511Y-73940460D01*
X165265460Y-73884511D01*
X165305021Y-73815989D01*
X165325500Y-73739562D01*
X165325500Y-73660438D01*
X165305021Y-73584011D01*
X165290893Y-73559540D01*
X165265464Y-73515495D01*
X165265458Y-73515487D01*
X165209512Y-73459541D01*
X165209504Y-73459535D01*
X165140995Y-73419982D01*
X165140990Y-73419979D01*
X165100329Y-73409084D01*
X165064562Y-73399500D01*
X164985438Y-73399500D01*
X164949943Y-73409011D01*
X164909009Y-73419979D01*
X164909004Y-73419982D01*
X164840495Y-73459535D01*
X164840487Y-73459541D01*
X164784541Y-73515487D01*
X164784535Y-73515495D01*
X164744982Y-73584004D01*
X164744979Y-73584009D01*
X164736812Y-73614489D01*
X164724500Y-73660438D01*
X160614533Y-73660438D01*
X160615460Y-73659511D01*
X160655021Y-73590989D01*
X160675500Y-73514562D01*
X160675500Y-73435438D01*
X160655021Y-73359011D01*
X160655017Y-73359004D01*
X160615464Y-73290495D01*
X160615458Y-73290487D01*
X160559512Y-73234541D01*
X160559504Y-73234535D01*
X160512570Y-73207438D01*
X161599500Y-73207438D01*
X161599500Y-73286562D01*
X161600554Y-73290495D01*
X161619979Y-73362990D01*
X161619982Y-73362995D01*
X161659535Y-73431504D01*
X161659539Y-73431509D01*
X161659540Y-73431511D01*
X161715489Y-73487460D01*
X161715491Y-73487461D01*
X161715495Y-73487464D01*
X161762431Y-73514562D01*
X161784011Y-73527021D01*
X161860438Y-73547500D01*
X161860440Y-73547500D01*
X161939560Y-73547500D01*
X161939562Y-73547500D01*
X162015989Y-73527021D01*
X162084511Y-73487460D01*
X162140460Y-73431511D01*
X162180021Y-73362989D01*
X162200500Y-73286562D01*
X162200500Y-73207438D01*
X162180021Y-73131011D01*
X162165015Y-73105020D01*
X162140464Y-73062495D01*
X162140458Y-73062487D01*
X162084512Y-73006541D01*
X162084504Y-73006535D01*
X162015995Y-72966982D01*
X162015990Y-72966979D01*
X161988119Y-72959511D01*
X161939562Y-72946500D01*
X161860438Y-72946500D01*
X161822224Y-72956739D01*
X161784009Y-72966979D01*
X161784004Y-72966982D01*
X161715495Y-73006535D01*
X161715487Y-73006541D01*
X161659541Y-73062487D01*
X161659535Y-73062495D01*
X161619982Y-73131004D01*
X161619979Y-73131009D01*
X161616746Y-73143075D01*
X161599500Y-73207438D01*
X160512570Y-73207438D01*
X160490995Y-73194982D01*
X160490990Y-73194979D01*
X160465513Y-73188152D01*
X160414562Y-73174500D01*
X160335438Y-73174500D01*
X160297224Y-73184739D01*
X160259009Y-73194979D01*
X160259004Y-73194982D01*
X160190495Y-73234535D01*
X160190487Y-73234541D01*
X160134541Y-73290487D01*
X160134535Y-73290495D01*
X160094982Y-73359004D01*
X160094979Y-73359009D01*
X160084130Y-73399500D01*
X160074500Y-73435438D01*
X159709940Y-73435438D01*
X160020387Y-72785438D01*
X164749500Y-72785438D01*
X164749500Y-72864562D01*
X164763152Y-72915513D01*
X164769979Y-72940990D01*
X164769982Y-72940995D01*
X164809535Y-73009504D01*
X164809539Y-73009509D01*
X164809540Y-73009511D01*
X164865489Y-73065460D01*
X164865491Y-73065461D01*
X164865495Y-73065464D01*
X164934004Y-73105017D01*
X164934011Y-73105021D01*
X165010438Y-73125500D01*
X165010440Y-73125500D01*
X165089560Y-73125500D01*
X165089562Y-73125500D01*
X165165989Y-73105021D01*
X165234511Y-73065460D01*
X165290460Y-73009511D01*
X165330021Y-72940989D01*
X165350500Y-72864562D01*
X165350500Y-72785438D01*
X165330021Y-72709011D01*
X165301154Y-72659011D01*
X165290464Y-72640495D01*
X165290458Y-72640487D01*
X165234512Y-72584541D01*
X165234504Y-72584535D01*
X165165995Y-72544982D01*
X165165990Y-72544979D01*
X165140513Y-72538152D01*
X165089562Y-72524500D01*
X165010438Y-72524500D01*
X164984083Y-72531562D01*
X164934009Y-72544979D01*
X164934004Y-72544982D01*
X164865495Y-72584535D01*
X164865487Y-72584541D01*
X164809541Y-72640487D01*
X164809535Y-72640495D01*
X164769982Y-72709004D01*
X164769979Y-72709009D01*
X164761005Y-72742500D01*
X164749500Y-72785438D01*
X160020387Y-72785438D01*
X160378596Y-72035438D01*
X163099500Y-72035438D01*
X163099500Y-72114562D01*
X163113152Y-72165513D01*
X163119979Y-72190990D01*
X163119982Y-72190995D01*
X163159535Y-72259504D01*
X163159539Y-72259509D01*
X163159540Y-72259511D01*
X163215489Y-72315460D01*
X163215491Y-72315461D01*
X163215495Y-72315464D01*
X163284004Y-72355017D01*
X163284011Y-72355021D01*
X163360438Y-72375500D01*
X163360440Y-72375500D01*
X163439560Y-72375500D01*
X163439562Y-72375500D01*
X163515989Y-72355021D01*
X163584511Y-72315460D01*
X163640460Y-72259511D01*
X163680021Y-72190989D01*
X163700500Y-72114562D01*
X163700500Y-72035438D01*
X163686825Y-71984403D01*
X163686825Y-71984401D01*
X163680403Y-71960438D01*
X163999500Y-71960438D01*
X163999500Y-72039562D01*
X164008931Y-72074758D01*
X164019979Y-72115990D01*
X164019982Y-72115995D01*
X164059535Y-72184504D01*
X164059539Y-72184509D01*
X164059540Y-72184511D01*
X164115489Y-72240460D01*
X164115491Y-72240461D01*
X164115495Y-72240464D01*
X164134680Y-72251540D01*
X164184011Y-72280021D01*
X164260438Y-72300500D01*
X164260440Y-72300500D01*
X164339560Y-72300500D01*
X164339562Y-72300500D01*
X164415989Y-72280021D01*
X164484511Y-72240460D01*
X164540460Y-72184511D01*
X164580021Y-72115989D01*
X164600500Y-72039562D01*
X164600500Y-71960438D01*
X164580021Y-71884011D01*
X164564167Y-71856551D01*
X164540464Y-71815495D01*
X164540458Y-71815487D01*
X164484512Y-71759541D01*
X164484504Y-71759535D01*
X164415995Y-71719982D01*
X164415990Y-71719979D01*
X164390513Y-71713152D01*
X164339562Y-71699500D01*
X164260438Y-71699500D01*
X164224943Y-71709011D01*
X164184009Y-71719979D01*
X164184004Y-71719982D01*
X164115495Y-71759535D01*
X164115487Y-71759541D01*
X164059541Y-71815487D01*
X164059535Y-71815495D01*
X164019982Y-71884004D01*
X164019979Y-71884009D01*
X164011538Y-71915511D01*
X163999500Y-71960438D01*
X163680403Y-71960438D01*
X163680022Y-71959015D01*
X163680021Y-71959011D01*
X163660096Y-71924500D01*
X163640464Y-71890495D01*
X163640458Y-71890487D01*
X163584512Y-71834541D01*
X163584504Y-71834535D01*
X163515995Y-71794982D01*
X163515990Y-71794979D01*
X163480382Y-71785438D01*
X163439562Y-71774500D01*
X163360438Y-71774500D01*
X163324947Y-71784010D01*
X163284009Y-71794979D01*
X163284004Y-71794982D01*
X163215495Y-71834535D01*
X163215487Y-71834541D01*
X163159541Y-71890487D01*
X163159535Y-71890495D01*
X163119982Y-71959004D01*
X163119979Y-71959009D01*
X163113175Y-71984404D01*
X163099500Y-72035438D01*
X160378596Y-72035438D01*
X160975611Y-70785438D01*
X161774500Y-70785438D01*
X161774500Y-70864562D01*
X161786552Y-70909540D01*
X161794979Y-70940990D01*
X161794982Y-70940995D01*
X161834535Y-71009504D01*
X161834539Y-71009509D01*
X161834540Y-71009511D01*
X161890489Y-71065460D01*
X161890491Y-71065461D01*
X161890495Y-71065464D01*
X161894022Y-71067500D01*
X161959011Y-71105021D01*
X162035438Y-71125500D01*
X162035440Y-71125500D01*
X162114560Y-71125500D01*
X162114562Y-71125500D01*
X162190989Y-71105021D01*
X162259511Y-71065460D01*
X162315460Y-71009511D01*
X162355021Y-70940989D01*
X162375500Y-70864562D01*
X162375500Y-70785438D01*
X162359959Y-70727438D01*
X164949500Y-70727438D01*
X164949500Y-70806562D01*
X164963152Y-70857513D01*
X164969979Y-70882990D01*
X164969982Y-70882995D01*
X165009535Y-70951504D01*
X165009539Y-70951509D01*
X165009540Y-70951511D01*
X165065489Y-71007460D01*
X165065491Y-71007461D01*
X165065495Y-71007464D01*
X165111477Y-71034011D01*
X165134011Y-71047021D01*
X165210438Y-71067500D01*
X165210440Y-71067500D01*
X165289560Y-71067500D01*
X165289562Y-71067500D01*
X165365989Y-71047021D01*
X165434511Y-71007460D01*
X165490460Y-70951511D01*
X165530021Y-70882989D01*
X165550500Y-70806562D01*
X165550500Y-70727438D01*
X165530021Y-70651011D01*
X165521392Y-70636065D01*
X165490464Y-70582495D01*
X165490458Y-70582487D01*
X165434512Y-70526541D01*
X165434504Y-70526535D01*
X165365995Y-70486982D01*
X165365990Y-70486979D01*
X165340513Y-70480152D01*
X165289562Y-70466500D01*
X165210438Y-70466500D01*
X165172224Y-70476739D01*
X165134009Y-70486979D01*
X165134004Y-70486982D01*
X165065495Y-70526535D01*
X165065487Y-70526541D01*
X165009541Y-70582487D01*
X165009535Y-70582495D01*
X164969982Y-70651004D01*
X164969979Y-70651009D01*
X164967436Y-70660500D01*
X164949500Y-70727438D01*
X162359959Y-70727438D01*
X162355021Y-70709011D01*
X162343792Y-70689562D01*
X162315464Y-70640495D01*
X162315458Y-70640487D01*
X162259512Y-70584541D01*
X162259504Y-70584535D01*
X162190995Y-70544982D01*
X162190990Y-70544979D01*
X162165513Y-70538152D01*
X162114562Y-70524500D01*
X162035438Y-70524500D01*
X161999943Y-70534011D01*
X161959009Y-70544979D01*
X161959004Y-70544982D01*
X161890495Y-70584535D01*
X161890487Y-70584541D01*
X161834541Y-70640487D01*
X161834535Y-70640495D01*
X161794982Y-70709004D01*
X161794979Y-70709009D01*
X161782737Y-70754697D01*
X161774500Y-70785438D01*
X160975611Y-70785438D01*
X161088119Y-70549874D01*
X161121299Y-70507503D01*
X162500000Y-69375000D01*
X162525000Y-68025000D01*
X162131250Y-67500000D01*
X161949800Y-67258066D01*
X161925324Y-67192624D01*
X161925000Y-67183666D01*
X161925000Y-66516308D01*
X161932384Y-66491158D01*
X161936021Y-66465204D01*
X161943408Y-66453617D01*
X161944685Y-66449269D01*
X161954995Y-66435444D01*
X162012894Y-66368136D01*
X162071535Y-66330150D01*
X162106899Y-66325000D01*
X162335262Y-66325000D01*
X162402301Y-66344685D01*
G37*
%TD.AperFunction*%
%TD*%
%TA.AperFunction,Conductor*%
%TO.N,GND*%
G36*
X159480275Y-76469808D02*
G01*
X159490852Y-76477316D01*
X159802864Y-76724326D01*
X159889806Y-76793155D01*
X162947467Y-79213803D01*
X162987811Y-79270847D01*
X162994500Y-79311024D01*
X162994500Y-84903204D01*
X162994942Y-84912834D01*
X162997022Y-84935460D01*
X162997024Y-84935468D01*
X163007970Y-84973482D01*
X163007972Y-84973488D01*
X163028933Y-85014850D01*
X163039555Y-85035812D01*
X163039557Y-85035814D01*
X163041337Y-85037707D01*
X163042511Y-85040024D01*
X163044649Y-85043071D01*
X163044210Y-85043378D01*
X163072920Y-85100031D01*
X163075000Y-85122649D01*
X163075000Y-88453675D01*
X163055315Y-88520714D01*
X163002511Y-88566469D01*
X162951000Y-88577675D01*
X155824500Y-88577675D01*
X155757461Y-88557990D01*
X155711706Y-88505186D01*
X155700500Y-88453675D01*
X155700500Y-76597265D01*
X155720185Y-76530226D01*
X155772989Y-76484471D01*
X155823712Y-76473267D01*
X159413118Y-76450549D01*
X159480275Y-76469808D01*
G37*
%TD.AperFunction*%
%TD*%
M02*
