%TF.GenerationSoftware,KiCad,Pcbnew,9.0.6-rc1*%
%TF.CreationDate,2025-12-21T23:59:12+01:00*%
%TF.ProjectId,PCB_PAPI,5043425f-5041-4504-992e-6b696361645f,rev?*%
%TF.SameCoordinates,Original*%
%TF.FileFunction,Paste,Bot*%
%TF.FilePolarity,Positive*%
%FSLAX46Y46*%
G04 Gerber Fmt 4.6, Leading zero omitted, Abs format (unit mm)*
G04 Created by KiCad (PCBNEW 9.0.6-rc1) date 2025-12-21 23:59:12*
%MOMM*%
%LPD*%
G01*
G04 APERTURE LIST*
G04 Aperture macros list*
%AMRoundRect*
0 Rectangle with rounded corners*
0 $1 Rounding radius*
0 $2 $3 $4 $5 $6 $7 $8 $9 X,Y pos of 4 corners*
0 Add a 4 corners polygon primitive as box body*
4,1,4,$2,$3,$4,$5,$6,$7,$8,$9,$2,$3,0*
0 Add four circle primitives for the rounded corners*
1,1,$1+$1,$2,$3*
1,1,$1+$1,$4,$5*
1,1,$1+$1,$6,$7*
1,1,$1+$1,$8,$9*
0 Add four rect primitives between the rounded corners*
20,1,$1+$1,$2,$3,$4,$5,0*
20,1,$1+$1,$4,$5,$6,$7,0*
20,1,$1+$1,$6,$7,$8,$9,0*
20,1,$1+$1,$8,$9,$2,$3,0*%
G04 Aperture macros list end*
%ADD10R,1.700000X0.600000*%
%ADD11R,2.700000X1.000000*%
%ADD12R,0.600000X1.700000*%
%ADD13R,1.000000X2.700000*%
%ADD14RoundRect,0.140000X0.140000X0.170000X-0.140000X0.170000X-0.140000X-0.170000X0.140000X-0.170000X0*%
%ADD15RoundRect,0.079500X0.100500X-0.079500X0.100500X0.079500X-0.100500X0.079500X-0.100500X-0.079500X0*%
%ADD16R,0.300000X0.850000*%
%ADD17R,1.420000X0.610000*%
%ADD18RoundRect,0.079500X-0.100500X0.079500X-0.100500X-0.079500X0.100500X-0.079500X0.100500X0.079500X0*%
%ADD19RoundRect,0.155000X-0.155000X0.212500X-0.155000X-0.212500X0.155000X-0.212500X0.155000X0.212500X0*%
%ADD20RoundRect,0.140000X-0.140000X-0.170000X0.140000X-0.170000X0.140000X0.170000X-0.140000X0.170000X0*%
%ADD21RoundRect,0.090000X-0.090000X0.139000X-0.090000X-0.139000X0.090000X-0.139000X0.090000X0.139000X0*%
%ADD22RoundRect,0.079500X-0.079500X-0.100500X0.079500X-0.100500X0.079500X0.100500X-0.079500X0.100500X0*%
%ADD23RoundRect,0.090000X0.090000X-0.139000X0.090000X0.139000X-0.090000X0.139000X-0.090000X-0.139000X0*%
%ADD24RoundRect,0.090000X0.139000X0.090000X-0.139000X0.090000X-0.139000X-0.090000X0.139000X-0.090000X0*%
%ADD25R,0.550000X1.500000*%
%ADD26RoundRect,0.250000X-0.500000X0.750000X-0.500000X-0.750000X0.500000X-0.750000X0.500000X0.750000X0*%
G04 APERTURE END LIST*
D10*
%TO.C,J3*%
X160325000Y-81175000D03*
X160325000Y-79925000D03*
X160325000Y-78675000D03*
X160325000Y-77425000D03*
D11*
X157125000Y-83025000D03*
X157125000Y-75575000D03*
%TD*%
D12*
%TO.C,J1*%
X158475000Y-66650000D03*
X159725000Y-66650000D03*
X160975000Y-66650000D03*
X162225000Y-66650000D03*
X163475000Y-66650000D03*
X164725000Y-66650000D03*
X165975000Y-66650000D03*
X167225000Y-66650000D03*
D13*
X156625000Y-63450000D03*
X169075000Y-63450000D03*
%TD*%
D14*
%TO.C,C2*%
X158480000Y-74350000D03*
X157520000Y-74350000D03*
%TD*%
D15*
%TO.C,R30*%
X178425000Y-69595000D03*
X178425000Y-68905000D03*
%TD*%
D16*
%TO.C,IC5*%
X157600000Y-70900000D03*
X158100000Y-70900000D03*
X158600000Y-70900000D03*
X158600000Y-72800000D03*
X158100000Y-72800000D03*
X157600000Y-72800000D03*
D17*
X158100000Y-71850000D03*
%TD*%
D18*
%TO.C,R31*%
X178415000Y-67480000D03*
X178415000Y-68170000D03*
%TD*%
D19*
%TO.C,C62*%
X171650000Y-85300000D03*
X171650000Y-86435000D03*
%TD*%
D20*
%TO.C,C45*%
X175695000Y-67950000D03*
X176655000Y-67950000D03*
%TD*%
D21*
%TO.C,C65*%
X170800000Y-85267500D03*
X170800000Y-86132500D03*
%TD*%
D22*
%TO.C,C44*%
X175655000Y-68775000D03*
X176345000Y-68775000D03*
%TD*%
D23*
%TO.C,C30*%
X178500000Y-76200000D03*
X178500000Y-75335000D03*
%TD*%
D24*
%TO.C,R36*%
X175475000Y-80950000D03*
X174610000Y-80950000D03*
%TD*%
%TO.C,R15*%
X175475000Y-80225000D03*
X174610000Y-80225000D03*
%TD*%
D25*
%TO.C,SW1*%
X162500000Y-86550000D03*
X165750000Y-86550000D03*
%TD*%
D23*
%TO.C,R17*%
X156100000Y-72982500D03*
X156100000Y-72117500D03*
%TD*%
D24*
%TO.C,C71*%
X175475000Y-81650000D03*
X174610000Y-81650000D03*
%TD*%
D26*
%TO.C,SW2*%
X165000000Y-68900000D03*
X165000000Y-83200000D03*
X170000000Y-68900000D03*
X170000000Y-83200000D03*
%TD*%
D15*
%TO.C,R32*%
X177675000Y-68175000D03*
X177675000Y-67485000D03*
%TD*%
M02*
