%TF.GenerationSoftware,KiCad,Pcbnew,9.0.6-rc1*%
%TF.CreationDate,2025-12-21T23:59:12+01:00*%
%TF.ProjectId,PCB_PAPI,5043425f-5041-4504-992e-6b696361645f,rev?*%
%TF.SameCoordinates,Original*%
%TF.FileFunction,Soldermask,Top*%
%TF.FilePolarity,Negative*%
%FSLAX46Y46*%
G04 Gerber Fmt 4.6, Leading zero omitted, Abs format (unit mm)*
G04 Created by KiCad (PCBNEW 9.0.6-rc1) date 2025-12-21 23:59:12*
%MOMM*%
%LPD*%
G01*
G04 APERTURE LIST*
G04 Aperture macros list*
%AMRoundRect*
0 Rectangle with rounded corners*
0 $1 Rounding radius*
0 $2 $3 $4 $5 $6 $7 $8 $9 X,Y pos of 4 corners*
0 Add a 4 corners polygon primitive as box body*
4,1,4,$2,$3,$4,$5,$6,$7,$8,$9,$2,$3,0*
0 Add four circle primitives for the rounded corners*
1,1,$1+$1,$2,$3*
1,1,$1+$1,$4,$5*
1,1,$1+$1,$6,$7*
1,1,$1+$1,$8,$9*
0 Add four rect primitives between the rounded corners*
20,1,$1+$1,$2,$3,$4,$5,0*
20,1,$1+$1,$4,$5,$6,$7,0*
20,1,$1+$1,$6,$7,$8,$9,0*
20,1,$1+$1,$8,$9,$2,$3,0*%
%AMFreePoly0*
4,1,64,0.235856,1.440014,0.383010,1.379061,0.515445,1.290571,0.628071,1.177945,0.716561,1.045510,0.777514,0.898356,0.808588,0.742139,0.808588,0.582861,0.777514,0.426644,0.716561,0.279490,0.628071,0.147055,0.515445,0.034429,0.383010,-0.054061,0.235856,-0.115014,0.079639,-0.146088,0.031751,-0.146088,0.029264,-0.147118,-0.029264,-0.147118,-0.031751,-0.146088,-0.079639,-0.146088,
-0.235856,-0.115014,-0.383010,-0.054061,-0.515445,0.034429,-0.628071,0.147055,-0.716561,0.279490,-0.777514,0.426644,-0.808588,0.582861,-0.808588,0.729972,-0.512500,0.729972,-0.512500,0.595028,-0.477574,0.464683,-0.410102,0.347818,-0.314682,0.252398,-0.197817,0.184926,-0.067472,0.150000,0.067472,0.150000,0.197817,0.184926,0.314682,0.252398,0.410102,0.347818,0.477574,0.464683,
0.512500,0.595028,0.512500,0.729972,0.477574,0.860317,0.410102,0.977182,0.314682,1.072602,0.197817,1.140074,0.067472,1.175000,-0.067472,1.175000,-0.197817,1.140074,-0.314682,1.072602,-0.410102,0.977182,-0.477574,0.860317,-0.512500,0.729972,-0.808588,0.729972,-0.808588,0.742139,-0.777514,0.898356,-0.716561,1.045510,-0.628071,1.177945,-0.515445,1.290571,-0.383010,1.379061,
-0.235856,1.440014,-0.079639,1.471088,0.079639,1.471088,0.235856,1.440014,0.235856,1.440014,$1*%
G04 Aperture macros list end*
%ADD10R,5.700000X5.700000*%
%ADD11RoundRect,0.050000X0.350000X0.050000X-0.350000X0.050000X-0.350000X-0.050000X0.350000X-0.050000X0*%
%ADD12RoundRect,0.050000X0.050000X0.350000X-0.050000X0.350000X-0.050000X-0.350000X0.050000X-0.350000X0*%
%ADD13RoundRect,0.100000X-0.100000X0.217500X-0.100000X-0.217500X0.100000X-0.217500X0.100000X0.217500X0*%
%ADD14RoundRect,0.100000X0.100000X-0.217500X0.100000X0.217500X-0.100000X0.217500X-0.100000X-0.217500X0*%
%ADD15RoundRect,0.140000X-0.140000X-0.170000X0.140000X-0.170000X0.140000X0.170000X-0.140000X0.170000X0*%
%ADD16RoundRect,0.100000X-0.130000X-0.100000X0.130000X-0.100000X0.130000X0.100000X-0.130000X0.100000X0*%
%ADD17RoundRect,0.155000X0.155000X-0.212500X0.155000X0.212500X-0.155000X0.212500X-0.155000X-0.212500X0*%
%ADD18RoundRect,0.218750X-0.218750X-0.256250X0.218750X-0.256250X0.218750X0.256250X-0.218750X0.256250X0*%
%ADD19R,0.850000X0.300000*%
%ADD20R,0.300000X0.850000*%
%ADD21R,1.250000X1.250000*%
%ADD22RoundRect,0.160000X0.160000X-0.197500X0.160000X0.197500X-0.160000X0.197500X-0.160000X-0.197500X0*%
%ADD23RoundRect,0.100000X-0.100000X0.130000X-0.100000X-0.130000X0.100000X-0.130000X0.100000X0.130000X0*%
%ADD24RoundRect,0.100000X-0.217500X-0.100000X0.217500X-0.100000X0.217500X0.100000X-0.217500X0.100000X0*%
%ADD25RoundRect,0.147500X0.172500X-0.147500X0.172500X0.147500X-0.172500X0.147500X-0.172500X-0.147500X0*%
%ADD26R,0.600000X1.250000*%
%ADD27R,1.200000X3.790000*%
%ADD28R,1.450000X1.400000*%
%ADD29R,1.000000X0.600000*%
%ADD30R,0.950000X0.850000*%
%ADD31RoundRect,0.218750X-0.256250X0.218750X-0.256250X-0.218750X0.256250X-0.218750X0.256250X0.218750X0*%
%ADD32RoundRect,0.100000X0.100000X-0.130000X0.100000X0.130000X-0.100000X0.130000X-0.100000X-0.130000X0*%
%ADD33C,0.700000*%
%ADD34C,4.400000*%
%ADD35RoundRect,0.100000X0.217500X0.100000X-0.217500X0.100000X-0.217500X-0.100000X0.217500X-0.100000X0*%
%ADD36R,0.750000X0.550000*%
%ADD37RoundRect,0.150000X-0.150000X-0.625000X0.150000X-0.625000X0.150000X0.625000X-0.150000X0.625000X0*%
%ADD38RoundRect,0.250000X-0.350000X-0.650000X0.350000X-0.650000X0.350000X0.650000X-0.350000X0.650000X0*%
%ADD39C,0.500000*%
%ADD40R,0.522000X0.600000*%
%ADD41FreePoly0,0.000000*%
%ADD42R,1.050000X2.200000*%
%ADD43R,1.000000X1.050000*%
%ADD44R,2.500000X1.700000*%
G04 APERTURE END LIST*
D10*
%TO.C,U5*%
X167120000Y-80480000D03*
D11*
X170570000Y-83080000D03*
X170570000Y-82680000D03*
X170570000Y-82280000D03*
X170570000Y-81880000D03*
X170570000Y-81480000D03*
X170570000Y-81080000D03*
X170570000Y-80680000D03*
X170570000Y-80280000D03*
X170570000Y-79880000D03*
X170570000Y-79480000D03*
X170570000Y-79080000D03*
X170570000Y-78680000D03*
X170570000Y-78280000D03*
X170570000Y-77880000D03*
D12*
X169720000Y-77030000D03*
X169320000Y-77030000D03*
X168920000Y-77030000D03*
X168520000Y-77030000D03*
X168120000Y-77030000D03*
X167720000Y-77030000D03*
X167320000Y-77030000D03*
X166920000Y-77030000D03*
X166520000Y-77030000D03*
X166120000Y-77030000D03*
X165720000Y-77030000D03*
X165320000Y-77030000D03*
X164920000Y-77030000D03*
X164520000Y-77030000D03*
D11*
X163670000Y-77880000D03*
X163670000Y-78280000D03*
X163670000Y-78680000D03*
X163670000Y-79080000D03*
X163670000Y-79480000D03*
X163670000Y-79880000D03*
X163670000Y-80280000D03*
X163670000Y-80680000D03*
X163670000Y-81080000D03*
X163670000Y-81480000D03*
X163670000Y-81880000D03*
X163670000Y-82280000D03*
X163670000Y-82680000D03*
X163670000Y-83080000D03*
D12*
X164520000Y-83930000D03*
X164920000Y-83930000D03*
X165320000Y-83930000D03*
X165720000Y-83930000D03*
X166120000Y-83930000D03*
X166520000Y-83930000D03*
X166920000Y-83930000D03*
X167320000Y-83930000D03*
X167720000Y-83930000D03*
X168120000Y-83930000D03*
X168520000Y-83930000D03*
X168920000Y-83930000D03*
X169320000Y-83930000D03*
X169720000Y-83930000D03*
%TD*%
D13*
%TO.C,R3*%
X159025000Y-64310000D03*
X159025000Y-65125000D03*
%TD*%
D14*
%TO.C,R2*%
X159725000Y-65125000D03*
X159725000Y-64310000D03*
%TD*%
D13*
%TO.C,C5*%
X158325000Y-64310000D03*
X158325000Y-65125000D03*
%TD*%
%TO.C,R1*%
X172825000Y-76010000D03*
X172825000Y-76825000D03*
%TD*%
%TO.C,R39*%
X165150000Y-86142500D03*
X165150000Y-86957500D03*
%TD*%
D15*
%TO.C,C24*%
X156200000Y-74700000D03*
X157160000Y-74700000D03*
%TD*%
D16*
%TO.C,R9*%
X163135000Y-75650000D03*
X163775000Y-75650000D03*
%TD*%
D13*
%TO.C,C31*%
X162125000Y-77242500D03*
X162125000Y-78057500D03*
%TD*%
D17*
%TO.C,C32*%
X161250000Y-78017500D03*
X161250000Y-76882500D03*
%TD*%
D18*
%TO.C,L5*%
X172942500Y-83120000D03*
X174517500Y-83120000D03*
%TD*%
D16*
%TO.C,R10*%
X163130000Y-76350000D03*
X163770000Y-76350000D03*
%TD*%
D19*
%TO.C,IC6*%
X177625000Y-70400000D03*
X177625000Y-69900000D03*
X177625000Y-69400000D03*
X177625000Y-68900000D03*
D20*
X176925000Y-68200000D03*
X176425000Y-68200000D03*
X175925000Y-68200000D03*
X175425000Y-68200000D03*
D19*
X174725000Y-68900000D03*
X174725000Y-69400000D03*
X174725000Y-69900000D03*
X174725000Y-70400000D03*
D20*
X175425000Y-71100000D03*
X175925000Y-71100000D03*
X176425000Y-71100000D03*
X176925000Y-71100000D03*
D21*
X176175000Y-69650000D03*
%TD*%
D17*
%TO.C,C47*%
X176300000Y-78642500D03*
X176300000Y-77507500D03*
%TD*%
D22*
%TO.C,R41*%
X160300000Y-78072500D03*
X160300000Y-76877500D03*
%TD*%
D23*
%TO.C,R34*%
X169650000Y-68230000D03*
X169650000Y-68870000D03*
%TD*%
D24*
%TO.C,C66*%
X172742500Y-81150000D03*
X173557500Y-81150000D03*
%TD*%
D16*
%TO.C,R22*%
X169330000Y-85300000D03*
X169970000Y-85300000D03*
%TD*%
D25*
%TO.C,LEDRED1*%
X167450000Y-64617500D03*
X167450000Y-63647500D03*
%TD*%
D17*
%TO.C,C28*%
X167650000Y-67917500D03*
X167650000Y-66782500D03*
%TD*%
D16*
%TO.C,R40*%
X169030000Y-75600000D03*
X169670000Y-75600000D03*
%TD*%
D17*
%TO.C,C60*%
X175275000Y-78667500D03*
X175275000Y-77532500D03*
%TD*%
D14*
%TO.C,R37*%
X165900000Y-86957500D03*
X165900000Y-86142500D03*
%TD*%
D26*
%TO.C,J4*%
X170750000Y-70767000D03*
X169650000Y-70767000D03*
X168550000Y-70767000D03*
X167450000Y-70767000D03*
X166350000Y-70767000D03*
X165250000Y-70767000D03*
X164150000Y-70767000D03*
X163050000Y-70767000D03*
D27*
X161900000Y-73247000D03*
D28*
X172375000Y-72492000D03*
D29*
X172600000Y-73742000D03*
D30*
X171675000Y-74717000D03*
%TD*%
D23*
%TO.C,R29*%
X163525000Y-68180000D03*
X163525000Y-68820000D03*
%TD*%
D14*
%TO.C,C63*%
X174325000Y-78657500D03*
X174325000Y-77842500D03*
%TD*%
D24*
%TO.C,C68*%
X164042500Y-85050000D03*
X164857500Y-85050000D03*
%TD*%
D31*
%TO.C,L4*%
X172850000Y-78262500D03*
X172850000Y-79837500D03*
%TD*%
D32*
%TO.C,C40*%
X166960000Y-86930000D03*
X166960000Y-86290000D03*
%TD*%
D16*
%TO.C,R33*%
X175930000Y-72375000D03*
X176570000Y-72375000D03*
%TD*%
D32*
%TO.C,C29*%
X166750000Y-68020000D03*
X166750000Y-67380000D03*
%TD*%
D14*
%TO.C,C61*%
X172450000Y-87107500D03*
X172450000Y-86292500D03*
%TD*%
D24*
%TO.C,C67*%
X165792500Y-75625000D03*
X166607500Y-75625000D03*
%TD*%
D23*
%TO.C,C3*%
X171770000Y-83090000D03*
X171770000Y-83730000D03*
%TD*%
%TO.C,R38*%
X168550000Y-68230000D03*
X168550000Y-68870000D03*
%TD*%
D33*
%TO.C,H2*%
X156650000Y-86125000D03*
X157133274Y-84958274D03*
X157133274Y-87291726D03*
X158300000Y-84475000D03*
D34*
X158300000Y-86125000D03*
D33*
X158300000Y-87775000D03*
X159466726Y-84958274D03*
X159466726Y-87291726D03*
X159950000Y-86125000D03*
%TD*%
D32*
%TO.C,C4*%
X175660000Y-83140000D03*
X175660000Y-82500000D03*
%TD*%
D35*
%TO.C,R4*%
X167407500Y-62525000D03*
X166592500Y-62525000D03*
%TD*%
D36*
%TO.C,Y2*%
X169050000Y-86250000D03*
X167950000Y-86250000D03*
X167950000Y-87000000D03*
X169050000Y-87000000D03*
%TD*%
D37*
%TO.C,U1*%
X170375000Y-66075000D03*
X171375000Y-66075000D03*
D38*
X169075000Y-63550000D03*
X172675000Y-63550000D03*
%TD*%
D15*
%TO.C,C22*%
X158170000Y-69250000D03*
X159130000Y-69250000D03*
%TD*%
D39*
%TO.C,MK2*%
X175290000Y-74425000D03*
D40*
X177364000Y-73525000D03*
X176542000Y-73525000D03*
D41*
X175290000Y-75087500D03*
D40*
X176542000Y-75325000D03*
X177364000Y-75325000D03*
X177364000Y-74425000D03*
%TD*%
D33*
%TO.C,H1*%
X174675000Y-64650000D03*
X175158274Y-63483274D03*
X175158274Y-65816726D03*
X176325000Y-63000000D03*
D34*
X176325000Y-64650000D03*
D33*
X176325000Y-66300000D03*
X177491726Y-63483274D03*
X177491726Y-65816726D03*
X177975000Y-64650000D03*
%TD*%
D42*
%TO.C,J2*%
X178175000Y-86900000D03*
X175225000Y-86900000D03*
D43*
X176700000Y-85375000D03*
%TD*%
D32*
%TO.C,C38*%
X170010000Y-86980000D03*
X170010000Y-86340000D03*
%TD*%
D20*
%TO.C,IC3*%
X159100000Y-70450000D03*
X158150000Y-70450000D03*
X157200000Y-70450000D03*
X157200000Y-73350000D03*
X158150000Y-73350000D03*
X159100000Y-73350000D03*
D44*
X158150000Y-71900000D03*
%TD*%
D14*
%TO.C,C1*%
X172125000Y-76832500D03*
X172125000Y-76017500D03*
%TD*%
D24*
%TO.C,R35*%
X171542500Y-85150000D03*
X172357500Y-85150000D03*
%TD*%
M02*
