%TF.GenerationSoftware,KiCad,Pcbnew,9.0.6-rc1*%
%TF.CreationDate,2025-12-21T23:59:12+01:00*%
%TF.ProjectId,PCB_PAPI,5043425f-5041-4504-992e-6b696361645f,rev?*%
%TF.SameCoordinates,Original*%
%TF.FileFunction,Copper,L2,Inr*%
%TF.FilePolarity,Positive*%
%FSLAX46Y46*%
G04 Gerber Fmt 4.6, Leading zero omitted, Abs format (unit mm)*
G04 Created by KiCad (PCBNEW 9.0.6-rc1) date 2025-12-21 23:59:12*
%MOMM*%
%LPD*%
G01*
G04 APERTURE LIST*
%TA.AperFunction,ComponentPad*%
%ADD10C,0.700000*%
%TD*%
%TA.AperFunction,ComponentPad*%
%ADD11C,4.400000*%
%TD*%
%TA.AperFunction,ViaPad*%
%ADD12C,0.400000*%
%TD*%
G04 APERTURE END LIST*
D10*
%TO.N,GND*%
%TO.C,H2*%
X156650000Y-86125000D03*
X157133274Y-84958274D03*
X157133274Y-87291726D03*
X158300000Y-84475000D03*
D11*
X158300000Y-86125000D03*
D10*
X158300000Y-87775000D03*
X159466726Y-84958274D03*
X159466726Y-87291726D03*
X159950000Y-86125000D03*
%TD*%
%TO.N,GND*%
%TO.C,H1*%
X174675000Y-64650000D03*
X175158274Y-63483274D03*
X175158274Y-65816726D03*
X176325000Y-63000000D03*
D11*
X176325000Y-64650000D03*
D10*
X176325000Y-66300000D03*
X177491726Y-63483274D03*
X177491726Y-65816726D03*
X177975000Y-64650000D03*
%TD*%
D12*
%TO.N,+3.3V*%
X178150000Y-78125000D03*
%TO.N,GND*%
X163150000Y-76950000D03*
X162075000Y-70825000D03*
X162100000Y-68150000D03*
X163400000Y-72075000D03*
X168225000Y-66750000D03*
X171325000Y-82650000D03*
X160375000Y-73475000D03*
X161800000Y-76750000D03*
X178415000Y-67505000D03*
X164450000Y-75425000D03*
X165650000Y-75050000D03*
X170800000Y-86107500D03*
X173650000Y-87075000D03*
X173675000Y-85325000D03*
X173875000Y-79650000D03*
X176575000Y-76750000D03*
X177425000Y-76650000D03*
X176925000Y-76025000D03*
X175900000Y-73500000D03*
X173575000Y-69975000D03*
X161900000Y-73247000D03*
X160375000Y-69125000D03*
X158950000Y-79500000D03*
X159000000Y-78025000D03*
X157825000Y-77175000D03*
X157625000Y-81000000D03*
X162225000Y-82475000D03*
X162700000Y-79600000D03*
X160325000Y-81175000D03*
X160775000Y-83600000D03*
X162500000Y-86550000D03*
X164150000Y-87075000D03*
X171650000Y-87375000D03*
X169050000Y-87000000D03*
X167950000Y-86250000D03*
X164375000Y-85775000D03*
X171450000Y-73800000D03*
X169425000Y-73925000D03*
X168250000Y-71900000D03*
X168300000Y-74325000D03*
X167120000Y-81980000D03*
X168620000Y-80480000D03*
X167120000Y-80480000D03*
X165620000Y-80480000D03*
X168620000Y-78980000D03*
X167120000Y-78980000D03*
X165620000Y-78980000D03*
X168620000Y-81980000D03*
X171175000Y-77275000D03*
X171100000Y-76375000D03*
X172800000Y-75225000D03*
X177200000Y-72775000D03*
X174700000Y-68300000D03*
X176175000Y-69650000D03*
X174600000Y-71050000D03*
X171575000Y-70275000D03*
X171050000Y-71900000D03*
X172375000Y-72492000D03*
X172600000Y-73742000D03*
X171675000Y-74717000D03*
X161075000Y-68275000D03*
X160350000Y-70650000D03*
X159750000Y-68625000D03*
X156850000Y-68075000D03*
X158350000Y-63100000D03*
X161750000Y-64025000D03*
X160000000Y-63400000D03*
X166725000Y-64150000D03*
X166750000Y-63175000D03*
X172325000Y-63900000D03*
X173025000Y-63200000D03*
X172325000Y-63200000D03*
X168725000Y-63900000D03*
X169425000Y-63200000D03*
X168725000Y-63200000D03*
X169425000Y-63900000D03*
X173025000Y-63900000D03*
X178575000Y-66561000D03*
X178575000Y-71731000D03*
X178575000Y-72765000D03*
X178575000Y-73799000D03*
X178575000Y-78969000D03*
X178575000Y-80003000D03*
X178575000Y-81037000D03*
X178575000Y-82071000D03*
X178575000Y-83105000D03*
X178575000Y-84139000D03*
X178575000Y-85173000D03*
X178575000Y-86207000D03*
X178575000Y-87241000D03*
X178575000Y-88275000D03*
X156000000Y-63459000D03*
X156000000Y-64493000D03*
X156000000Y-65527000D03*
X156000000Y-66561000D03*
X156000000Y-67595000D03*
X156000000Y-68629000D03*
X156000000Y-70697000D03*
X156000000Y-71731000D03*
X156000000Y-73799000D03*
X156000000Y-74833000D03*
X156000000Y-75867000D03*
X156000000Y-76901000D03*
X156000000Y-77935000D03*
X156000000Y-78969000D03*
X156000000Y-80003000D03*
X156000000Y-81037000D03*
X156000000Y-82071000D03*
X156000000Y-83105000D03*
X156000000Y-84139000D03*
X156000000Y-88275000D03*
X156000000Y-62425000D03*
X174275000Y-62425000D03*
X173200000Y-62425000D03*
X172125000Y-62425000D03*
X171050000Y-62425000D03*
X169975000Y-62425000D03*
X168900000Y-62425000D03*
X165675000Y-62425000D03*
X164600000Y-62425000D03*
X163525000Y-62425000D03*
X162450000Y-62425000D03*
X161375000Y-62425000D03*
X160300000Y-62425000D03*
X159225000Y-62425000D03*
X158150000Y-62425000D03*
X157075000Y-62425000D03*
X178575000Y-62425000D03*
X177500000Y-88275000D03*
X176425000Y-88275000D03*
X175350000Y-88275000D03*
X174275000Y-88275000D03*
X173200000Y-88275000D03*
X172125000Y-88275000D03*
X171050000Y-88275000D03*
X169975000Y-88275000D03*
X168900000Y-88275000D03*
X167825000Y-88275000D03*
X166750000Y-88275000D03*
X165675000Y-88275000D03*
X164600000Y-88275000D03*
X163525000Y-88275000D03*
X162450000Y-88275000D03*
X161375000Y-88275000D03*
X160300000Y-88275000D03*
%TO.N,Net-(U5-GPIO17)*%
X159725000Y-64310000D03*
X166375000Y-76225000D03*
%TO.N,GND*%
X165050000Y-72825000D03*
X164300000Y-72000000D03*
%TO.N,/LED_TIM*%
X165025000Y-73700000D03*
%TO.N,LDO_IN*%
X159725000Y-66275000D03*
X159725000Y-66975000D03*
%TO.N,GND*%
X158450000Y-71850000D03*
X177300000Y-84030000D03*
X173400000Y-84030000D03*
X175225000Y-86200000D03*
X172750000Y-84030000D03*
X174050000Y-84030000D03*
X175320000Y-85370000D03*
X164725000Y-66275000D03*
X164725000Y-66975000D03*
X178050000Y-85380000D03*
X178040000Y-84570000D03*
X172970000Y-82260000D03*
X174370000Y-82260000D03*
X175225000Y-86900000D03*
X157750000Y-71850000D03*
X175225000Y-87600000D03*
X173670000Y-82260000D03*
X165250000Y-70767000D03*
X175660000Y-81930000D03*
X171160000Y-83540000D03*
X175350000Y-84030000D03*
X175070000Y-82260000D03*
X168825000Y-74875000D03*
X175340000Y-84650000D03*
X174700000Y-84030000D03*
X177220000Y-83350000D03*
X176000000Y-84030000D03*
X171925000Y-84525000D03*
%TO.N,+3.3V*%
X175375000Y-67475000D03*
X176025000Y-67325000D03*
X159800000Y-74875000D03*
X178500000Y-75360000D03*
X164650000Y-68550000D03*
X165350000Y-68550000D03*
X166975000Y-76200000D03*
X177575000Y-77900000D03*
X160500000Y-74875000D03*
X159800000Y-74175000D03*
X166607500Y-75625000D03*
X171542500Y-85150000D03*
X167450000Y-70767000D03*
X167150000Y-68575000D03*
X178050000Y-77500000D03*
X170800000Y-85125000D03*
X165550000Y-84850000D03*
X164900000Y-85050000D03*
X174325000Y-78657500D03*
X164650000Y-69250000D03*
X168550000Y-68230000D03*
X165350000Y-69250000D03*
X160500000Y-74175000D03*
X162225000Y-66625000D03*
%TO.N,/HP+*%
X173275000Y-68050000D03*
%TO.N,/HP-*%
X172725000Y-68525000D03*
%TO.N,/D+*%
X163130000Y-76350000D03*
%TO.N,/D-*%
X163135000Y-75650000D03*
%TO.N,/max_bit_clk*%
X177375000Y-71825000D03*
X171225000Y-79075000D03*
%TO.N,/max_data*%
X178025000Y-71150000D03*
X171700000Y-79500000D03*
%TO.N,/max_frame_clk*%
X175000000Y-72225000D03*
X171700000Y-78700000D03*
%TO.N,VUSB*%
X158475000Y-66225000D03*
X166592500Y-62525000D03*
%TO.N,/mic_data*%
X177975000Y-74425000D03*
X171225000Y-80680000D03*
%TO.N,/mic_frame_sck*%
X178025000Y-73525000D03*
X171225000Y-79880000D03*
%TO.N,/mic_sck*%
X176275000Y-76125000D03*
X171650000Y-81075000D03*
%TO.N,Net-(IC6-~{SD_MODE})*%
X178425000Y-68925000D03*
%TO.N,/max_gpio*%
X178425000Y-69570000D03*
X171200000Y-78275000D03*
%TO.N,Net-(IC6-GAIN_SLOT)*%
X178600000Y-70325000D03*
%TO.N,/MAIN_BTN*%
X170500000Y-76900000D03*
%TO.N,BAT+*%
X160975000Y-66275000D03*
X160975000Y-66975000D03*
%TO.N,Net-(IC5-~{CHRG})*%
X156625000Y-69550000D03*
X167450000Y-64617500D03*
%TO.N,Net-(U5-GPIO0)*%
X171225000Y-81480000D03*
X172357500Y-85150000D03*
X166175000Y-87850000D03*
%TO.N,RESET*%
X171875000Y-81675000D03*
X174635000Y-81650000D03*
%TO.N,Net-(U5-GPIO3)*%
X171675000Y-80275000D03*
X174635000Y-80225000D03*
%TD*%
%TA.AperFunction,Conductor*%
%TO.N,GND*%
G36*
X166359706Y-62120185D02*
G01*
X166405461Y-62172989D01*
X166415405Y-62242147D01*
X166386380Y-62305703D01*
X166380348Y-62312181D01*
X166352041Y-62340487D01*
X166352035Y-62340495D01*
X166312482Y-62409004D01*
X166312479Y-62409009D01*
X166298826Y-62459962D01*
X166292000Y-62485438D01*
X166292000Y-62564562D01*
X166305652Y-62615513D01*
X166312479Y-62640990D01*
X166312482Y-62640995D01*
X166352035Y-62709504D01*
X166352039Y-62709509D01*
X166352040Y-62709511D01*
X166407989Y-62765460D01*
X166407991Y-62765461D01*
X166407995Y-62765464D01*
X166476504Y-62805017D01*
X166476511Y-62805021D01*
X166552938Y-62825500D01*
X166552940Y-62825500D01*
X166632060Y-62825500D01*
X166632062Y-62825500D01*
X166708489Y-62805021D01*
X166777011Y-62765460D01*
X166832960Y-62709511D01*
X166872521Y-62640989D01*
X166893000Y-62564562D01*
X166893000Y-62485438D01*
X166872521Y-62409011D01*
X166872517Y-62409004D01*
X166832964Y-62340495D01*
X166832958Y-62340487D01*
X166804652Y-62312181D01*
X166771167Y-62250858D01*
X166776151Y-62181166D01*
X166818023Y-62125233D01*
X166883487Y-62100816D01*
X166892333Y-62100500D01*
X178725500Y-62100500D01*
X178792539Y-62120185D01*
X178838294Y-62172989D01*
X178849500Y-62224500D01*
X178849500Y-68625167D01*
X178829815Y-68692206D01*
X178777011Y-68737961D01*
X178707853Y-68747905D01*
X178644297Y-68718880D01*
X178637819Y-68712848D01*
X178609512Y-68684541D01*
X178609504Y-68684535D01*
X178540995Y-68644982D01*
X178540990Y-68644979D01*
X178515513Y-68638152D01*
X178464562Y-68624500D01*
X178385438Y-68624500D01*
X178347224Y-68634739D01*
X178309009Y-68644979D01*
X178309004Y-68644982D01*
X178240495Y-68684535D01*
X178240487Y-68684541D01*
X178184541Y-68740487D01*
X178184535Y-68740495D01*
X178144982Y-68809004D01*
X178144979Y-68809009D01*
X178139349Y-68830021D01*
X178124500Y-68885438D01*
X178124500Y-68964562D01*
X178125952Y-68969979D01*
X178144979Y-69040990D01*
X178144982Y-69040995D01*
X178184535Y-69109504D01*
X178184541Y-69109512D01*
X178234848Y-69159819D01*
X178268333Y-69221142D01*
X178263349Y-69290834D01*
X178234848Y-69335181D01*
X178184541Y-69385487D01*
X178184535Y-69385495D01*
X178144982Y-69454004D01*
X178144979Y-69454009D01*
X178135213Y-69490458D01*
X178124500Y-69530438D01*
X178124500Y-69609562D01*
X178138152Y-69660513D01*
X178144979Y-69685990D01*
X178144982Y-69685995D01*
X178184535Y-69754504D01*
X178184539Y-69754509D01*
X178184540Y-69754511D01*
X178240489Y-69810460D01*
X178240491Y-69810461D01*
X178240495Y-69810464D01*
X178309004Y-69850017D01*
X178309011Y-69850021D01*
X178371580Y-69866786D01*
X178431240Y-69903152D01*
X178461768Y-69965999D01*
X178453473Y-70035374D01*
X178420397Y-70077954D01*
X178421236Y-70078793D01*
X178359541Y-70140487D01*
X178359535Y-70140495D01*
X178319982Y-70209004D01*
X178319979Y-70209009D01*
X178306326Y-70259962D01*
X178299500Y-70285438D01*
X178299500Y-70364562D01*
X178313152Y-70415513D01*
X178319979Y-70440990D01*
X178319982Y-70440995D01*
X178359535Y-70509504D01*
X178359539Y-70509509D01*
X178359540Y-70509511D01*
X178415489Y-70565460D01*
X178415491Y-70565461D01*
X178415495Y-70565464D01*
X178484004Y-70605017D01*
X178484011Y-70605021D01*
X178560438Y-70625500D01*
X178560440Y-70625500D01*
X178639561Y-70625500D01*
X178639562Y-70625500D01*
X178693406Y-70611072D01*
X178763254Y-70612733D01*
X178821117Y-70651895D01*
X178848623Y-70716123D01*
X178849500Y-70730846D01*
X178849500Y-75000022D01*
X178829815Y-75067061D01*
X178777011Y-75112816D01*
X178707853Y-75122760D01*
X178663501Y-75107410D01*
X178615989Y-75079979D01*
X178615990Y-75079979D01*
X178567779Y-75067061D01*
X178539562Y-75059500D01*
X178460438Y-75059500D01*
X178432221Y-75067061D01*
X178384009Y-75079979D01*
X178384004Y-75079982D01*
X178315495Y-75119535D01*
X178315487Y-75119541D01*
X178259541Y-75175487D01*
X178259535Y-75175495D01*
X178219982Y-75244004D01*
X178219979Y-75244009D01*
X178206326Y-75294962D01*
X178199500Y-75320438D01*
X178199500Y-75399562D01*
X178202174Y-75409540D01*
X178219979Y-75475990D01*
X178219982Y-75475995D01*
X178259535Y-75544504D01*
X178259539Y-75544509D01*
X178259540Y-75544511D01*
X178315489Y-75600460D01*
X178315491Y-75600461D01*
X178315495Y-75600464D01*
X178384004Y-75640017D01*
X178384011Y-75640021D01*
X178460438Y-75660500D01*
X178460440Y-75660500D01*
X178539560Y-75660500D01*
X178539562Y-75660500D01*
X178615989Y-75640021D01*
X178663502Y-75612589D01*
X178731399Y-75596117D01*
X178797426Y-75618969D01*
X178840617Y-75673890D01*
X178849500Y-75719977D01*
X178849500Y-88453675D01*
X178829815Y-88520714D01*
X178777011Y-88566469D01*
X178725500Y-88577675D01*
X155824500Y-88577675D01*
X155757461Y-88557990D01*
X155711706Y-88505186D01*
X155700500Y-88453675D01*
X155700500Y-87810438D01*
X165874500Y-87810438D01*
X165874500Y-87889562D01*
X165888152Y-87940513D01*
X165894979Y-87965990D01*
X165894982Y-87965995D01*
X165934535Y-88034504D01*
X165934539Y-88034509D01*
X165934540Y-88034511D01*
X165990489Y-88090460D01*
X165990491Y-88090461D01*
X165990495Y-88090464D01*
X166059004Y-88130017D01*
X166059011Y-88130021D01*
X166135438Y-88150500D01*
X166135440Y-88150500D01*
X166214560Y-88150500D01*
X166214562Y-88150500D01*
X166290989Y-88130021D01*
X166359511Y-88090460D01*
X166415460Y-88034511D01*
X166455021Y-87965989D01*
X166475500Y-87889562D01*
X166475500Y-87810438D01*
X166455021Y-87734011D01*
X166455017Y-87734004D01*
X166415464Y-87665495D01*
X166415458Y-87665487D01*
X166359512Y-87609541D01*
X166359504Y-87609535D01*
X166290995Y-87569982D01*
X166290990Y-87569979D01*
X166265513Y-87563152D01*
X166214562Y-87549500D01*
X166135438Y-87549500D01*
X166097224Y-87559739D01*
X166059009Y-87569979D01*
X166059004Y-87569982D01*
X165990495Y-87609535D01*
X165990487Y-87609541D01*
X165934541Y-87665487D01*
X165934535Y-87665495D01*
X165894982Y-87734004D01*
X165894979Y-87734009D01*
X165881326Y-87784962D01*
X165874500Y-87810438D01*
X155700500Y-87810438D01*
X155700500Y-85010438D01*
X164599500Y-85010438D01*
X164599500Y-85089562D01*
X164605094Y-85110438D01*
X164619979Y-85165990D01*
X164619982Y-85165995D01*
X164659535Y-85234504D01*
X164659539Y-85234509D01*
X164659540Y-85234511D01*
X164715489Y-85290460D01*
X164715491Y-85290461D01*
X164715495Y-85290464D01*
X164748486Y-85309511D01*
X164784011Y-85330021D01*
X164860438Y-85350500D01*
X164860440Y-85350500D01*
X164939560Y-85350500D01*
X164939562Y-85350500D01*
X165015989Y-85330021D01*
X165084511Y-85290460D01*
X165140460Y-85234511D01*
X165180021Y-85165989D01*
X165180568Y-85163944D01*
X165181501Y-85162414D01*
X165183130Y-85158482D01*
X165183742Y-85158735D01*
X165216926Y-85104286D01*
X165279770Y-85073751D01*
X165349146Y-85082039D01*
X165362343Y-85088644D01*
X165389436Y-85104286D01*
X165434011Y-85130021D01*
X165510438Y-85150500D01*
X165510440Y-85150500D01*
X165589560Y-85150500D01*
X165589562Y-85150500D01*
X165665989Y-85130021D01*
X165734511Y-85090460D01*
X165739533Y-85085438D01*
X170499500Y-85085438D01*
X170499500Y-85164562D01*
X170506199Y-85189562D01*
X170519979Y-85240990D01*
X170519982Y-85240995D01*
X170559535Y-85309504D01*
X170559539Y-85309509D01*
X170559540Y-85309511D01*
X170615489Y-85365460D01*
X170615491Y-85365461D01*
X170615495Y-85365464D01*
X170658787Y-85390458D01*
X170684011Y-85405021D01*
X170760438Y-85425500D01*
X170760440Y-85425500D01*
X170839560Y-85425500D01*
X170839562Y-85425500D01*
X170915989Y-85405021D01*
X170984511Y-85365460D01*
X171040460Y-85309511D01*
X171056645Y-85281476D01*
X171107211Y-85233261D01*
X171175817Y-85220036D01*
X171240683Y-85246003D01*
X171271419Y-85281473D01*
X171276610Y-85290464D01*
X171299447Y-85330021D01*
X171302040Y-85334511D01*
X171357989Y-85390460D01*
X171357991Y-85390461D01*
X171357995Y-85390464D01*
X171418680Y-85425500D01*
X171426511Y-85430021D01*
X171502938Y-85450500D01*
X171502940Y-85450500D01*
X171582060Y-85450500D01*
X171582062Y-85450500D01*
X171658489Y-85430021D01*
X171727011Y-85390460D01*
X171782960Y-85334511D01*
X171822521Y-85265989D01*
X171843000Y-85189562D01*
X171843000Y-85110438D01*
X172057000Y-85110438D01*
X172057000Y-85189562D01*
X172076478Y-85262256D01*
X172077479Y-85265990D01*
X172077482Y-85265995D01*
X172117035Y-85334504D01*
X172117039Y-85334509D01*
X172117040Y-85334511D01*
X172172989Y-85390460D01*
X172172991Y-85390461D01*
X172172995Y-85390464D01*
X172233680Y-85425500D01*
X172241511Y-85430021D01*
X172317938Y-85450500D01*
X172317940Y-85450500D01*
X172397060Y-85450500D01*
X172397062Y-85450500D01*
X172473489Y-85430021D01*
X172542011Y-85390460D01*
X172597960Y-85334511D01*
X172637521Y-85265989D01*
X172658000Y-85189562D01*
X172658000Y-85110438D01*
X172637521Y-85034011D01*
X172637517Y-85034004D01*
X172597964Y-84965495D01*
X172597958Y-84965487D01*
X172542012Y-84909541D01*
X172542004Y-84909535D01*
X172473495Y-84869982D01*
X172473490Y-84869979D01*
X172448013Y-84863152D01*
X172397062Y-84849500D01*
X172317938Y-84849500D01*
X172279724Y-84859739D01*
X172241509Y-84869979D01*
X172241504Y-84869982D01*
X172172995Y-84909535D01*
X172172987Y-84909541D01*
X172117041Y-84965487D01*
X172117035Y-84965495D01*
X172077482Y-85034004D01*
X172077477Y-85034015D01*
X172074000Y-85046993D01*
X172057000Y-85110438D01*
X171843000Y-85110438D01*
X171822521Y-85034011D01*
X171822517Y-85034004D01*
X171782964Y-84965495D01*
X171782958Y-84965487D01*
X171727012Y-84909541D01*
X171727004Y-84909535D01*
X171658495Y-84869982D01*
X171658490Y-84869979D01*
X171633013Y-84863152D01*
X171582062Y-84849500D01*
X171502938Y-84849500D01*
X171464724Y-84859739D01*
X171426509Y-84869979D01*
X171426504Y-84869982D01*
X171357995Y-84909535D01*
X171357987Y-84909541D01*
X171302041Y-84965487D01*
X171302035Y-84965495D01*
X171285852Y-84993525D01*
X171235285Y-85041740D01*
X171166677Y-85054962D01*
X171101813Y-85028994D01*
X171071078Y-84993522D01*
X171054892Y-84965487D01*
X171051642Y-84959858D01*
X171040462Y-84940492D01*
X171040458Y-84940487D01*
X170984512Y-84884541D01*
X170984504Y-84884535D01*
X170915995Y-84844982D01*
X170915990Y-84844979D01*
X170890513Y-84838152D01*
X170839562Y-84824500D01*
X170760438Y-84824500D01*
X170722224Y-84834739D01*
X170684009Y-84844979D01*
X170684004Y-84844982D01*
X170615495Y-84884535D01*
X170615487Y-84884541D01*
X170559541Y-84940487D01*
X170559535Y-84940495D01*
X170519982Y-85009004D01*
X170519979Y-85009009D01*
X170507666Y-85054962D01*
X170499500Y-85085438D01*
X165739533Y-85085438D01*
X165790460Y-85034511D01*
X165804359Y-85010438D01*
X165814125Y-84993522D01*
X165830021Y-84965989D01*
X165850500Y-84889562D01*
X165850500Y-84810438D01*
X165830021Y-84734011D01*
X165830017Y-84734004D01*
X165790464Y-84665495D01*
X165790458Y-84665487D01*
X165734512Y-84609541D01*
X165734504Y-84609535D01*
X165665995Y-84569982D01*
X165665990Y-84569979D01*
X165640513Y-84563152D01*
X165589562Y-84549500D01*
X165510438Y-84549500D01*
X165472224Y-84559739D01*
X165434009Y-84569979D01*
X165434004Y-84569982D01*
X165365495Y-84609535D01*
X165365487Y-84609541D01*
X165309541Y-84665487D01*
X165309535Y-84665495D01*
X165269982Y-84734004D01*
X165269978Y-84734012D01*
X165269429Y-84736064D01*
X165268493Y-84737599D01*
X165266870Y-84741518D01*
X165266258Y-84741264D01*
X165233062Y-84795723D01*
X165170214Y-84826251D01*
X165100839Y-84817954D01*
X165087656Y-84811355D01*
X165015989Y-84769979D01*
X165015990Y-84769979D01*
X164990513Y-84763152D01*
X164939562Y-84749500D01*
X164860438Y-84749500D01*
X164822224Y-84759739D01*
X164784009Y-84769979D01*
X164784004Y-84769982D01*
X164715495Y-84809535D01*
X164715487Y-84809541D01*
X164659541Y-84865487D01*
X164659535Y-84865495D01*
X164619982Y-84934004D01*
X164619979Y-84934009D01*
X164611410Y-84965989D01*
X164599500Y-85010438D01*
X155700500Y-85010438D01*
X155700500Y-78235438D01*
X170899500Y-78235438D01*
X170899500Y-78314562D01*
X170913138Y-78365458D01*
X170919979Y-78390990D01*
X170919982Y-78390995D01*
X170959535Y-78459504D01*
X170959539Y-78459509D01*
X170959540Y-78459511D01*
X171015489Y-78515460D01*
X171015491Y-78515461D01*
X171015495Y-78515464D01*
X171060607Y-78541509D01*
X171084011Y-78555021D01*
X171098104Y-78558797D01*
X171157766Y-78595161D01*
X171188296Y-78658007D01*
X171180002Y-78727383D01*
X171135518Y-78781261D01*
X171113472Y-78793130D01*
X171109012Y-78794977D01*
X171040495Y-78834535D01*
X171040487Y-78834541D01*
X170984541Y-78890487D01*
X170984535Y-78890495D01*
X170944982Y-78959004D01*
X170944979Y-78959009D01*
X170933862Y-79000500D01*
X170924500Y-79035438D01*
X170924500Y-79114562D01*
X170938152Y-79165513D01*
X170944979Y-79190990D01*
X170944982Y-79190995D01*
X170984535Y-79259504D01*
X170984539Y-79259509D01*
X170984540Y-79259511D01*
X171040489Y-79315460D01*
X171040491Y-79315461D01*
X171040495Y-79315464D01*
X171109004Y-79355017D01*
X171109011Y-79355021D01*
X171109015Y-79355022D01*
X171119105Y-79357726D01*
X171178765Y-79394091D01*
X171209293Y-79456938D01*
X171200998Y-79526314D01*
X171156512Y-79580191D01*
X171119105Y-79597274D01*
X171109015Y-79599977D01*
X171109004Y-79599982D01*
X171040495Y-79639535D01*
X171040487Y-79639541D01*
X170984541Y-79695487D01*
X170984535Y-79695495D01*
X170944982Y-79764004D01*
X170944979Y-79764009D01*
X170931326Y-79814962D01*
X170924500Y-79840438D01*
X170924500Y-79919562D01*
X170932925Y-79951002D01*
X170944979Y-79995990D01*
X170944982Y-79995995D01*
X170984535Y-80064504D01*
X170984539Y-80064509D01*
X170984540Y-80064511D01*
X171040489Y-80120460D01*
X171040491Y-80120461D01*
X171040495Y-80120464D01*
X171109004Y-80160017D01*
X171109011Y-80160021D01*
X171109756Y-80160220D01*
X171109776Y-80160226D01*
X171110346Y-80160573D01*
X171116518Y-80163130D01*
X171116119Y-80164092D01*
X171169435Y-80196592D01*
X171199963Y-80259439D01*
X171191667Y-80328815D01*
X171147181Y-80382692D01*
X171116457Y-80396722D01*
X171116518Y-80396870D01*
X171112400Y-80398575D01*
X171109776Y-80399774D01*
X171109013Y-80399978D01*
X171109004Y-80399982D01*
X171040495Y-80439535D01*
X171040487Y-80439541D01*
X170984541Y-80495487D01*
X170984535Y-80495495D01*
X170944982Y-80564004D01*
X170944979Y-80564009D01*
X170943994Y-80567687D01*
X170924500Y-80640438D01*
X170924500Y-80719562D01*
X170938152Y-80770513D01*
X170944979Y-80795990D01*
X170944982Y-80795995D01*
X170984535Y-80864504D01*
X170984539Y-80864509D01*
X170984540Y-80864511D01*
X171040489Y-80920460D01*
X171040491Y-80920461D01*
X171040495Y-80920464D01*
X171107249Y-80959004D01*
X171109011Y-80960021D01*
X171109756Y-80960220D01*
X171109776Y-80960226D01*
X171110346Y-80960573D01*
X171116518Y-80963130D01*
X171116119Y-80964092D01*
X171169435Y-80996592D01*
X171199963Y-81059439D01*
X171191667Y-81128815D01*
X171147181Y-81182692D01*
X171116457Y-81196722D01*
X171116518Y-81196870D01*
X171112400Y-81198575D01*
X171109776Y-81199774D01*
X171109013Y-81199978D01*
X171109004Y-81199982D01*
X171040495Y-81239535D01*
X171040487Y-81239541D01*
X170984541Y-81295487D01*
X170984535Y-81295495D01*
X170944982Y-81364004D01*
X170944979Y-81364009D01*
X170937514Y-81391870D01*
X170924500Y-81440438D01*
X170924500Y-81519562D01*
X170928372Y-81534011D01*
X170944979Y-81595990D01*
X170944982Y-81595995D01*
X170984535Y-81664504D01*
X170984539Y-81664509D01*
X170984540Y-81664511D01*
X171040489Y-81720460D01*
X171040491Y-81720461D01*
X171040495Y-81720464D01*
X171109004Y-81760017D01*
X171109007Y-81760019D01*
X171109011Y-81760021D01*
X171185438Y-81780500D01*
X171185440Y-81780500D01*
X171264560Y-81780500D01*
X171264562Y-81780500D01*
X171340989Y-81760021D01*
X171409511Y-81720460D01*
X171409511Y-81720459D01*
X171413815Y-81717975D01*
X171481715Y-81701502D01*
X171547742Y-81724355D01*
X171590933Y-81779276D01*
X171594225Y-81789168D01*
X171594978Y-81790985D01*
X171594979Y-81790989D01*
X171594980Y-81790990D01*
X171594982Y-81790995D01*
X171634535Y-81859504D01*
X171634539Y-81859509D01*
X171634540Y-81859511D01*
X171690489Y-81915460D01*
X171690491Y-81915461D01*
X171690495Y-81915464D01*
X171751180Y-81950500D01*
X171759011Y-81955021D01*
X171835438Y-81975500D01*
X171835440Y-81975500D01*
X171914560Y-81975500D01*
X171914562Y-81975500D01*
X171990989Y-81955021D01*
X172059511Y-81915460D01*
X172115460Y-81859511D01*
X172155021Y-81790989D01*
X172175500Y-81714562D01*
X172175500Y-81635438D01*
X172168801Y-81610438D01*
X174334500Y-81610438D01*
X174334500Y-81689562D01*
X174343823Y-81724355D01*
X174354979Y-81765990D01*
X174354982Y-81765995D01*
X174394535Y-81834504D01*
X174394539Y-81834509D01*
X174394540Y-81834511D01*
X174450489Y-81890460D01*
X174450491Y-81890461D01*
X174450495Y-81890464D01*
X174493787Y-81915458D01*
X174519011Y-81930021D01*
X174595438Y-81950500D01*
X174595440Y-81950500D01*
X174674560Y-81950500D01*
X174674562Y-81950500D01*
X174750989Y-81930021D01*
X174819511Y-81890460D01*
X174875460Y-81834511D01*
X174915021Y-81765989D01*
X174935500Y-81689562D01*
X174935500Y-81610438D01*
X174915021Y-81534011D01*
X174906678Y-81519560D01*
X174875464Y-81465495D01*
X174875458Y-81465487D01*
X174819512Y-81409541D01*
X174819504Y-81409535D01*
X174750995Y-81369982D01*
X174750990Y-81369979D01*
X174709855Y-81358957D01*
X174674562Y-81349500D01*
X174595438Y-81349500D01*
X174560145Y-81358957D01*
X174519009Y-81369979D01*
X174519004Y-81369982D01*
X174450495Y-81409535D01*
X174450487Y-81409541D01*
X174394541Y-81465487D01*
X174394535Y-81465495D01*
X174354982Y-81534004D01*
X174354979Y-81534009D01*
X174348280Y-81559011D01*
X174334500Y-81610438D01*
X172168801Y-81610438D01*
X172155021Y-81559011D01*
X172155017Y-81559004D01*
X172115464Y-81490495D01*
X172115458Y-81490487D01*
X172059512Y-81434541D01*
X172059504Y-81434535D01*
X171990995Y-81394982D01*
X171990992Y-81394980D01*
X171990989Y-81394979D01*
X171990985Y-81394978D01*
X171983482Y-81391870D01*
X171984113Y-81390345D01*
X171932622Y-81358957D01*
X171902097Y-81296108D01*
X171910395Y-81226733D01*
X171916988Y-81213562D01*
X171930021Y-81190989D01*
X171950500Y-81114562D01*
X171950500Y-81035438D01*
X171930021Y-80959011D01*
X171907763Y-80920458D01*
X171890464Y-80890495D01*
X171890458Y-80890487D01*
X171834512Y-80834541D01*
X171834504Y-80834535D01*
X171765993Y-80794981D01*
X171765991Y-80794980D01*
X171765989Y-80794979D01*
X171765986Y-80794978D01*
X171761530Y-80793132D01*
X171707128Y-80749289D01*
X171685065Y-80682995D01*
X171702346Y-80615296D01*
X171753484Y-80567687D01*
X171776884Y-80558800D01*
X171790989Y-80555021D01*
X171859511Y-80515460D01*
X171915460Y-80459511D01*
X171955021Y-80390989D01*
X171975500Y-80314562D01*
X171975500Y-80235438D01*
X171968524Y-80209403D01*
X171968524Y-80209401D01*
X171962103Y-80185438D01*
X174334500Y-80185438D01*
X174334500Y-80264562D01*
X174347897Y-80314560D01*
X174354979Y-80340990D01*
X174354982Y-80340995D01*
X174394535Y-80409504D01*
X174394539Y-80409509D01*
X174394540Y-80409511D01*
X174450489Y-80465460D01*
X174450491Y-80465461D01*
X174450495Y-80465464D01*
X174502501Y-80495489D01*
X174519011Y-80505021D01*
X174595438Y-80525500D01*
X174595440Y-80525500D01*
X174674560Y-80525500D01*
X174674562Y-80525500D01*
X174750989Y-80505021D01*
X174819511Y-80465460D01*
X174875460Y-80409511D01*
X174915021Y-80340989D01*
X174935500Y-80264562D01*
X174935500Y-80185438D01*
X174915021Y-80109011D01*
X174904331Y-80090495D01*
X174875464Y-80040495D01*
X174875458Y-80040487D01*
X174819512Y-79984541D01*
X174819504Y-79984535D01*
X174750995Y-79944982D01*
X174750990Y-79944979D01*
X174725513Y-79938152D01*
X174674562Y-79924500D01*
X174595438Y-79924500D01*
X174557224Y-79934739D01*
X174519009Y-79944979D01*
X174519004Y-79944982D01*
X174450495Y-79984535D01*
X174450487Y-79984541D01*
X174394541Y-80040487D01*
X174394535Y-80040495D01*
X174354982Y-80109004D01*
X174354979Y-80109009D01*
X174351911Y-80120460D01*
X174334500Y-80185438D01*
X171962103Y-80185438D01*
X171956125Y-80163130D01*
X171955021Y-80159011D01*
X171926154Y-80109011D01*
X171915464Y-80090495D01*
X171915458Y-80090487D01*
X171859510Y-80034539D01*
X171802404Y-80001569D01*
X171754189Y-79951002D01*
X171740967Y-79882394D01*
X171766935Y-79817530D01*
X171809595Y-79785201D01*
X171808951Y-79784085D01*
X171884504Y-79740464D01*
X171884503Y-79740464D01*
X171884511Y-79740460D01*
X171940460Y-79684511D01*
X171980021Y-79615989D01*
X172000500Y-79539562D01*
X172000500Y-79460438D01*
X171980021Y-79384011D01*
X171975107Y-79375500D01*
X171940464Y-79315495D01*
X171940458Y-79315487D01*
X171884512Y-79259541D01*
X171884504Y-79259535D01*
X171815995Y-79219982D01*
X171815987Y-79219978D01*
X171815440Y-79219832D01*
X171815226Y-79219774D01*
X171814657Y-79219427D01*
X171808482Y-79216870D01*
X171808880Y-79215906D01*
X171755566Y-79183411D01*
X171725036Y-79120564D01*
X171733330Y-79051189D01*
X171777815Y-78997310D01*
X171808543Y-78983277D01*
X171808482Y-78983130D01*
X171812608Y-78981421D01*
X171815226Y-78980225D01*
X171815989Y-78980021D01*
X171884511Y-78940460D01*
X171940460Y-78884511D01*
X171980021Y-78815989D01*
X172000500Y-78739562D01*
X172000500Y-78660438D01*
X171989112Y-78617938D01*
X174024500Y-78617938D01*
X174024500Y-78697062D01*
X174032625Y-78727383D01*
X174044979Y-78773490D01*
X174044982Y-78773495D01*
X174084535Y-78842004D01*
X174084539Y-78842009D01*
X174084540Y-78842011D01*
X174140489Y-78897960D01*
X174140491Y-78897961D01*
X174140495Y-78897964D01*
X174209004Y-78937517D01*
X174209011Y-78937521D01*
X174285438Y-78958000D01*
X174285440Y-78958000D01*
X174364560Y-78958000D01*
X174364562Y-78958000D01*
X174440989Y-78937521D01*
X174509511Y-78897960D01*
X174565460Y-78842011D01*
X174605021Y-78773489D01*
X174625500Y-78697062D01*
X174625500Y-78617938D01*
X174605021Y-78541511D01*
X174589981Y-78515460D01*
X174565464Y-78472995D01*
X174565458Y-78472987D01*
X174509512Y-78417041D01*
X174509504Y-78417035D01*
X174440995Y-78377482D01*
X174440990Y-78377479D01*
X174396134Y-78365460D01*
X174364562Y-78357000D01*
X174285438Y-78357000D01*
X174253873Y-78365458D01*
X174209009Y-78377479D01*
X174209004Y-78377482D01*
X174140495Y-78417035D01*
X174140487Y-78417041D01*
X174084541Y-78472987D01*
X174084535Y-78472995D01*
X174044982Y-78541504D01*
X174044979Y-78541509D01*
X174041360Y-78555017D01*
X174024500Y-78617938D01*
X171989112Y-78617938D01*
X171980021Y-78584011D01*
X171963284Y-78555021D01*
X171940464Y-78515495D01*
X171940458Y-78515487D01*
X171884512Y-78459541D01*
X171884504Y-78459535D01*
X171815995Y-78419982D01*
X171815990Y-78419979D01*
X171790513Y-78413152D01*
X171739562Y-78399500D01*
X171660438Y-78399500D01*
X171660437Y-78399500D01*
X171656590Y-78400531D01*
X171653219Y-78400450D01*
X171652381Y-78400561D01*
X171652363Y-78400430D01*
X171586740Y-78398866D01*
X171528879Y-78359702D01*
X171501376Y-78295472D01*
X171500500Y-78280755D01*
X171500500Y-78235439D01*
X171500185Y-78234262D01*
X171480021Y-78159011D01*
X171469311Y-78140460D01*
X171440464Y-78090495D01*
X171440458Y-78090487D01*
X171384512Y-78034541D01*
X171384504Y-78034535D01*
X171315995Y-77994982D01*
X171315990Y-77994979D01*
X171290513Y-77988152D01*
X171239562Y-77974500D01*
X171160438Y-77974500D01*
X171122224Y-77984739D01*
X171084009Y-77994979D01*
X171084004Y-77994982D01*
X171015495Y-78034535D01*
X171015487Y-78034541D01*
X170959541Y-78090487D01*
X170959535Y-78090495D01*
X170919982Y-78159004D01*
X170919979Y-78159009D01*
X170914349Y-78180021D01*
X170899500Y-78235438D01*
X155700500Y-78235438D01*
X155700500Y-77860438D01*
X177274500Y-77860438D01*
X177274500Y-77939562D01*
X177283862Y-77974500D01*
X177294979Y-78015990D01*
X177294982Y-78015995D01*
X177334535Y-78084504D01*
X177334539Y-78084509D01*
X177334540Y-78084511D01*
X177390489Y-78140460D01*
X177390491Y-78140461D01*
X177390495Y-78140464D01*
X177454802Y-78177591D01*
X177459011Y-78180021D01*
X177535438Y-78200500D01*
X177535440Y-78200500D01*
X177614560Y-78200500D01*
X177614562Y-78200500D01*
X177690989Y-78180021D01*
X177692596Y-78179092D01*
X177694123Y-78178722D01*
X177698499Y-78176910D01*
X177698781Y-78177591D01*
X177760490Y-78162615D01*
X177826520Y-78185460D01*
X177865375Y-78234262D01*
X177865915Y-78233951D01*
X177867991Y-78237547D01*
X177869163Y-78239019D01*
X177869980Y-78240993D01*
X177909535Y-78309504D01*
X177909539Y-78309509D01*
X177909540Y-78309511D01*
X177965489Y-78365460D01*
X177965491Y-78365461D01*
X177965495Y-78365464D01*
X178009708Y-78390990D01*
X178034011Y-78405021D01*
X178110438Y-78425500D01*
X178110440Y-78425500D01*
X178189560Y-78425500D01*
X178189562Y-78425500D01*
X178265989Y-78405021D01*
X178334511Y-78365460D01*
X178390460Y-78309511D01*
X178430021Y-78240989D01*
X178450500Y-78164562D01*
X178450500Y-78085438D01*
X178430021Y-78009011D01*
X178430017Y-78009004D01*
X178390464Y-77940495D01*
X178390458Y-77940487D01*
X178334512Y-77884541D01*
X178334507Y-77884537D01*
X178319721Y-77876001D01*
X178271504Y-77825435D01*
X178258280Y-77756828D01*
X178284247Y-77691963D01*
X178287890Y-77687858D01*
X178290454Y-77684516D01*
X178290460Y-77684511D01*
X178330021Y-77615989D01*
X178350500Y-77539562D01*
X178350500Y-77460438D01*
X178330021Y-77384011D01*
X178330017Y-77384004D01*
X178290464Y-77315495D01*
X178290458Y-77315487D01*
X178234512Y-77259541D01*
X178234504Y-77259535D01*
X178165995Y-77219982D01*
X178165990Y-77219979D01*
X178140513Y-77213152D01*
X178089562Y-77199500D01*
X178010438Y-77199500D01*
X177972224Y-77209739D01*
X177934009Y-77219979D01*
X177934004Y-77219982D01*
X177865495Y-77259535D01*
X177865487Y-77259541D01*
X177809541Y-77315487D01*
X177809535Y-77315495D01*
X177769982Y-77384004D01*
X177769979Y-77384009D01*
X177749500Y-77460439D01*
X177749500Y-77475869D01*
X177729815Y-77542908D01*
X177677011Y-77588663D01*
X177622690Y-77596812D01*
X177622690Y-77599500D01*
X177614562Y-77599500D01*
X177535438Y-77599500D01*
X177497224Y-77609739D01*
X177459009Y-77619979D01*
X177459004Y-77619982D01*
X177390495Y-77659535D01*
X177390487Y-77659541D01*
X177334541Y-77715487D01*
X177334535Y-77715495D01*
X177294982Y-77784004D01*
X177294979Y-77784009D01*
X177284130Y-77824500D01*
X177274500Y-77860438D01*
X155700500Y-77860438D01*
X155700500Y-76860438D01*
X170199500Y-76860438D01*
X170199500Y-76939562D01*
X170213152Y-76990513D01*
X170219979Y-77015990D01*
X170219982Y-77015995D01*
X170259535Y-77084504D01*
X170259539Y-77084509D01*
X170259540Y-77084511D01*
X170315489Y-77140460D01*
X170315491Y-77140461D01*
X170315495Y-77140464D01*
X170384004Y-77180017D01*
X170384011Y-77180021D01*
X170460438Y-77200500D01*
X170460440Y-77200500D01*
X170539560Y-77200500D01*
X170539562Y-77200500D01*
X170615989Y-77180021D01*
X170684511Y-77140460D01*
X170740460Y-77084511D01*
X170780021Y-77015989D01*
X170800500Y-76939562D01*
X170800500Y-76860438D01*
X170780021Y-76784011D01*
X170780017Y-76784004D01*
X170740464Y-76715495D01*
X170740458Y-76715487D01*
X170684512Y-76659541D01*
X170684504Y-76659535D01*
X170615995Y-76619982D01*
X170615990Y-76619979D01*
X170590513Y-76613152D01*
X170539562Y-76599500D01*
X170460438Y-76599500D01*
X170422224Y-76609739D01*
X170384009Y-76619979D01*
X170384004Y-76619982D01*
X170315495Y-76659535D01*
X170315487Y-76659541D01*
X170259541Y-76715487D01*
X170259535Y-76715495D01*
X170219982Y-76784004D01*
X170219979Y-76784009D01*
X170206326Y-76834962D01*
X170199500Y-76860438D01*
X155700500Y-76860438D01*
X155700500Y-76310438D01*
X162829500Y-76310438D01*
X162829500Y-76389562D01*
X162834846Y-76409512D01*
X162849979Y-76465990D01*
X162849982Y-76465995D01*
X162889535Y-76534504D01*
X162889539Y-76534509D01*
X162889540Y-76534511D01*
X162945489Y-76590460D01*
X162945491Y-76590461D01*
X162945495Y-76590464D01*
X162996623Y-76619982D01*
X163014011Y-76630021D01*
X163090438Y-76650500D01*
X163090440Y-76650500D01*
X163169560Y-76650500D01*
X163169562Y-76650500D01*
X163245989Y-76630021D01*
X163314511Y-76590460D01*
X163370460Y-76534511D01*
X163410021Y-76465989D01*
X163430500Y-76389562D01*
X163430500Y-76310438D01*
X163410021Y-76234011D01*
X163381978Y-76185438D01*
X166074500Y-76185438D01*
X166074500Y-76264562D01*
X166086542Y-76309504D01*
X166094979Y-76340990D01*
X166094982Y-76340995D01*
X166134535Y-76409504D01*
X166134539Y-76409509D01*
X166134540Y-76409511D01*
X166190489Y-76465460D01*
X166190491Y-76465461D01*
X166190495Y-76465464D01*
X166251180Y-76500500D01*
X166259011Y-76505021D01*
X166335438Y-76525500D01*
X166335440Y-76525500D01*
X166414560Y-76525500D01*
X166414562Y-76525500D01*
X166490989Y-76505021D01*
X166559511Y-76465460D01*
X166599819Y-76425152D01*
X166661142Y-76391667D01*
X166730834Y-76396651D01*
X166775181Y-76425152D01*
X166790489Y-76440460D01*
X166790491Y-76440461D01*
X166790495Y-76440464D01*
X166834708Y-76465990D01*
X166859011Y-76480021D01*
X166935438Y-76500500D01*
X166935440Y-76500500D01*
X167014560Y-76500500D01*
X167014562Y-76500500D01*
X167090989Y-76480021D01*
X167159511Y-76440460D01*
X167215460Y-76384511D01*
X167255021Y-76315989D01*
X167275500Y-76239562D01*
X167275500Y-76160438D01*
X167261825Y-76109403D01*
X167261825Y-76109401D01*
X167255403Y-76085438D01*
X175974500Y-76085438D01*
X175974500Y-76164562D01*
X175979094Y-76181706D01*
X175994979Y-76240990D01*
X175994982Y-76240995D01*
X176034535Y-76309504D01*
X176034539Y-76309509D01*
X176034540Y-76309511D01*
X176090489Y-76365460D01*
X176090491Y-76365461D01*
X176090495Y-76365464D01*
X176159004Y-76405017D01*
X176159011Y-76405021D01*
X176235438Y-76425500D01*
X176235440Y-76425500D01*
X176314560Y-76425500D01*
X176314562Y-76425500D01*
X176390989Y-76405021D01*
X176459511Y-76365460D01*
X176515460Y-76309511D01*
X176555021Y-76240989D01*
X176575500Y-76164562D01*
X176575500Y-76085438D01*
X176555021Y-76009011D01*
X176551479Y-76002876D01*
X176515464Y-75940495D01*
X176515458Y-75940487D01*
X176459512Y-75884541D01*
X176459504Y-75884535D01*
X176390995Y-75844982D01*
X176390990Y-75844979D01*
X176351926Y-75834512D01*
X176314562Y-75824500D01*
X176235438Y-75824500D01*
X176198103Y-75834504D01*
X176159009Y-75844979D01*
X176159004Y-75844982D01*
X176090495Y-75884535D01*
X176090487Y-75884541D01*
X176034541Y-75940487D01*
X176034535Y-75940495D01*
X175994982Y-76009004D01*
X175994979Y-76009009D01*
X175984130Y-76049500D01*
X175974500Y-76085438D01*
X167255403Y-76085438D01*
X167255022Y-76084015D01*
X167255021Y-76084011D01*
X167245782Y-76068008D01*
X167215464Y-76015495D01*
X167215458Y-76015487D01*
X167159512Y-75959541D01*
X167159504Y-75959535D01*
X167090995Y-75919982D01*
X167090990Y-75919979D01*
X167065513Y-75913152D01*
X167014562Y-75899500D01*
X167006648Y-75899500D01*
X166939609Y-75879815D01*
X166893854Y-75827011D01*
X166883910Y-75757853D01*
X166886873Y-75743406D01*
X166901301Y-75689562D01*
X166908000Y-75664562D01*
X166908000Y-75585438D01*
X166887521Y-75509011D01*
X166887517Y-75509004D01*
X166847964Y-75440495D01*
X166847958Y-75440487D01*
X166792012Y-75384541D01*
X166792004Y-75384535D01*
X166723495Y-75344982D01*
X166723490Y-75344979D01*
X166698013Y-75338152D01*
X166647062Y-75324500D01*
X166567938Y-75324500D01*
X166529724Y-75334739D01*
X166491509Y-75344979D01*
X166491504Y-75344982D01*
X166422995Y-75384535D01*
X166422987Y-75384541D01*
X166367041Y-75440487D01*
X166367035Y-75440495D01*
X166327482Y-75509004D01*
X166327479Y-75509009D01*
X166317966Y-75544512D01*
X166307000Y-75585438D01*
X166307000Y-75664562D01*
X166313699Y-75689562D01*
X166327479Y-75740990D01*
X166327481Y-75740993D01*
X166339501Y-75761813D01*
X166355972Y-75829713D01*
X166333119Y-75895740D01*
X166278197Y-75938929D01*
X166264218Y-75943583D01*
X166259015Y-75944977D01*
X166259004Y-75944982D01*
X166190495Y-75984535D01*
X166190487Y-75984541D01*
X166134541Y-76040487D01*
X166134535Y-76040495D01*
X166094982Y-76109004D01*
X166094979Y-76109009D01*
X166081326Y-76159962D01*
X166074500Y-76185438D01*
X163381978Y-76185438D01*
X163370460Y-76165489D01*
X163314511Y-76109540D01*
X163293903Y-76097642D01*
X163279657Y-76080385D01*
X163274358Y-76068008D01*
X163265066Y-76058263D01*
X163260874Y-76036514D01*
X163252158Y-76016155D01*
X163254391Y-76002876D01*
X163251844Y-75989656D01*
X163260075Y-75969095D01*
X163263750Y-75947253D01*
X163272808Y-75937290D01*
X163277812Y-75924791D01*
X163307788Y-75898816D01*
X163310752Y-75895557D01*
X163311907Y-75895247D01*
X163313282Y-75894055D01*
X163319511Y-75890460D01*
X163375460Y-75834511D01*
X163415021Y-75765989D01*
X163435500Y-75689562D01*
X163435500Y-75610438D01*
X163415021Y-75534011D01*
X163415017Y-75534004D01*
X163375464Y-75465495D01*
X163375458Y-75465487D01*
X163319512Y-75409541D01*
X163319504Y-75409535D01*
X163250995Y-75369982D01*
X163250990Y-75369979D01*
X163225513Y-75363152D01*
X163174562Y-75349500D01*
X163095438Y-75349500D01*
X163057224Y-75359739D01*
X163019009Y-75369979D01*
X163019004Y-75369982D01*
X162950495Y-75409535D01*
X162950487Y-75409541D01*
X162894541Y-75465487D01*
X162894535Y-75465495D01*
X162854982Y-75534004D01*
X162854979Y-75534009D01*
X162852167Y-75544504D01*
X162834500Y-75610438D01*
X162834500Y-75689562D01*
X162842650Y-75719977D01*
X162854979Y-75765990D01*
X162854982Y-75765995D01*
X162894535Y-75834504D01*
X162894539Y-75834509D01*
X162894540Y-75834511D01*
X162950489Y-75890460D01*
X162950490Y-75890461D01*
X162950492Y-75890462D01*
X162951713Y-75891167D01*
X162952537Y-75892031D01*
X162956940Y-75895410D01*
X162956413Y-75896096D01*
X162999931Y-75941732D01*
X163013156Y-76010339D01*
X162987190Y-76075204D01*
X162951722Y-76105940D01*
X162945495Y-76109535D01*
X162945487Y-76109541D01*
X162889541Y-76165487D01*
X162889535Y-76165495D01*
X162849982Y-76234004D01*
X162849979Y-76234009D01*
X162836326Y-76284962D01*
X162829500Y-76310438D01*
X155700500Y-76310438D01*
X155700500Y-74135438D01*
X159499500Y-74135438D01*
X159499500Y-74214562D01*
X159506449Y-74240495D01*
X159519979Y-74290990D01*
X159519982Y-74290995D01*
X159559535Y-74359504D01*
X159559539Y-74359509D01*
X159559540Y-74359511D01*
X159615489Y-74415460D01*
X159615490Y-74415461D01*
X159615492Y-74415462D01*
X159619219Y-74417614D01*
X159621734Y-74420252D01*
X159621940Y-74420410D01*
X159621915Y-74420442D01*
X159667434Y-74468182D01*
X159680655Y-74536789D01*
X159654686Y-74601653D01*
X159619219Y-74632386D01*
X159615492Y-74634537D01*
X159615487Y-74634541D01*
X159559541Y-74690487D01*
X159559535Y-74690495D01*
X159519982Y-74759004D01*
X159519979Y-74759009D01*
X159509476Y-74798207D01*
X159499500Y-74835438D01*
X159499500Y-74914562D01*
X159513152Y-74965513D01*
X159519979Y-74990990D01*
X159519982Y-74990995D01*
X159559535Y-75059504D01*
X159559539Y-75059509D01*
X159559540Y-75059511D01*
X159615489Y-75115460D01*
X159615491Y-75115461D01*
X159615495Y-75115464D01*
X159684004Y-75155017D01*
X159684011Y-75155021D01*
X159760438Y-75175500D01*
X159760440Y-75175500D01*
X159839560Y-75175500D01*
X159839562Y-75175500D01*
X159915989Y-75155021D01*
X159984511Y-75115460D01*
X160040460Y-75059511D01*
X160042612Y-75055782D01*
X160045252Y-75053265D01*
X160045410Y-75053060D01*
X160045442Y-75053084D01*
X160093177Y-75007568D01*
X160161784Y-74994343D01*
X160226649Y-75020310D01*
X160257386Y-75055781D01*
X160259540Y-75059511D01*
X160315489Y-75115460D01*
X160315491Y-75115461D01*
X160315495Y-75115464D01*
X160384004Y-75155017D01*
X160384011Y-75155021D01*
X160460438Y-75175500D01*
X160460440Y-75175500D01*
X160539560Y-75175500D01*
X160539562Y-75175500D01*
X160615989Y-75155021D01*
X160684511Y-75115460D01*
X160740460Y-75059511D01*
X160780021Y-74990989D01*
X160800500Y-74914562D01*
X160800500Y-74835438D01*
X160780021Y-74759011D01*
X160748850Y-74705021D01*
X160740464Y-74690495D01*
X160740458Y-74690487D01*
X160684512Y-74634541D01*
X160684511Y-74634540D01*
X160680782Y-74632387D01*
X160678265Y-74629747D01*
X160678060Y-74629590D01*
X160678084Y-74629557D01*
X160632568Y-74581823D01*
X160619343Y-74513216D01*
X160645310Y-74448351D01*
X160648724Y-74444197D01*
X160662487Y-74428174D01*
X160684511Y-74415460D01*
X160727698Y-74372273D01*
X174889500Y-74372273D01*
X174889500Y-74477727D01*
X174916793Y-74579587D01*
X174969520Y-74670913D01*
X175044087Y-74745480D01*
X175135413Y-74798207D01*
X175237273Y-74825500D01*
X175237275Y-74825500D01*
X175342725Y-74825500D01*
X175342727Y-74825500D01*
X175444587Y-74798207D01*
X175535913Y-74745480D01*
X175610480Y-74670913D01*
X175663207Y-74579587D01*
X175690500Y-74477727D01*
X175690500Y-74385438D01*
X177674500Y-74385438D01*
X177674500Y-74464562D01*
X177678028Y-74477727D01*
X177694979Y-74540990D01*
X177694982Y-74540995D01*
X177734535Y-74609504D01*
X177734539Y-74609509D01*
X177734540Y-74609511D01*
X177790489Y-74665460D01*
X177790491Y-74665461D01*
X177790495Y-74665464D01*
X177833851Y-74690495D01*
X177859011Y-74705021D01*
X177935438Y-74725500D01*
X177935440Y-74725500D01*
X178014560Y-74725500D01*
X178014562Y-74725500D01*
X178090989Y-74705021D01*
X178159511Y-74665460D01*
X178215460Y-74609511D01*
X178255021Y-74540989D01*
X178275500Y-74464562D01*
X178275500Y-74385438D01*
X178255021Y-74309011D01*
X178244620Y-74290995D01*
X178215464Y-74240495D01*
X178215458Y-74240487D01*
X178159512Y-74184541D01*
X178159504Y-74184535D01*
X178090995Y-74144982D01*
X178090990Y-74144979D01*
X178055382Y-74135438D01*
X178014562Y-74124500D01*
X177935438Y-74124500D01*
X177897224Y-74134739D01*
X177859009Y-74144979D01*
X177859004Y-74144982D01*
X177790495Y-74184535D01*
X177790487Y-74184541D01*
X177734541Y-74240487D01*
X177734535Y-74240495D01*
X177694982Y-74309004D01*
X177694979Y-74309009D01*
X177681449Y-74359504D01*
X177674500Y-74385438D01*
X175690500Y-74385438D01*
X175690500Y-74372273D01*
X175663207Y-74270413D01*
X175610480Y-74179087D01*
X175535913Y-74104520D01*
X175444587Y-74051793D01*
X175342727Y-74024500D01*
X175237273Y-74024500D01*
X175135413Y-74051793D01*
X175135410Y-74051794D01*
X175044085Y-74104521D01*
X174969521Y-74179085D01*
X174916794Y-74270410D01*
X174916793Y-74270413D01*
X174889500Y-74372273D01*
X160727698Y-74372273D01*
X160740460Y-74359511D01*
X160780021Y-74290989D01*
X160800500Y-74214562D01*
X160800500Y-74135438D01*
X160780021Y-74059011D01*
X160770450Y-74042434D01*
X160740464Y-73990495D01*
X160740458Y-73990487D01*
X160684512Y-73934541D01*
X160684504Y-73934535D01*
X160615995Y-73894982D01*
X160615990Y-73894979D01*
X160576926Y-73884512D01*
X160539562Y-73874500D01*
X160460438Y-73874500D01*
X160423103Y-73884504D01*
X160384009Y-73894979D01*
X160384004Y-73894982D01*
X160315495Y-73934535D01*
X160315487Y-73934541D01*
X160259541Y-73990487D01*
X160259537Y-73990492D01*
X160257386Y-73994219D01*
X160254747Y-73996734D01*
X160254590Y-73996940D01*
X160254557Y-73996915D01*
X160206818Y-74042434D01*
X160138211Y-74055655D01*
X160073347Y-74029686D01*
X160042614Y-73994219D01*
X160040462Y-73990492D01*
X160040458Y-73990487D01*
X159984512Y-73934541D01*
X159984504Y-73934535D01*
X159915995Y-73894982D01*
X159915990Y-73894979D01*
X159876926Y-73884512D01*
X159839562Y-73874500D01*
X159760438Y-73874500D01*
X159723103Y-73884504D01*
X159684009Y-73894979D01*
X159684004Y-73894982D01*
X159615495Y-73934535D01*
X159615487Y-73934541D01*
X159559541Y-73990487D01*
X159559535Y-73990495D01*
X159519982Y-74059004D01*
X159519979Y-74059009D01*
X159507785Y-74104520D01*
X159499500Y-74135438D01*
X155700500Y-74135438D01*
X155700500Y-73660438D01*
X164724500Y-73660438D01*
X164724500Y-73739562D01*
X164731441Y-73765464D01*
X164744979Y-73815990D01*
X164744982Y-73815995D01*
X164784535Y-73884504D01*
X164784539Y-73884509D01*
X164784540Y-73884511D01*
X164840489Y-73940460D01*
X164840491Y-73940461D01*
X164840495Y-73940464D01*
X164909004Y-73980017D01*
X164909011Y-73980021D01*
X164985438Y-74000500D01*
X164985440Y-74000500D01*
X165064560Y-74000500D01*
X165064562Y-74000500D01*
X165140989Y-73980021D01*
X165209511Y-73940460D01*
X165265460Y-73884511D01*
X165305021Y-73815989D01*
X165325500Y-73739562D01*
X165325500Y-73660438D01*
X165305021Y-73584011D01*
X165265460Y-73515489D01*
X165235409Y-73485438D01*
X177724500Y-73485438D01*
X177724500Y-73564562D01*
X177738152Y-73615513D01*
X177744979Y-73640990D01*
X177744982Y-73640995D01*
X177784535Y-73709504D01*
X177784539Y-73709509D01*
X177784540Y-73709511D01*
X177840489Y-73765460D01*
X177840491Y-73765461D01*
X177840495Y-73765464D01*
X177909004Y-73805017D01*
X177909011Y-73805021D01*
X177985438Y-73825500D01*
X177985440Y-73825500D01*
X178064560Y-73825500D01*
X178064562Y-73825500D01*
X178140989Y-73805021D01*
X178209511Y-73765460D01*
X178265460Y-73709511D01*
X178305021Y-73640989D01*
X178325500Y-73564562D01*
X178325500Y-73485438D01*
X178305021Y-73409011D01*
X178299530Y-73399500D01*
X178265464Y-73340495D01*
X178265458Y-73340487D01*
X178209512Y-73284541D01*
X178209504Y-73284535D01*
X178140995Y-73244982D01*
X178140990Y-73244979D01*
X178115513Y-73238152D01*
X178064562Y-73224500D01*
X177985438Y-73224500D01*
X177947224Y-73234739D01*
X177909009Y-73244979D01*
X177909004Y-73244982D01*
X177840495Y-73284535D01*
X177840487Y-73284541D01*
X177784541Y-73340487D01*
X177784535Y-73340495D01*
X177744982Y-73409004D01*
X177744979Y-73409009D01*
X177742040Y-73419979D01*
X177724500Y-73485438D01*
X165235409Y-73485438D01*
X165209511Y-73459540D01*
X165209509Y-73459539D01*
X165209504Y-73459535D01*
X165140995Y-73419982D01*
X165140990Y-73419979D01*
X165115513Y-73413152D01*
X165064562Y-73399500D01*
X164985438Y-73399500D01*
X164949951Y-73409009D01*
X164909009Y-73419979D01*
X164909004Y-73419982D01*
X164840495Y-73459535D01*
X164840487Y-73459541D01*
X164784541Y-73515487D01*
X164784535Y-73515495D01*
X164744982Y-73584004D01*
X164744979Y-73584009D01*
X164731326Y-73634962D01*
X164724500Y-73660438D01*
X155700500Y-73660438D01*
X155700500Y-72185438D01*
X174699500Y-72185438D01*
X174699500Y-72264562D01*
X174713152Y-72315513D01*
X174719979Y-72340990D01*
X174719982Y-72340995D01*
X174759535Y-72409504D01*
X174759539Y-72409509D01*
X174759540Y-72409511D01*
X174815489Y-72465460D01*
X174815491Y-72465461D01*
X174815495Y-72465464D01*
X174884004Y-72505017D01*
X174884011Y-72505021D01*
X174960438Y-72525500D01*
X174960440Y-72525500D01*
X175039560Y-72525500D01*
X175039562Y-72525500D01*
X175115989Y-72505021D01*
X175184511Y-72465460D01*
X175240460Y-72409511D01*
X175280021Y-72340989D01*
X175300500Y-72264562D01*
X175300500Y-72185438D01*
X175280021Y-72109011D01*
X175277715Y-72105017D01*
X175240464Y-72040495D01*
X175240458Y-72040487D01*
X175184512Y-71984541D01*
X175184504Y-71984535D01*
X175115995Y-71944982D01*
X175115990Y-71944979D01*
X175090513Y-71938152D01*
X175039562Y-71924500D01*
X174960438Y-71924500D01*
X174922224Y-71934739D01*
X174884009Y-71944979D01*
X174884004Y-71944982D01*
X174815495Y-71984535D01*
X174815487Y-71984541D01*
X174759541Y-72040487D01*
X174759535Y-72040495D01*
X174719982Y-72109004D01*
X174719979Y-72109009D01*
X174706326Y-72159962D01*
X174699500Y-72185438D01*
X155700500Y-72185438D01*
X155700500Y-71785438D01*
X177074500Y-71785438D01*
X177074500Y-71864562D01*
X177088152Y-71915513D01*
X177094979Y-71940990D01*
X177094982Y-71940995D01*
X177134535Y-72009504D01*
X177134539Y-72009509D01*
X177134540Y-72009511D01*
X177190489Y-72065460D01*
X177190491Y-72065461D01*
X177190495Y-72065464D01*
X177259004Y-72105017D01*
X177259011Y-72105021D01*
X177335438Y-72125500D01*
X177335440Y-72125500D01*
X177414560Y-72125500D01*
X177414562Y-72125500D01*
X177490989Y-72105021D01*
X177559511Y-72065460D01*
X177615460Y-72009511D01*
X177655021Y-71940989D01*
X177675500Y-71864562D01*
X177675500Y-71785438D01*
X177655021Y-71709011D01*
X177655017Y-71709004D01*
X177615464Y-71640495D01*
X177615458Y-71640487D01*
X177559512Y-71584541D01*
X177559504Y-71584535D01*
X177490995Y-71544982D01*
X177490990Y-71544979D01*
X177465513Y-71538152D01*
X177414562Y-71524500D01*
X177335438Y-71524500D01*
X177297224Y-71534739D01*
X177259009Y-71544979D01*
X177259004Y-71544982D01*
X177190495Y-71584535D01*
X177190487Y-71584541D01*
X177134541Y-71640487D01*
X177134535Y-71640495D01*
X177094982Y-71709004D01*
X177094979Y-71709009D01*
X177081326Y-71759962D01*
X177074500Y-71785438D01*
X155700500Y-71785438D01*
X155700500Y-71110438D01*
X177724500Y-71110438D01*
X177724500Y-71189562D01*
X177738152Y-71240513D01*
X177744979Y-71265990D01*
X177744982Y-71265995D01*
X177784535Y-71334504D01*
X177784539Y-71334509D01*
X177784540Y-71334511D01*
X177840489Y-71390460D01*
X177840491Y-71390461D01*
X177840495Y-71390464D01*
X177909004Y-71430017D01*
X177909011Y-71430021D01*
X177985438Y-71450500D01*
X177985440Y-71450500D01*
X178064560Y-71450500D01*
X178064562Y-71450500D01*
X178140989Y-71430021D01*
X178209511Y-71390460D01*
X178265460Y-71334511D01*
X178305021Y-71265989D01*
X178325500Y-71189562D01*
X178325500Y-71110438D01*
X178305021Y-71034011D01*
X178289691Y-71007458D01*
X178265464Y-70965495D01*
X178265458Y-70965487D01*
X178209512Y-70909541D01*
X178209504Y-70909535D01*
X178140995Y-70869982D01*
X178140990Y-70869979D01*
X178115513Y-70863152D01*
X178064562Y-70849500D01*
X177985438Y-70849500D01*
X177947224Y-70859739D01*
X177909009Y-70869979D01*
X177909004Y-70869982D01*
X177840495Y-70909535D01*
X177840487Y-70909541D01*
X177784541Y-70965487D01*
X177784535Y-70965495D01*
X177744982Y-71034004D01*
X177744979Y-71034009D01*
X177741494Y-71047017D01*
X177724500Y-71110438D01*
X155700500Y-71110438D01*
X155700500Y-70727438D01*
X167149500Y-70727438D01*
X167149500Y-70806562D01*
X167163152Y-70857513D01*
X167169979Y-70882990D01*
X167169982Y-70882995D01*
X167209535Y-70951504D01*
X167209539Y-70951509D01*
X167209540Y-70951511D01*
X167265489Y-71007460D01*
X167265491Y-71007461D01*
X167265495Y-71007464D01*
X167311473Y-71034009D01*
X167334011Y-71047021D01*
X167410438Y-71067500D01*
X167410440Y-71067500D01*
X167489560Y-71067500D01*
X167489562Y-71067500D01*
X167565989Y-71047021D01*
X167634511Y-71007460D01*
X167690460Y-70951511D01*
X167730021Y-70882989D01*
X167750500Y-70806562D01*
X167750500Y-70727438D01*
X167730021Y-70651011D01*
X167730017Y-70651004D01*
X167690464Y-70582495D01*
X167690458Y-70582487D01*
X167634512Y-70526541D01*
X167634504Y-70526535D01*
X167565995Y-70486982D01*
X167565990Y-70486979D01*
X167540513Y-70480152D01*
X167489562Y-70466500D01*
X167410438Y-70466500D01*
X167372224Y-70476739D01*
X167334009Y-70486979D01*
X167334004Y-70486982D01*
X167265495Y-70526535D01*
X167265487Y-70526541D01*
X167209541Y-70582487D01*
X167209535Y-70582495D01*
X167169982Y-70651004D01*
X167169979Y-70651009D01*
X167169742Y-70651895D01*
X167149500Y-70727438D01*
X155700500Y-70727438D01*
X155700500Y-69510438D01*
X156324500Y-69510438D01*
X156324500Y-69589562D01*
X156329859Y-69609560D01*
X156344979Y-69665990D01*
X156344982Y-69665995D01*
X156384535Y-69734504D01*
X156384539Y-69734509D01*
X156384540Y-69734511D01*
X156440489Y-69790460D01*
X156440491Y-69790461D01*
X156440495Y-69790464D01*
X156475130Y-69810460D01*
X156509011Y-69830021D01*
X156585438Y-69850500D01*
X156585440Y-69850500D01*
X156664560Y-69850500D01*
X156664562Y-69850500D01*
X156740989Y-69830021D01*
X156809511Y-69790460D01*
X156865460Y-69734511D01*
X156905021Y-69665989D01*
X156925500Y-69589562D01*
X156925500Y-69510438D01*
X156905021Y-69434011D01*
X156882677Y-69395310D01*
X156865464Y-69365495D01*
X156865458Y-69365487D01*
X156809512Y-69309541D01*
X156809504Y-69309535D01*
X156740995Y-69269982D01*
X156740990Y-69269979D01*
X156715513Y-69263152D01*
X156664562Y-69249500D01*
X156585438Y-69249500D01*
X156547224Y-69259739D01*
X156509009Y-69269979D01*
X156509004Y-69269982D01*
X156440495Y-69309535D01*
X156440487Y-69309541D01*
X156384541Y-69365487D01*
X156384535Y-69365495D01*
X156344982Y-69434004D01*
X156344979Y-69434009D01*
X156339620Y-69454009D01*
X156324500Y-69510438D01*
X155700500Y-69510438D01*
X155700500Y-68510438D01*
X164349500Y-68510438D01*
X164349500Y-68589562D01*
X164356199Y-68614562D01*
X164369979Y-68665990D01*
X164369982Y-68665995D01*
X164409535Y-68734504D01*
X164409539Y-68734509D01*
X164409540Y-68734511D01*
X164465489Y-68790460D01*
X164465490Y-68790461D01*
X164465492Y-68790462D01*
X164469219Y-68792614D01*
X164471734Y-68795252D01*
X164471940Y-68795410D01*
X164471915Y-68795442D01*
X164517434Y-68843182D01*
X164530655Y-68911789D01*
X164504686Y-68976653D01*
X164469219Y-69007386D01*
X164465492Y-69009537D01*
X164465487Y-69009541D01*
X164409541Y-69065487D01*
X164409535Y-69065495D01*
X164369982Y-69134004D01*
X164369979Y-69134009D01*
X164361552Y-69165460D01*
X164349500Y-69210438D01*
X164349500Y-69289562D01*
X164360212Y-69329540D01*
X164369979Y-69365990D01*
X164369982Y-69365995D01*
X164409535Y-69434504D01*
X164409539Y-69434509D01*
X164409540Y-69434511D01*
X164465489Y-69490460D01*
X164465491Y-69490461D01*
X164465495Y-69490464D01*
X164534004Y-69530017D01*
X164534011Y-69530021D01*
X164610438Y-69550500D01*
X164610440Y-69550500D01*
X164689560Y-69550500D01*
X164689562Y-69550500D01*
X164765989Y-69530021D01*
X164834511Y-69490460D01*
X164890460Y-69434511D01*
X164892612Y-69430782D01*
X164895252Y-69428265D01*
X164895410Y-69428060D01*
X164895442Y-69428084D01*
X164943177Y-69382568D01*
X165011784Y-69369343D01*
X165076649Y-69395310D01*
X165107386Y-69430781D01*
X165109540Y-69434511D01*
X165165489Y-69490460D01*
X165165491Y-69490461D01*
X165165495Y-69490464D01*
X165234004Y-69530017D01*
X165234011Y-69530021D01*
X165310438Y-69550500D01*
X165310440Y-69550500D01*
X165389560Y-69550500D01*
X165389562Y-69550500D01*
X165465989Y-69530021D01*
X165534511Y-69490460D01*
X165590460Y-69434511D01*
X165630021Y-69365989D01*
X165650500Y-69289562D01*
X165650500Y-69210438D01*
X165630021Y-69134011D01*
X165615872Y-69109504D01*
X165590464Y-69065495D01*
X165590458Y-69065487D01*
X165534512Y-69009541D01*
X165534511Y-69009540D01*
X165530782Y-69007387D01*
X165528265Y-69004747D01*
X165528060Y-69004590D01*
X165528084Y-69004557D01*
X165482568Y-68956823D01*
X165469343Y-68888216D01*
X165495310Y-68823351D01*
X165530781Y-68792613D01*
X165534511Y-68790460D01*
X165590460Y-68734511D01*
X165630021Y-68665989D01*
X165650500Y-68589562D01*
X165650500Y-68535438D01*
X166849500Y-68535438D01*
X166849500Y-68614562D01*
X166857651Y-68644982D01*
X166869979Y-68690990D01*
X166869982Y-68690995D01*
X166909535Y-68759504D01*
X166909539Y-68759509D01*
X166909540Y-68759511D01*
X166965489Y-68815460D01*
X166965491Y-68815461D01*
X166965495Y-68815464D01*
X167013505Y-68843182D01*
X167034011Y-68855021D01*
X167110438Y-68875500D01*
X167110440Y-68875500D01*
X167189560Y-68875500D01*
X167189562Y-68875500D01*
X167265989Y-68855021D01*
X167334511Y-68815460D01*
X167390460Y-68759511D01*
X167430021Y-68690989D01*
X167450500Y-68614562D01*
X167450500Y-68535438D01*
X167430021Y-68459011D01*
X167430017Y-68459004D01*
X167390464Y-68390495D01*
X167390458Y-68390487D01*
X167334512Y-68334541D01*
X167334504Y-68334535D01*
X167265992Y-68294980D01*
X167265993Y-68294980D01*
X167249117Y-68290458D01*
X167189562Y-68274500D01*
X167110438Y-68274500D01*
X167072988Y-68284535D01*
X167034009Y-68294979D01*
X167034004Y-68294982D01*
X166965495Y-68334535D01*
X166965487Y-68334541D01*
X166909541Y-68390487D01*
X166909535Y-68390495D01*
X166869982Y-68459004D01*
X166869979Y-68459009D01*
X166862897Y-68485439D01*
X166849500Y-68535438D01*
X165650500Y-68535438D01*
X165650500Y-68510438D01*
X165630021Y-68434011D01*
X165618763Y-68414511D01*
X165590464Y-68365495D01*
X165590458Y-68365487D01*
X165534512Y-68309541D01*
X165534504Y-68309535D01*
X165465995Y-68269982D01*
X165465990Y-68269979D01*
X165440513Y-68263152D01*
X165389562Y-68249500D01*
X165310438Y-68249500D01*
X165272224Y-68259739D01*
X165234009Y-68269979D01*
X165234004Y-68269982D01*
X165165495Y-68309535D01*
X165165487Y-68309541D01*
X165109541Y-68365487D01*
X165109537Y-68365492D01*
X165107386Y-68369219D01*
X165104747Y-68371734D01*
X165104590Y-68371940D01*
X165104557Y-68371915D01*
X165056818Y-68417434D01*
X164988211Y-68430655D01*
X164923347Y-68404686D01*
X164892614Y-68369219D01*
X164890462Y-68365492D01*
X164890458Y-68365487D01*
X164834512Y-68309541D01*
X164834504Y-68309535D01*
X164765995Y-68269982D01*
X164765990Y-68269979D01*
X164740513Y-68263152D01*
X164689562Y-68249500D01*
X164610438Y-68249500D01*
X164572224Y-68259739D01*
X164534009Y-68269979D01*
X164534004Y-68269982D01*
X164465495Y-68309535D01*
X164465487Y-68309541D01*
X164409541Y-68365487D01*
X164409535Y-68365495D01*
X164369982Y-68434004D01*
X164369979Y-68434009D01*
X164358358Y-68477381D01*
X164349500Y-68510438D01*
X155700500Y-68510438D01*
X155700500Y-68190438D01*
X168249500Y-68190438D01*
X168249500Y-68269562D01*
X168260211Y-68309535D01*
X168269979Y-68345990D01*
X168269982Y-68345995D01*
X168309535Y-68414504D01*
X168309539Y-68414509D01*
X168309540Y-68414511D01*
X168365489Y-68470460D01*
X168365491Y-68470461D01*
X168365495Y-68470464D01*
X168434004Y-68510017D01*
X168434011Y-68510021D01*
X168510438Y-68530500D01*
X168510440Y-68530500D01*
X168589560Y-68530500D01*
X168589562Y-68530500D01*
X168665989Y-68510021D01*
X168708568Y-68485438D01*
X172424500Y-68485438D01*
X172424500Y-68564562D01*
X172431199Y-68589562D01*
X172444979Y-68640990D01*
X172444982Y-68640995D01*
X172484535Y-68709504D01*
X172484539Y-68709509D01*
X172484540Y-68709511D01*
X172540489Y-68765460D01*
X172540491Y-68765461D01*
X172540495Y-68765464D01*
X172609004Y-68805017D01*
X172609011Y-68805021D01*
X172685438Y-68825500D01*
X172685440Y-68825500D01*
X172764560Y-68825500D01*
X172764562Y-68825500D01*
X172840989Y-68805021D01*
X172909511Y-68765460D01*
X172965460Y-68709511D01*
X173005021Y-68640989D01*
X173025500Y-68564562D01*
X173025500Y-68485438D01*
X173025499Y-68485437D01*
X173024439Y-68477381D01*
X173026128Y-68477158D01*
X173027557Y-68417065D01*
X173066719Y-68359202D01*
X173130947Y-68331697D01*
X173177763Y-68335045D01*
X173235438Y-68350500D01*
X173235439Y-68350500D01*
X173314560Y-68350500D01*
X173314562Y-68350500D01*
X173390989Y-68330021D01*
X173459511Y-68290460D01*
X173515460Y-68234511D01*
X173555021Y-68165989D01*
X173575500Y-68089562D01*
X173575500Y-68010438D01*
X173555021Y-67934011D01*
X173552417Y-67929500D01*
X173515464Y-67865495D01*
X173515458Y-67865487D01*
X173459512Y-67809541D01*
X173459504Y-67809535D01*
X173390995Y-67769982D01*
X173390990Y-67769979D01*
X173365513Y-67763152D01*
X173314562Y-67749500D01*
X173235438Y-67749500D01*
X173197224Y-67759739D01*
X173159009Y-67769979D01*
X173159004Y-67769982D01*
X173090495Y-67809535D01*
X173090487Y-67809541D01*
X173034541Y-67865487D01*
X173034535Y-67865495D01*
X172994982Y-67934004D01*
X172994979Y-67934009D01*
X172990700Y-67949979D01*
X172980100Y-67989541D01*
X172974500Y-68010439D01*
X172974500Y-68089561D01*
X172975561Y-68097619D01*
X172973874Y-68097841D01*
X172972438Y-68157946D01*
X172933270Y-68215805D01*
X172869039Y-68243303D01*
X172822236Y-68239954D01*
X172764562Y-68224500D01*
X172685438Y-68224500D01*
X172648103Y-68234504D01*
X172609009Y-68244979D01*
X172609004Y-68244982D01*
X172540495Y-68284535D01*
X172540487Y-68284541D01*
X172484541Y-68340487D01*
X172484535Y-68340495D01*
X172444982Y-68409004D01*
X172444979Y-68409009D01*
X172438280Y-68434011D01*
X172424500Y-68485438D01*
X168708568Y-68485438D01*
X168734511Y-68470460D01*
X168790460Y-68414511D01*
X168830021Y-68345989D01*
X168850500Y-68269562D01*
X168850500Y-68190438D01*
X168830021Y-68114011D01*
X168820557Y-68097619D01*
X168790464Y-68045495D01*
X168790458Y-68045487D01*
X168734512Y-67989541D01*
X168734504Y-67989535D01*
X168665995Y-67949982D01*
X168665990Y-67949979D01*
X168640513Y-67943152D01*
X168589562Y-67929500D01*
X168510438Y-67929500D01*
X168472224Y-67939739D01*
X168434009Y-67949979D01*
X168434004Y-67949982D01*
X168365495Y-67989535D01*
X168365487Y-67989541D01*
X168309541Y-68045487D01*
X168309535Y-68045495D01*
X168269982Y-68114004D01*
X168269979Y-68114009D01*
X168258206Y-68157946D01*
X168249500Y-68190438D01*
X155700500Y-68190438D01*
X155700500Y-67435438D01*
X175074500Y-67435438D01*
X175074500Y-67514562D01*
X175083704Y-67548911D01*
X175094979Y-67590990D01*
X175094982Y-67590995D01*
X175134535Y-67659504D01*
X175134539Y-67659509D01*
X175134540Y-67659511D01*
X175190489Y-67715460D01*
X175190491Y-67715461D01*
X175190495Y-67715464D01*
X175249448Y-67749500D01*
X175259011Y-67755021D01*
X175335438Y-67775500D01*
X175335440Y-67775500D01*
X175414560Y-67775500D01*
X175414562Y-67775500D01*
X175490989Y-67755021D01*
X175559511Y-67715460D01*
X175615460Y-67659511D01*
X175651478Y-67597124D01*
X175702042Y-67548911D01*
X175770648Y-67535686D01*
X175834354Y-67560752D01*
X175840494Y-67565464D01*
X175895338Y-67597127D01*
X175909011Y-67605021D01*
X175985438Y-67625500D01*
X175985440Y-67625500D01*
X176064560Y-67625500D01*
X176064562Y-67625500D01*
X176140989Y-67605021D01*
X176209511Y-67565460D01*
X176265460Y-67509511D01*
X176305021Y-67440989D01*
X176325500Y-67364562D01*
X176325500Y-67285438D01*
X176305021Y-67209011D01*
X176301478Y-67202874D01*
X176265464Y-67140495D01*
X176265458Y-67140487D01*
X176209512Y-67084541D01*
X176209504Y-67084535D01*
X176140995Y-67044982D01*
X176140990Y-67044979D01*
X176115513Y-67038152D01*
X176064562Y-67024500D01*
X175985438Y-67024500D01*
X175947224Y-67034739D01*
X175909009Y-67044979D01*
X175909004Y-67044982D01*
X175840495Y-67084535D01*
X175840487Y-67084541D01*
X175784541Y-67140487D01*
X175784537Y-67140492D01*
X175748522Y-67202874D01*
X175697956Y-67251089D01*
X175629349Y-67264313D01*
X175565647Y-67239248D01*
X175559508Y-67234537D01*
X175490995Y-67194982D01*
X175490990Y-67194979D01*
X175465513Y-67188152D01*
X175414562Y-67174500D01*
X175335438Y-67174500D01*
X175297224Y-67184739D01*
X175259009Y-67194979D01*
X175259004Y-67194982D01*
X175190495Y-67234535D01*
X175190487Y-67234541D01*
X175134541Y-67290487D01*
X175134535Y-67290495D01*
X175094982Y-67359004D01*
X175094979Y-67359009D01*
X175081326Y-67409962D01*
X175074500Y-67435438D01*
X155700500Y-67435438D01*
X155700500Y-66185438D01*
X158174500Y-66185438D01*
X158174500Y-66264562D01*
X158187897Y-66314560D01*
X158194979Y-66340990D01*
X158194982Y-66340995D01*
X158234535Y-66409504D01*
X158234539Y-66409509D01*
X158234540Y-66409511D01*
X158290489Y-66465460D01*
X158290491Y-66465461D01*
X158290495Y-66465464D01*
X158359004Y-66505017D01*
X158359011Y-66505021D01*
X158435438Y-66525500D01*
X158435440Y-66525500D01*
X158514560Y-66525500D01*
X158514562Y-66525500D01*
X158590989Y-66505021D01*
X158659511Y-66465460D01*
X158715460Y-66409511D01*
X158755021Y-66340989D01*
X158775500Y-66264562D01*
X158775500Y-66235438D01*
X159424500Y-66235438D01*
X159424500Y-66314562D01*
X159432651Y-66344982D01*
X159444979Y-66390990D01*
X159444982Y-66390995D01*
X159484535Y-66459504D01*
X159484539Y-66459509D01*
X159484540Y-66459511D01*
X159540489Y-66515460D01*
X159540490Y-66515461D01*
X159540492Y-66515462D01*
X159544219Y-66517614D01*
X159546734Y-66520252D01*
X159546940Y-66520410D01*
X159546915Y-66520442D01*
X159592434Y-66568182D01*
X159605655Y-66636789D01*
X159579686Y-66701653D01*
X159544219Y-66732386D01*
X159540492Y-66734537D01*
X159540487Y-66734541D01*
X159484541Y-66790487D01*
X159484535Y-66790495D01*
X159444982Y-66859004D01*
X159444979Y-66859009D01*
X159432651Y-66905017D01*
X159424500Y-66935438D01*
X159424500Y-67014562D01*
X159432651Y-67044982D01*
X159444979Y-67090990D01*
X159444982Y-67090995D01*
X159484535Y-67159504D01*
X159484539Y-67159509D01*
X159484540Y-67159511D01*
X159540489Y-67215460D01*
X159540491Y-67215461D01*
X159540495Y-67215464D01*
X159609004Y-67255017D01*
X159609011Y-67255021D01*
X159685438Y-67275500D01*
X159685440Y-67275500D01*
X159764560Y-67275500D01*
X159764562Y-67275500D01*
X159840989Y-67255021D01*
X159909511Y-67215460D01*
X159965460Y-67159511D01*
X160005021Y-67090989D01*
X160025500Y-67014562D01*
X160025500Y-66935438D01*
X160005021Y-66859011D01*
X159976443Y-66809512D01*
X159965464Y-66790495D01*
X159965458Y-66790487D01*
X159909512Y-66734541D01*
X159909511Y-66734540D01*
X159905782Y-66732387D01*
X159903265Y-66729747D01*
X159903060Y-66729590D01*
X159903084Y-66729557D01*
X159857568Y-66681823D01*
X159844343Y-66613216D01*
X159870310Y-66548351D01*
X159905781Y-66517613D01*
X159909511Y-66515460D01*
X159965460Y-66459511D01*
X160005021Y-66390989D01*
X160025500Y-66314562D01*
X160025500Y-66235438D01*
X160674500Y-66235438D01*
X160674500Y-66314562D01*
X160682651Y-66344982D01*
X160694979Y-66390990D01*
X160694982Y-66390995D01*
X160734535Y-66459504D01*
X160734539Y-66459509D01*
X160734540Y-66459511D01*
X160790489Y-66515460D01*
X160790490Y-66515461D01*
X160790492Y-66515462D01*
X160794219Y-66517614D01*
X160796734Y-66520252D01*
X160796940Y-66520410D01*
X160796915Y-66520442D01*
X160842434Y-66568182D01*
X160855655Y-66636789D01*
X160829686Y-66701653D01*
X160794219Y-66732386D01*
X160790492Y-66734537D01*
X160790487Y-66734541D01*
X160734541Y-66790487D01*
X160734535Y-66790495D01*
X160694982Y-66859004D01*
X160694979Y-66859009D01*
X160682651Y-66905017D01*
X160674500Y-66935438D01*
X160674500Y-67014562D01*
X160682651Y-67044982D01*
X160694979Y-67090990D01*
X160694982Y-67090995D01*
X160734535Y-67159504D01*
X160734539Y-67159509D01*
X160734540Y-67159511D01*
X160790489Y-67215460D01*
X160790491Y-67215461D01*
X160790495Y-67215464D01*
X160859004Y-67255017D01*
X160859011Y-67255021D01*
X160935438Y-67275500D01*
X160935440Y-67275500D01*
X161014560Y-67275500D01*
X161014562Y-67275500D01*
X161090989Y-67255021D01*
X161159511Y-67215460D01*
X161215460Y-67159511D01*
X161255021Y-67090989D01*
X161275500Y-67014562D01*
X161275500Y-66935438D01*
X161255021Y-66859011D01*
X161226443Y-66809512D01*
X161215464Y-66790495D01*
X161215458Y-66790487D01*
X161159512Y-66734541D01*
X161159511Y-66734540D01*
X161155782Y-66732387D01*
X161153265Y-66729747D01*
X161153060Y-66729590D01*
X161153084Y-66729557D01*
X161107568Y-66681823D01*
X161094343Y-66613216D01*
X161105463Y-66585438D01*
X161924500Y-66585438D01*
X161924500Y-66664562D01*
X161934439Y-66701653D01*
X161944979Y-66740990D01*
X161944982Y-66740995D01*
X161984535Y-66809504D01*
X161984539Y-66809509D01*
X161984540Y-66809511D01*
X162040489Y-66865460D01*
X162040491Y-66865461D01*
X162040495Y-66865464D01*
X162109004Y-66905017D01*
X162109011Y-66905021D01*
X162185438Y-66925500D01*
X162185440Y-66925500D01*
X162264560Y-66925500D01*
X162264562Y-66925500D01*
X162340989Y-66905021D01*
X162409511Y-66865460D01*
X162465460Y-66809511D01*
X162505021Y-66740989D01*
X162525500Y-66664562D01*
X162525500Y-66585438D01*
X162505021Y-66509011D01*
X162502715Y-66505017D01*
X162465464Y-66440495D01*
X162465458Y-66440487D01*
X162409512Y-66384541D01*
X162409504Y-66384535D01*
X162340995Y-66344982D01*
X162340990Y-66344979D01*
X162315513Y-66338152D01*
X162264562Y-66324500D01*
X162185438Y-66324500D01*
X162147224Y-66334739D01*
X162109009Y-66344979D01*
X162109004Y-66344982D01*
X162040495Y-66384535D01*
X162040487Y-66384541D01*
X161984541Y-66440487D01*
X161984535Y-66440495D01*
X161944982Y-66509004D01*
X161944979Y-66509009D01*
X161934438Y-66548351D01*
X161924500Y-66585438D01*
X161105463Y-66585438D01*
X161120310Y-66548351D01*
X161136751Y-66531139D01*
X161145627Y-66523475D01*
X161159511Y-66515460D01*
X161215460Y-66459511D01*
X161255021Y-66390989D01*
X161275500Y-66314562D01*
X161275500Y-66235438D01*
X161255021Y-66159011D01*
X161226154Y-66109011D01*
X161215464Y-66090495D01*
X161215458Y-66090487D01*
X161159512Y-66034541D01*
X161159504Y-66034535D01*
X161090995Y-65994982D01*
X161090990Y-65994979D01*
X161065513Y-65988152D01*
X161014562Y-65974500D01*
X160935438Y-65974500D01*
X160897988Y-65984535D01*
X160859009Y-65994979D01*
X160859004Y-65994982D01*
X160790495Y-66034535D01*
X160790487Y-66034541D01*
X160734541Y-66090487D01*
X160734535Y-66090495D01*
X160694982Y-66159004D01*
X160694979Y-66159009D01*
X160687897Y-66185439D01*
X160674500Y-66235438D01*
X160025500Y-66235438D01*
X160005021Y-66159011D01*
X159976154Y-66109011D01*
X159965464Y-66090495D01*
X159965458Y-66090487D01*
X159909512Y-66034541D01*
X159909504Y-66034535D01*
X159840995Y-65994982D01*
X159840990Y-65994979D01*
X159815513Y-65988152D01*
X159764562Y-65974500D01*
X159685438Y-65974500D01*
X159647988Y-65984535D01*
X159609009Y-65994979D01*
X159609004Y-65994982D01*
X159540495Y-66034535D01*
X159540487Y-66034541D01*
X159484541Y-66090487D01*
X159484535Y-66090495D01*
X159444982Y-66159004D01*
X159444979Y-66159009D01*
X159437897Y-66185439D01*
X159424500Y-66235438D01*
X158775500Y-66235438D01*
X158775500Y-66185438D01*
X158755021Y-66109011D01*
X158744331Y-66090495D01*
X158715464Y-66040495D01*
X158715458Y-66040487D01*
X158659512Y-65984541D01*
X158659504Y-65984535D01*
X158590995Y-65944982D01*
X158590990Y-65944979D01*
X158565513Y-65938152D01*
X158514562Y-65924500D01*
X158435438Y-65924500D01*
X158397224Y-65934739D01*
X158359009Y-65944979D01*
X158359004Y-65944982D01*
X158290495Y-65984535D01*
X158290487Y-65984541D01*
X158234541Y-66040487D01*
X158234535Y-66040495D01*
X158194982Y-66109004D01*
X158194979Y-66109009D01*
X158181583Y-66159004D01*
X158174500Y-66185438D01*
X155700500Y-66185438D01*
X155700500Y-64270438D01*
X159424500Y-64270438D01*
X159424500Y-64349562D01*
X159431862Y-64377035D01*
X159444979Y-64425990D01*
X159444982Y-64425995D01*
X159484535Y-64494504D01*
X159484537Y-64494506D01*
X159484540Y-64494511D01*
X159540489Y-64550460D01*
X159540491Y-64550461D01*
X159540495Y-64550464D01*
X159588084Y-64577939D01*
X159609011Y-64590021D01*
X159685438Y-64610500D01*
X159685440Y-64610500D01*
X159764560Y-64610500D01*
X159764562Y-64610500D01*
X159840989Y-64590021D01*
X159861917Y-64577938D01*
X167149500Y-64577938D01*
X167149500Y-64657062D01*
X167163152Y-64708013D01*
X167169979Y-64733490D01*
X167169982Y-64733495D01*
X167209535Y-64802004D01*
X167209539Y-64802009D01*
X167209540Y-64802011D01*
X167265489Y-64857960D01*
X167265491Y-64857961D01*
X167265495Y-64857964D01*
X167334004Y-64897517D01*
X167334011Y-64897521D01*
X167410438Y-64918000D01*
X167410440Y-64918000D01*
X167489560Y-64918000D01*
X167489562Y-64918000D01*
X167565989Y-64897521D01*
X167634511Y-64857960D01*
X167690460Y-64802011D01*
X167730021Y-64733489D01*
X167750500Y-64657062D01*
X167750500Y-64577938D01*
X167730021Y-64501511D01*
X167725976Y-64494504D01*
X167690464Y-64432995D01*
X167690458Y-64432987D01*
X167634512Y-64377041D01*
X167634504Y-64377035D01*
X167565995Y-64337482D01*
X167565990Y-64337479D01*
X167540513Y-64330652D01*
X167489562Y-64317000D01*
X167410438Y-64317000D01*
X167372224Y-64327239D01*
X167334009Y-64337479D01*
X167334004Y-64337482D01*
X167265495Y-64377035D01*
X167265487Y-64377041D01*
X167209541Y-64432987D01*
X167209535Y-64432995D01*
X167169982Y-64501504D01*
X167169979Y-64501509D01*
X167156863Y-64550458D01*
X167149500Y-64577938D01*
X159861917Y-64577938D01*
X159909511Y-64550460D01*
X159965460Y-64494511D01*
X160005021Y-64425989D01*
X160025500Y-64349562D01*
X160025500Y-64270438D01*
X160005021Y-64194011D01*
X160005017Y-64194004D01*
X159965464Y-64125495D01*
X159965458Y-64125487D01*
X159909512Y-64069541D01*
X159909504Y-64069535D01*
X159840995Y-64029982D01*
X159840990Y-64029979D01*
X159815513Y-64023152D01*
X159764562Y-64009500D01*
X159685438Y-64009500D01*
X159647224Y-64019739D01*
X159609009Y-64029979D01*
X159609004Y-64029982D01*
X159540495Y-64069535D01*
X159540487Y-64069541D01*
X159484541Y-64125487D01*
X159484535Y-64125495D01*
X159444982Y-64194004D01*
X159444979Y-64194009D01*
X159431326Y-64244962D01*
X159424500Y-64270438D01*
X155700500Y-64270438D01*
X155700500Y-62224500D01*
X155720185Y-62157461D01*
X155772989Y-62111706D01*
X155824500Y-62100500D01*
X166292667Y-62100500D01*
X166359706Y-62120185D01*
G37*
%TD.AperFunction*%
%TD*%
M02*
